<svg xmlns="http://www.w3.org/2000/svg" viewBox="0 0 142.66 185.21"><!-- Source: https://football-logos.cc --><linearGradient id="a" x1="400" x2="400" y1="661.657" y2="142.056" gradientUnits="userSpaceOnUse" data-source="https://football-logos.cc"><stop offset="0" stop-color="#fccd7f"></stop><stop offset="1" stop-color="#e2ad43"></stop></linearGradient><path fill="#fccd7f" d="M133.773 0H8.89C3.969 0 0 3.995 0 8.89v82.206c0 55.933 32.835 94.112 71.332 94.112s71.331-38.179 71.331-94.112V8.89c0-4.895-3.995-8.89-8.89-8.89"></path><path fill="#ea2c2d" d="M71.332 184.467c-18.839 0-36.407-9.154-49.504-25.796C8.228 141.42.768 117.422.768 91.122V8.89A8.153 8.153 0 0 1 8.915.74h124.857a8.153 8.153 0 0 1 8.15 8.15v82.206c0 26.3-7.488 50.297-21.061 67.548-13.124 16.642-30.692 25.823-49.53 25.823"></path><path fill="url(#a)" d="M400 672c-47.6 0-93.1-24.4-128.1-68.8-41-52-63.5-126.2-63.5-208.8v-255h383.2v255c0 82.6-22.6 156.8-63.5 208.8-35 44.3-80.5 68.8-128.1 68.8" transform="matrix(.26458 0 0 .26458 -34.502 -13.23)"></path><g fill="#f4bb64" data-source="https://football-logos.cc"><path d="M11.933 66.066h3.704v-1.455h-3.73l4.047-4.074-1.031-1.032-4.022 4.074V47.413H9.446V63.58l-4.128-4.127-1.032 1.032 4.128 4.127H4.63v1.455h3.784l-4.048 4.075 1.032 1.032 4.048-4.075v16.14H10.9v-16.14l4.074 4.075 1.032-1.032zM130.73 66.066h-3.704v-1.455h3.731l-4.048-4.074 1.032-1.032 4.021 4.074V47.413h1.456V63.58l4.127-4.127 1.032 1.032-4.127 4.127h3.783v1.455h-3.783l4.048 4.075-1.032 1.032-4.048-4.075v16.14h-1.456v-16.14l-4.074 4.075-1.032-1.032z"></path></g><g fill="#ea2c2d"><path d="m72.072 48.869 3.228 3.254 1.112-1.111-3.281-3.308h4.63v-1.56h-4.55l3.254-3.255-1.085-1.111-3.308 3.28v-4.55h-1.56v4.577l-3.308-3.334-1.111 1.111 3.28 3.281h-4.55v1.561H69.4l-3.28 3.281 1.11 1.111 3.281-3.28v4.656h1.561zM69.77 68.421h2.885c2.778 0 4.206-2.884 4.286-2.99a1.043 1.043 0 0 0-.45-1.375 1.043 1.043 0 0 0-1.376.45c0 .026-.952 1.851-2.46 1.851H69.77c-1.085 0-2.09-1.402-2.382-1.905-.264-.502-.9-.661-1.375-.396-.503.264-.662.9-.397 1.375.158.344 1.693 2.99 4.154 2.99M65.617 78.528c.158.291 1.693 2.964 4.154 2.964h2.884c2.778 0 4.206-2.884 4.286-2.99a1.043 1.043 0 0 0-.45-1.376 1.043 1.043 0 0 0-1.376.45c0 .026-.952 1.852-2.46 1.852H69.77c-1.085 0-2.09-1.402-2.382-1.905-.264-.503-.9-.662-1.375-.397-.503.291-.662.9-.397 1.402M65.617 71.993c.158.291 1.693 2.963 4.154 2.963h2.884c2.778 0 4.206-2.884 4.286-2.99a1.043 1.043 0 0 0-.45-1.375 1.043 1.043 0 0 0-1.376.45c0 .026-.952 1.852-2.46 1.852H69.77c-1.085 0-2.09-1.403-2.382-1.905-.264-.503-.9-.662-1.375-.397-.503.29-.662.9-.397 1.402M60.272 85.937c-.74-.873-2.064-2.593-2.09-2.593-.344-.45-.98-.53-1.429-.185s-.529.978-.185 1.428a84 84 0 0 0 2.143 2.673c1.667 1.931 4.419 2.804 6.403 2.804.847 0 1.19.53 1.19.873v2.805c0 1.482 1.641 3.043 3.176 3.043h3.492c.9 0 1.879-.424 2.514-1.085.529-.53.82-1.19.82-1.879 0-.45-.027-2.302-.027-3.042.053-.212.582-.9 1.905-.9h.027c2.381 0 4.604-1.429 5.397-2.434a366 366 0 0 1 2.382-2.884.987.987 0 0 0-.133-1.429.987.987 0 0 0-1.428.132c-.08.08-1.747 2.09-2.435 2.937-.45.556-2.063 1.667-3.81 1.667-1.243 0-2.38.423-3.122 1.164-.529.53-.82 1.164-.82 1.747 0 .714 0 2.619.027 3.069 0 .106-.08.264-.212.423-.265.265-.715.476-1.085.476h-3.4659999999999997c-.53 0-1.138-.74-1.138-1.005V90.91c-.026-1.429-1.217-2.884-3.228-2.884-1.481 0-3.624-.662-4.868-2.09"></path><path d="M48.895 87.762c-.238.503 0 1.112.503 1.35.026.026 1.455.661 3.254 1.481-.106.45-.185 1.112-.185 1.852 0 2.62 1.852 5.398 5.318 5.398 2.117 0 3.44-.873 4.26-1.72.106.344.159.714.159 1.138.052 3.334 3.042 5.556 5.794 5.556h1.693c1.561 0 3.52-.026 5.107 0h.053c1.375 0 2.778-.582 3.836-1.64a5.89 5.89 0 0 0 1.746-4.18c0-.371.08-.715.186-1.006.793.873 2.17 1.852 4.365 1.852 3.466 0 5.318-2.778 5.318-5.398 0-.767-.106-1.455-.211-1.905l3.095-1.402c.503-.238.741-.847.503-1.35s-.847-.74-1.35-.502l-9.948 4.524c-.502.186-3.969 1.614-3.969 5.213 0 1.032-.396 2.01-1.137 2.751-.662.662-1.535 1.059-2.408 1.059h-.026c-1.614-.027-3.572 0-5.133 0H68.05c-1.746 0-3.73-1.456-3.757-3.572-.053-3.255-2.117-4.577-3.652-5.292-1.27-.582-10.239-4.63-10.318-4.683-.609-.265-1.19-.026-1.429.476m34.158 5.927c.026 0 .053-.027.08-.027l5-2.275c.053.291.08.662.08 1.058 0 1.35-.874 3.36-3.282 3.36-1.746 0-2.672-.873-3.095-1.455.608-.45 1.164-.661 1.217-.661M54.557 91.44a732 732 0 0 0 5.16 2.328c.396.186.767.37 1.084.635-.45.582-1.376 1.403-3.042 1.403-2.408 0-3.281-2.011-3.281-3.36 0-.371.026-.715.08-1.006M67.733 107.87h7.197c2.725 0 3.598-2.38 3.651-3.65.027-.556-.397-1.033-.952-1.059s-1.032.397-1.085.953c-.027.29-.185 1.746-1.614 1.746h-7.197c-1.402 0-1.56-1.297-1.587-1.694a1.01 1.01 0 0 0-1.059-.979 1.01 1.01 0 0 0-.978 1.059c.052 1.429 1.058 3.625 3.624 3.625M67.733 112.712h7.197c2.725 0 3.598-2.38 3.651-3.65.027-.556-.397-1.033-.952-1.06s-1.032.398-1.085.953c-.027.291-.185 1.747-1.614 1.747h-7.197c-1.402 0-1.56-1.297-1.587-1.694a1.01 1.01 0 0 0-1.059-.979 1.01 1.01 0 0 0-.978 1.059c.052 1.455 1.058 3.624 3.624 3.624"></path><path d="M83.794 112.712c-.741-.74-1.879-.74-2.62-.74-3.36 0-4.974 1.958-6.138 3.413-.741.9-1.19 1.455-1.746 1.455h-4.207c-.344 0-.847-.635-1.376-1.296-1.138-1.43-2.858-3.625-6.43-3.625-3.175 0-3.175 2.037-3.175 2.698v3.837c0 .714.292 1.402.874 1.984.767.768 1.984 1.297 3.016 1.297 2.91 0 3.387-1.694 3.387-2.699.026-1.005-.424-1.614-.794-1.958-.98-.873-2.46-.714-2.62-.688-.555.08-.952.582-.873 1.138s.582.952 1.138.873c.291-.026.82 0 1.005.185.027.027.106.106.106.397 0 .37 0 .714-1.35.714-.422 0-1.137-.264-1.56-.687-.132-.133-.291-.318-.291-.53v-3.863c0-.133 0-.396.053-.45s.344-.211 1.084-.211c2.593 0 3.731 1.455 4.816 2.831.794 1.032 1.64 2.064 2.963 2.064h4.207c1.535 0 2.434-1.111 3.307-2.196 1.059-1.297 2.17-2.646 4.551-2.646.265 0 1.059 0 1.19.159 0 0 .027.08.027.185v3.8630000000000004c0 1.111-1.164 1.508-1.931 1.508-.397 0-.741-.053-.98-.159-.264-.106-.29-.238-.29-.397 0-.344.106-.45.159-.502.238-.212.793-.239 1.005-.212.556.053 1.058-.344 1.111-.9s-.344-1.058-.9-1.137c-.158-.027-1.613-.16-2.592.74-.37.344-.847.98-.82 2.011.026 1.588 1.296 2.567 3.307 2.567 1.931 0 3.969-1.244 3.969-3.546v-3.8630000000000004c.026-.82-.291-1.349-.582-1.614M70.194 124.777v5.054a1.005 1.005 0 1 0 2.01 0v-5.054a1.005 1.005 0 1 0-2.01 0"></path><path d="M83.45 135.096c.238.45 2.116 3.678 2.354 4.048.186.318.53.503.873.503.186 0 .344-.053.503-.132.476-.291.635-.9.37-1.403-.846-1.428-2.143-3.65-2.301-3.968s-.265-.98-.238-1.323v-1.323c0-.767-.186-1.35-.582-1.72-.212-.212-.635-.476-1.244-.476h-1.853c-.581 0-1.057.185-1.428.529-.238.238-.503.635-.503 1.296v1.112c-.079.026-.238.053-.476.053-.714 0-14.87.026-15.002.026-.397 0-.635-.053-.74-.08v-1.084c0-.423-.133-1.773-1.985-1.826h-1.852c-.635 0-1.032.265-1.27.503-.37.37-.556.926-.53 1.588v1.375c0 .318-.21 1.27-.581 1.985-.503.952-1.958 3.307-1.985 3.333-.29.477-.132 1.112.344 1.403s1.112.132 1.403-.344c.053-.106 1.481-2.434 2.037-3.44.503-.952.82-2.222.82-2.937v-1.455h1.561v1.006c0 .502.185.952.53 1.296.634.635 1.56.688 2.248.688.133 0 14.314-.027 15.002-.027 1.852 0 2.514-1.031 2.514-2.01v-.953h1.508v1.455c0 .027-.027 1.35.503 2.302"></path><path d="M80.327 143.484c.609-.239.635-.953.477-1.376s-1.164-3.599-1.164-3.599c-.291-.9-1.112-1.958-3.308-2.01-1.111-.027-5.926 0-8.52 0h-1.534c-1.164 0-2.593.264-3.334 2.38-.238.689-1.005 2.885-1.164 3.308-.132.397-.053.979.53 1.217.634.265 1.216-.026 1.375-.529s.926-2.62 1.164-3.307c.318-.926.635-1.006 1.403-1.006h1.534c2.567 0 7.382-.026 8.467 0 1.243.027 1.376.45 1.429.609 0 0 1.032 3.201 1.164 3.598.132.37.608 1.058 1.481.715"></path><path d="M71.279 146.659c.555 0 1.005-.45 1.005-1.006v-5.106c0-.556-.45-1.006-1.005-1.032-.556 0-1.006.45-1.006 1.005v5.107c-.026.582.424 1.032 1.006 1.032M76.306 123.481c-.556-.08-1.085.291-1.164.847l-.741 4.55c-.08.556.29 1.085.846 1.165h.16a1 1 0 0 0 1.005-.847l.74-4.55a1 1 0 0 0-.846-1.165M80.777 123.322l-1.72 2.99c-.29.476-.105 1.111.37 1.376.16.08.345.132.504.132.344 0 .688-.185.873-.503l1.72-2.99c.29-.476.105-1.11-.37-1.375s-1.112-.106-1.377.37M93.61 136.155c.132.052.264.079.423.079.397 0 .767-.212.926-.609.238-.502 0-1.11-.503-1.349-2.751-1.244-6.43-6.27-6.588-9.948-.026-.556-.503-1.006-1.058-.98s-1.006.503-.98 1.06c.186 4.523 4.42 10.238 7.78 11.747M93.742 126.762c.238 0 .45-.08.661-.238.424-.37.477-1.006.133-1.429-4.419-5.265-5.319-8.784-5.292-12.462 0-.556-.45-1.032-1.005-1.032-.556 0-1.006.45-1.006 1.006-.026 4.868 1.64 8.863 5.768 13.758.159.291.45.397.74.397"></path><path d="M109.537 66.992c-1.957 0-3.386 1.376-3.413 3.228-.026 1.376-.079 43.683-.079 45.8 0 1.693-1.693 3.307-3.519 3.307-3.254 0-4.127-2.355-4.127-3.598v-4.022c0-1.032-.768-3.73-2.884-5.53a5.7 5.7 0 0 0 .211-1.534v-6.694c0-.556-.45-1.006-1.005-1.006-.556 0-1.006.45-1.006 1.032v6.668c0 .132 0 .264-.026.397a7.5 7.5 0 0 0-2.884-.556h-.026c-4.207 0-6.774 3.519-6.88 3.678a1.024 1.024 0 0 0 .238 1.428c.45.318 1.085.239 1.43-.211.026-.027 2.09-2.831 5.238-2.831h.026c.874 0 1.588.185 2.223.476-.265.503-.556.952-.847 1.376-.238.344-.45.661-.608.979-1.085 1.958-.953 3.968-.953 4.048.027.529.476.952 1.006.952h.079c.556-.053.979-.529.953-1.084 0-.027-.08-1.509.687-2.91.133-.239.318-.53.53-.848.238-.37.529-.82.793-1.27 1.27 1.376 1.694 3.149 1.694 3.52v4.021c0 2.805 2.116 5.636 6.164 5.636 2.937 0 5.53-2.487 5.53-5.345 0-2.143.08-44.45.08-45.773 0-.9.74-1.243 1.375-1.243.45 0 1.509.158 1.509 1.64v23.469c0 .344.158.979 1.005 1.005.82 0 1.032-.635 1.032-1.005V70.723c0-2.566-1.852-3.73-3.546-3.73"></path><path d="M112.051 99.51c-.556 0-1.005.45-1.005 1.005v5.239a1.005 1.005 0 1 0 2.01 0v-5.239c.027-.555-.45-1.005-1.005-1.005M99.88 93.16h-4.445a1.005 1.005 0 1 0 0 2.01h4.445c.556 0 1.006-.45 1.006-1.005.026-.529-.45-1.005-1.006-1.005M101.653 89.694c0-.556-.45-1.006-1.006-1.006H95.41a1.005 1.005 0 1 0 0 2.011h5.238c.556 0 1.006-.45 1.006-1.005M102.447 85.196c0-.556-.45-1.006-1.006-1.006h-5.98a1.005 1.005 0 1 0 0 2.011h5.98c.556 0 1.006-.45 1.006-1.005M103.4 73.29c-.45-.344-1.086-.239-1.43.211l-4.524 6.112c-.344.45-.238 1.085.212 1.429.185.132.397.212.608.212a.98.98 0 0 0 .82-.424l4.525-6.112c.344-.476.264-1.11-.212-1.428M105.833 64.373a3.65 3.65 0 0 0 2.7-1.058 3.61 3.61 0 0 0 1.057-2.514V58.13a1.005 1.005 0 1 0-2.01 0v2.672c0 .397-.16.794-.45 1.059-.318.317-.741.476-1.27.45-1.985-.027-3.308 0-3.651 0-3.281.052-5.319 3.121-5.319 5.291 0 .767-.264 1.561-.688 2.196-.502.714-5.873 8.493-6.085 8.81-.317.45-.212 1.085.265 1.43.185.132.37.185.582.185.317 0 .635-.16.846-.45.053-.08 5.583-8.096 6.086-8.81.688-.953 1.058-2.197 1.058-3.361 0-1.27 1.323-3.228 3.307-3.254.318.026 1.614 0 3.572.026M108.664 47.916c-.555 0-1.005.45-1.005 1.032v4.313c0 .555.45 1.005 1.005 1.005.556 0 1.006-.45 1.006-1.032v-4.313c0-.555-.45-1.005-1.006-1.005M77.1 82.867c-.344.45-.239 1.085.211 1.43.185.132.397.21.609.21.317 0 .608-.131.82-.396.08-.106 1.826-2.46 1.826-6.059V59.611c0-1.244.74-2.62 1.428-3.36 1.138-1.218 1.905-2.594 1.905-5.266v-12.99c0-.265.053-1.615 1.244-1.615.397 0 .688.106.926.344.265.265.397.688.397 1.138v15.61c0 1.561-.503 2.884-.873 3.255-1.456 1.614-3.175 4.074-3.149 6.561.027 1.985 1.8 3.175 3.096 3.175h2.354c1.43 0 4.26-1.217 4.26-4.048v-7.7c0-.237.08-1.058 1.112-1.058.37 0 .635.106.82.318s.238.476.264.635v7.62c0 1.984-.555 3.572-1.693 4.683a5.33 5.33 0 0 1-3.651 1.535h-.027c-1.27 0-2.434.476-3.307 1.35-.767.766-1.19 1.772-1.19 2.75v5.53c0 .556.45 1.032 1.005 1.032s1.005-.45 1.005-1.005v-5.556c0-.424.212-.9.609-1.297.476-.476 1.138-.74 1.852-.74 1.429 0 3.519-.556 5.133-2.144 1.508-1.481 2.302-3.598 2.302-6.112v-7.62c0-.714-.291-1.402-.741-1.957-.582-.662-1.429-1.032-2.381-1.006-2.038.027-3.096 1.588-3.096 3.096v7.7c0 1.507-1.746 2.01-2.223 2.01h-2.354c-.212 0-1.032-.37-1.059-1.164-.026-1.429.926-3.255 2.646-5.186.82-.9 1.376-2.805 1.376-4.63V37.888c0-1.032-.344-1.958-1.005-2.593-.609-.608-1.43-.952-2.355-.952-1.905 0-3.281 1.534-3.281 3.651v12.991c0 2.25-.635 3.122-1.35 3.89-.925.979-1.984 2.83-1.984 4.762v18.415c-.053 2.858-1.455 4.789-1.481 4.815M66.225 123.507c-.555.08-.926.609-.846 1.165l.74 4.55a1 1 0 0 0 1.006.847h.159c.555-.08.926-.608.846-1.164l-.74-4.55a1.034 1.034 0 0 0-1.165-.848M60.378 123.005c-.476.29-.662.9-.37 1.376l1.72 2.99c.184.317.528.502.872.502.16 0 .344-.053.503-.132.476-.291.662-.9.37-1.376l-1.72-2.99c-.264-.476-.899-.661-1.375-.37M48.498 136.287c.132 0 .291-.027.423-.08 3.36-1.508 7.62-7.223 7.78-11.747.026-.556-.424-1.032-.98-1.058s-1.032.423-1.058.979c-.132 3.677-3.81 8.73-6.588 9.948-.503.238-.741.82-.503 1.35.159.37.53.608.926.608M46.62 130.043c.264 0 .502-.106.714-.291 5.53-5.318 8.202-10.901 8.202-17.066 0-.556-.45-1.005-1.005-1.005-.556 0-1.006.45-1.006 1.031.027 5.557-2.46 10.663-7.567 15.584-.397.397-.423 1.032-.026 1.43.158.21.423.317.688.317"></path><path d="M32.994 69.083c.635 0 1.375.317 1.375 1.243.027 1.323.08 43.63.08 45.773 0 2.831 2.593 5.345 5.53 5.345 4.048 0 6.164-2.831 6.164-5.636v-4.022c0-.37.424-2.143 1.694-3.519.264.477.555.9.793 1.27.212.318.397.609.53.847.767 1.402.687 2.91.687 2.91a.996.996 0 0 0 .953 1.085h.08a.994.994 0 0 0 1.005-.952c0-.08.132-2.117-.953-4.048-.158-.318-.397-.635-.608-.98-.265-.423-.582-.872-.847-1.375a5.3 5.3 0 0 1 2.223-.476h.026c3.149 0 5.212 2.804 5.239 2.83.317.45.952.556 1.429.239.45-.318.555-.953.238-1.429-.106-.159-2.7-3.678-6.88-3.678h-.026c-1.111 0-2.064.212-2.884.556-.026-.132-.026-.265-.026-.397v-6.667c0-.556-.45-1.006-1.006-1.032-.555 0-1.005.45-1.005 1.005v6.694c0 .53.08 1.032.211 1.535-2.116 1.799-2.884 4.498-2.884 5.53v4.021c0 1.244-.873 3.599-4.127 3.599-1.8 0-3.493-1.614-3.519-3.308 0-2.116-.08-44.423-.08-45.8-.026-1.878-1.455-3.227-3.412-3.227-1.694 0-3.546 1.138-3.546 3.678v23.468c0 .424.318.926.98.926.793 0 1.031-.502 1.031-.926V70.697c.026-1.456 1.085-1.614 1.535-1.614"></path><path d="M30.48 99.536c-.556 0-1.005.45-1.005 1.006v5.238a1.005 1.005 0 1 0 2.01 0v-5.238c0-.53-.45-1.006-1.005-1.006M47.07 93.213h-4.446a1.005 1.005 0 1 0 0 2.01h4.445c.556 0 1.006-.45 1.006-1.005.026-.556-.424-1.005-1.006-1.005M47.122 88.715h-5.238a1.005 1.005 0 1 0 0 2.01h5.238c.556 0 1.006-.45 1.006-1.005s-.424-1.005-1.006-1.005M41.09 86.254h5.98a1.005 1.005 0 1 0 0-2.01h-5.98a1.005 1.005 0 1 0 0 2.01M44.265 81.28a.9.9 0 0 0 .608-.212c.45-.344.556-.979.212-1.428l-4.55-6.086c-.345-.45-.98-.555-1.43-.212s-.555.98-.211 1.43l4.524 6.111c.212.265.53.397.847.397M33.946 57.176c-.556 0-1.005.45-1.005 1.006v2.672c0 .926.37 1.852 1.058 2.514.688.688 1.667 1.058 2.725 1.058 1.958-.026 3.255 0 3.598 0 1.985.026 3.308 1.984 3.308 3.254 0 1.165.397 2.408 1.058 3.36.503.715 6.033 8.732 6.086 8.811.185.291.502.45.846.45a.95.95 0 0 0 .582-.185c.45-.318.582-.953.265-1.402-.238-.318-5.583-8.097-6.086-8.811a3.85 3.85 0 0 1-.687-2.196c0-2.17-2.011-5.239-5.319-5.292-.344 0-1.666-.026-3.65 0-.504 0-.953-.159-1.27-.45a1.48 1.48 0 0 1-.45-1.058v-2.672c-.027-.609-.477-1.059-1.059-1.059M33.867 47.942c-.556 0-1.006.45-1.032 1.006v4.313c0 .555.45 1.005 1.005 1.031.556 0 1.006-.45 1.006-1.005v-4.313c.053-.555-.397-1.032-.98-1.032M62.018 54.901c-.714-.767-1.349-1.64-1.349-3.89v-12.99c0-2.117-1.376-3.652-3.28-3.652-.927 0-1.747.318-2.356.953-.661.661-1.005 1.587-1.005 2.593v15.61c0 1.8.556 3.704 1.376 4.63 1.72 1.905 2.646 3.757 2.646 5.186 0 .82-.847 1.164-1.059 1.164h-2.355c-.476 0-2.222-.502-2.222-2.01v-7.7c0-1.508-1.058-3.069-3.096-3.095-.952-.027-1.799.344-2.38 1.005a2.96 2.96 0 0 0-.742 1.958v7.62c0 2.513.794 4.63 2.302 6.112 1.614 1.587 3.704 2.143 5.133 2.143.714 0 1.376.264 1.852.74.37.371.609.847.609 1.297v5.556c0 .556.45 1.006 1.005 1.006.556 0 1.005-.45 1.005-1.032v-5.53c0-.979-.423-1.984-1.19-2.751a4.6 4.6 0 0 0-3.281-1.35h-.08c-1.005 0-2.486-.397-3.65-1.534-1.112-1.112-1.694-2.7-1.694-4.684v-7.62c0-.158.08-.45.265-.635.185-.211.45-.317.82-.317 1.032.026 1.111.82 1.111 1.058v7.7c0 2.83 2.831 4.048 4.26 4.048h2.355c1.27 0 3.069-1.19 3.095-3.175.027-2.487-1.693-4.948-3.148-6.562-.344-.397-.873-1.693-.873-3.254V37.888c0-.476.132-.873.397-1.137.211-.239.529-.344.926-.344 1.19 0 1.243 1.349 1.243 1.614v12.99c0 2.7.767 4.049 1.905 5.266.688.74 1.429 2.117 1.429 3.36V78.08c0 3.598 1.773 5.953 1.825 6.058.212.265.503.397.82.397.212 0 .424-.079.61-.211.449-.344.528-.98.21-1.429-.026-.027-1.428-1.905-1.428-4.842V59.637c-.026-1.905-1.085-3.757-2.01-4.736"></path></g><g fill="#e5a345"><path d="M36.512 10.451v-.873H31.38v-.74l4.524-.292v-.847l-4.524.238h-5.9v.874h4.497v.74H25.03v.874h4.947v.714h-4.154v3.969h4.154v.714h-4.286v.873h4.286v.794h-5.053v.873h11.588v-.873H31.38v-.794h4.339v-.82h-4.34v-.714h4.181v-3.97h-4.18v-.714h5.132zm-9.286 1.614h2.725v.714h-2.725zm0 2.196v-.767h2.725v.767zm6.932 0H31.38v-.767h2.778zm0-2.196v.714H31.38v-.714zM51.17 13.203h-1.349v1.878h4.577l.344-.9H51.17z"></path><path d="M52.15 7.964v-.53h-1.43v.53h-4.815v4.63l-.714 6.191h1.005l1.032-5.926h7.779v.238h1.376v-1.138h-9.155v-.503h9.075V9.34H53.34v-.53h3.307v-.873H52.15zm-4.922.873h1.72v.53h-1.72zm0 1.323h1.72v.503h-1.72zm3.043 0h1.72v.503h-1.72zm4.762 0v.503h-1.72v-.503zm-3.042-.794h-1.72v-.529h1.72z"></path><path d="M47.334 14.922h1.058l1.032-1.587h-1.429zM53.87 13.944l.925-.212.926 1.19h.873l-.502-1.481h-1.508l-.847.238-.265-.503h-1.481l.793.768zM55.827 16.907v-1.402h-5.82l.264-.291h-1.614l-1.323 2.01h1.058l.318-.317 2.09.661-3.836 1.191h1.931l3.07-.82 2.566.82h2.063l-3.254-1.19zm-4.948-.212h-1.984l.291-.29h4.763l.052.184-1.825.582zM67.045 7.435l-1.27 2.778v1.27l.53-.662v1.059h.952v1.137h-1.376v1.138h1.376v3.122l-.476.053-.106-2.381h-.82l.37 2.434-.45.053v1.138l4.207-.397v-1.138l-.37.027.29-2.117h-.846l-.106 2.17-.45.052v-2.99h1.376v-1.137h-1.375v-1.138h.952v-1.058l.53.661v-1.296L68.658 7.46h-1.614zm-.688 3.307 1.535-1.931 1.508 1.931zM72.072 9.816h3.123v1.058h-3.123zM75.01 11.88h-2.752v4.656h2.751zm-1.747 1.164h.714v2.328h-.714z"></path><path d="M75.644 17.648h-.952l.37 1.137h1.826V7.725h-6.482v11.06h1.243V8.864h3.995zM88.37 7.435h-1.666l1.35 1.508h1.084zM87.683 11.271l-1.429 2.381h1.561l.98-2.38zM89.006 11.88h.9l1.031-2.355h-1.243z"></path><path d="m93.477 12.277.424 1.084h2.063V9.948l.662 1.958h.714l-.317-2.355h-1.059V7.726h-6.376V8.81h2.328l-2.143 4.736h1.138l2.593-4.736h1.085v3.466zM87.868 9.207h-1.614l1.35 1.482h1.19z"></path><path d="m88.16 15.346-1.985 3.228h1.217l2.381-3.228h1.19v3.44h1.456v-3.44h1.217l2.381 3.228h1.217l-1.984-3.228h1.984V14.26H92.42v-.847h-1.455v.847h-4.816v1.085zM106.521 8.15V9.18h5.213V8.149h-1.932v-.714h-1.323v.714zM108.267 9.63h-1.402l.503 1.06h-1.058v1.057h5.688V10.69h-1.138l.53-1.058h-1.403l-.211 1.058h-1.297zM106.68 18.785h1.323v-2.037h2.328v1.217h-.688l.318.82h1.693v-6.403h-4.974zm3.625-2.963h-2.329v-.74h2.329zm0-1.667h-2.329v-.794h2.329zM113.77 15.531h3.705v-.926h-3.704v-.635h3.704v-.926h-3.704v-.662l2.381.027h1.323V9.684h-3.7039999999999997v-.635h3.81V7.99h-3.81v-.555h-1.323v3.228h3.704v.714h-3.704v7.408h4.921l.37-.979h-3.968v-.74h3.704v-.926h-3.704z"></path></g><g fill="#f4bb64"><path d="M71.914 173.514v-.265c0-.08 0-.159-.027-.212v-.079c-.106-1.058-.635-1.667-1.56-1.878a5.2 5.2 0 0 0-1.138-.133 38 38 0 0 0-2.461 0c-.397 0-.767.053-1.138.133-.794.185-1.296.661-1.455 1.481a3.6 3.6 0 0 0-.106.741c-.026 1.005-.026 2.064-.026 3.122 0 .318.053.635.08.9q.197 1.309 1.348 1.667c.239.079.503.132.768.132.82.026 1.693.026 2.751.026q.556 0 1.032-.079c1.217-.185 1.8-.794 1.879-2.037.053-.582.053-2.646.053-3.52m-6.165 1.428v-1.4020000000000001c.026-.608.238-.846.794-.926.106-.026.238-.026.37-.026h2.037c.133 0 .291 0 .45.026.476.053.688.318.741.847.026.185.026.37.026.529v.635c0 .635 0 1.323-.026 1.984-.026.556-.238.794-.767.847-.238.026-.477.026-.688.026H66.94c-.133 0-.291 0-.424-.026-.529-.08-.74-.317-.767-.873-.027-.344 0-.714 0-1.058v-.477zM19.844 134.514l.238-.08a.8.8 0 0 0 .212-.105c.026-.027.052-.027.079-.053.952-.476 1.35-1.164 1.217-2.117a6.7 6.7 0 0 0-.265-1.11 30 30 0 0 0-.873-2.303c-.132-.37-.317-.688-.529-1.032-.45-.688-1.085-.979-1.905-.846-.238.026-.503.08-.74.158-.953.344-1.932.688-2.911 1.085-.318.106-.582.265-.82.397-.768.423-1.138 1.032-1.085 1.852.026.238.053.53.132.767.265.768.556 1.588.926 2.593.133.37.265.662.424.953.582 1.058 1.375 1.402 2.566 1.058.582-.185 2.514-.9 3.334-1.217m-3.52-5.265c.107-.053.239-.08.345-.132.317-.133.635-.238.979-.344.582-.186.873-.08 1.164.423.053.106.106.212.159.344.264.74.502 1.323.714 1.905.053.132.08.291.132.423.106.477-.053.768-.529.98-.185.079-.344.158-.476.211-.212.08-.397.159-.609.212-.608.238-1.243.45-1.852.661-.529.159-.82.053-1.058-.423a7 7 0 0 1-.265-.635c-.185-.503-.397-1.006-.608-1.64-.053-.133-.08-.265-.106-.398-.106-.502.053-.793.556-1.031.317-.133.661-.265.979-.37.158-.054.29-.107.45-.16zM78.925 170.392l.582 5.45-.529-.556a616 616 0 0 1-4.1-4.312.39.39 0 0 0-.318-.133l-.768.08-.82.08.873 8.148 1.8-.185-.583-5.424.582.635c1.35 1.402 2.673 2.805 4.022 4.234a.39.39 0 0 0 .318.132h.026c.185-.027.37-.053.556-.053.079 0 .158-.027.211-.027l.794-.079-.873-8.15zM44.847 162.19l-3.334 4.339v-6.694a.38.38 0 0 0-.159-.318 12 12 0 0 1-.608-.476l-.635-.503-4.974 6.51 1.428 1.11 3.308-4.339v6.694c0 .132.053.238.132.318.159.105.291.211.45.344.053.052.106.079.185.132l.635.476 4.974-6.509zM25.426 139.832l-4.894 2.46.317-.687c.873-1.8 1.72-3.572 2.593-5.371.053-.132.053-.238 0-.344a8 8 0 0 1-.344-.688l-.37-.714-7.303 3.704.82 1.614 4.869-2.46-.37.766c-.847 1.747-1.694 3.493-2.514 5.24-.053.132-.053.237 0 .343.08.159.159.318.264.503.027.08.08.132.106.212l.37.714 7.303-3.704zM8.916 119.75l.45 1.747 3.149-.847 1.058 4.075-3.148.82.45 1.72 7.937-2.064-.45-1.746-3.148.82-1.085-4.048 3.148-.82-.45-1.747zM13.467 111.151c.424 0 .662.16.794.556q.08.278.159.635c.159 1.032.29 2.09.45 3.122l.185 1.297 1.64-.239v-.21200000000000002l-.159-1.19c-.158-1.111-.317-2.249-.476-3.36-.053-.344-.159-.714-.29-1.138-.318-.9-.953-1.376-1.88-1.376-.37 0-.687 0-.978.053-.768.106-1.614.212-2.593.37-.265.054-.556.107-.873.186-.926.265-1.456.9-1.508 1.826-.027.476-.027.926.026 1.375.08.662.185 1.323.265 1.958.052.397.105.768.158 1.138.053.397.106.794.186 1.19l.052.318 1.64-.238-.184-1.296c-.16-1.059-.291-2.09-.45-3.149-.027-.185-.053-.37-.053-.556 0-.45.185-.714.608-.846.133-.053.292-.08.424-.08.873-.132 1.667-.238 2.434-.344zM60.537 171.291l2.857.662.37-1.588-7.434-1.773-.37 1.614 2.857.662-1.535 6.376 1.747.397zM123.058 140.652l-5.027-2.46-.768 1.587 4.922 2.408a2.7 2.7 0 0 0 3.624-1.243l1.482-3.043-1.482-.715-1.508 3.07c-.211.45-.767.635-1.243.396M93.689 171.159l-2.46-5.027-1.588.767 2.381 4.921a2.7 2.7 0 0 0 3.625 1.244l3.069-1.482-.714-1.481-3.07 1.481a.96.96 0 0 1-1.243-.423M95.656 163.462l1.545-1.067 4.646 6.728-1.546 1.067zM32.3 162.469l5.566-5.989 1.376 1.28-5.566 5.988zM102.579 158.591c-.132-.08-.238-.026-.291.053-.423.344-.82.662-1.217.98-.132.105-.106.21-.08.317.424 1.666 1.482 5.926 1.932 7.752.106.397.582.556.873.291l3.519-2.884c.106-.08.08-.212-.026-.291l-1.218-.635-1.825 1.508-1.27-5s5.82 2.751 5.98 2.83c.052.027.211.053.29 0 .265-.211 1.403-1.164 1.403-1.164s-5.874-2.725-8.07-3.757M84.72 170.497l4.445-1.481-.53-1.561-4.656 1.56c-1.455.477-2.276 2.25-1.694 3.97l.556 1.614c.582 1.746 2.302 2.619 3.757 2.143l4.683-1.561-1.481-4.366-1.667.556.952 2.804s-1.56.503-2.751.9c-.556.185-1.059-.133-1.323-.662-.503-.952-.635-1.323-.874-2.487-.158-.555.027-1.243.583-1.429M109.3 151.421l4.18 3.545-.741-.026-5.953-.318c-.132 0-.238.027-.318.133-.158.185-.344.397-.502.582l-.53.608 6.245 5.319 1.164-1.376-4.154-3.52.873.054c1.931.105 3.89.185 5.82.29.133 0 .239-.026.318-.132.106-.132.238-.29.344-.423.053-.053.106-.106.133-.159l.529-.608-6.244-5.318zM114.22 147.585c.98-1.456 2.594-3.89 2.594-3.89l-1.376-.926-2.699 4.075c-.847 1.27-.423 3.175 1.085 4.18l1.428.953c1.535 1.032 3.414.688 4.287-.582l2.751-4.075-3.836-2.566-.979 1.481 2.46 1.64s-.925 1.35-1.64 2.382c-.317.476-.926.529-1.429.29-1.005-.449-1.296-.66-2.222-1.454-.45-.344-.74-1.032-.423-1.508M125.36 127.132l-.239-.08c-.079-.026-.158-.052-.211-.052-.027 0-.053 0-.08-.026-1.031-.239-1.772.052-2.275.846a7.5 7.5 0 0 0-.503 1.032c-.29.767-.555 1.561-.82 2.328-.106.37-.212.741-.238 1.112-.106.82.212 1.428.926 1.878.212.132.423.265.661.344q1.43.516 2.937 1.032c.318.106.635.185.873.212.874.158 1.535-.08 2.011-.741.133-.185.291-.423.397-.688a83 83 0 0 0 .926-2.593 5.7 5.7 0 0 0 .265-1.005c.238-1.191-.185-1.958-1.297-2.435-.555-.211-2.487-.873-3.333-1.164m-.662 6.297c-.106-.053-.238-.079-.344-.132-.317-.106-.661-.212-.979-.344-.555-.212-.74-.503-.608-1.058.026-.106.053-.238.105-.37.265-.741.477-1.35.662-1.932.053-.132.106-.265.185-.423.212-.424.53-.556 1.032-.424.185.053.344.106.503.159.211.08.397.132.608.212.609.211 1.244.423 1.852.661.503.185.662.476.556 1.006-.053.211-.132.45-.212.661a33 33 0 0 1-.582 1.667c-.053.132-.106.264-.159.37-.238.477-.555.582-1.084.424-.344-.106-.688-.212-1.006-.344-.158-.053-.29-.106-.45-.16zM124.936 119.38l5.292 1.376-.688.29c-1.826.768-3.651 1.535-5.503 2.33-.133.052-.186.131-.238.264-.053.238-.133.502-.186.74l-.211.794 7.937 2.064.45-1.746-5.265-1.376.793-.344c1.8-.767 3.572-1.508 5.372-2.275.132-.053.185-.133.238-.265v-.026c.053-.186.079-.37.132-.53.026-.079.026-.132.053-.211l.212-.768-7.938-2.063zM128.085 113.824c.238-1.747.635-4.63.635-4.63l-1.614-.212-.662 4.868c-.211 1.508 1.006 3.043 2.805 3.281l1.693.238c1.826.238 3.387-.9 3.599-2.408l.688-4.868-4.578-.608-.238 1.746 2.937.397s-.238 1.64-.423 2.857c-.08.556-.609.873-1.165.9-1.084.026-1.455-.027-2.619-.318-.608-.185-1.138-.661-1.058-1.243M49.107 166.714c1.534.847 4.1 2.249 4.1 2.249l.794-1.429-4.312-2.355c-1.35-.74-3.202-.132-4.075 1.456l-.82 1.508c-.873 1.614-.37 3.466.952 4.207l4.313 2.38 2.223-4.047-1.561-.847-1.43 2.593s-1.428-.82-2.513-1.402c-.502-.291-.608-.873-.423-1.403.37-1.032.53-1.349 1.244-2.328.343-.503 1.005-.847 1.508-.582M27.2 145.838c.952 1.482 2.54 3.943 2.54 3.943l1.375-.9-2.646-4.127c-.82-1.297-2.752-1.667-4.286-.662l-1.455.926c-1.561 1.006-1.985 2.884-1.164 4.154l2.645 4.154 3.863-2.487-.952-1.482-2.487 1.614s-.873-1.402-1.535-2.434c-.317-.476-.106-1.058.318-1.429.82-.74 1.11-.926 2.196-1.455.555-.317 1.296-.317 1.587.185M31.432 160.655l-.026-.556c.291-.079.609-.238.926-.45.476-.343 2.037-1.693 2.699-2.248l.185-.16.159-.158c.026-.026.026-.053.053-.053.74-.767.873-1.56.423-2.408a5 5 0 0 0-.635-.952c-.53-.635-1.058-1.27-1.587-1.879a6 6 0 0 0-.847-.793c-.635-.503-1.35-.556-2.064-.159-.212.106-.45.238-.635.397-.767.635-1.587 1.323-2.381 1.984-.238.212-.476.45-.635.635-.582.662-.715 1.376-.397 2.09.106.212.212.477.397.688a60 60 0 0 0 1.746 2.117c.238.291.476.53.714.74.106.08.186.16.292.239l.052.952zm-2.645-4.471c-.08-.106-.186-.212-.238-.344-.292-.45-.239-.768.185-1.138.264-.238.529-.476.793-.688.133-.106.239-.212.37-.291l.08-.053c.106-.08.185-.159.291-.238.265-.212.53-.45.794-.662.476-.37.794-.37 1.217 0l.265.265c.502.582.926 1.085 1.323 1.561.079.106.185.238.264.37.265.397.212.741-.159 1.112l-.37.37c-.159.132-.317.265-.503.423-.502.424-1.005.847-1.534 1.244l-.238.159-.027-.847-1.429.053c-.344-.423-.687-.82-1.084-1.296"></path></g><g fill="#ea2c2d" data-source="https://football-logos.cc"><path d="M67.548 156.633v.635h-3.572l1.985-2.17c.238-.264.423-.502.529-.714s.159-.397.159-.555c0-.238-.08-.424-.239-.582s-.37-.212-.635-.212c-.238 0-.45.08-.608.212-.318.264-.238.688-.265.926h-.82c0-.45.027-1.006.476-1.429.291-.291.741-.397 1.297-.397.502 0 .926.132 1.217.37s.45.583.45.98c0 .29-.08.608-.265.899-.159.291-.53.74-1.085 1.323l-.661.714zM75.882 156.633v.635h-3.571l1.984-2.17c.238-.264.423-.502.53-.714s.158-.397.158-.555a.78.78 0 0 0-.238-.582.97.97 0 0 0-.635-.212c-.238 0-.45.08-.609.212-.317.264-.238.688-.264.926h-.82c0-.45.026-1.006.476-1.429.29-.291.74-.397 1.296-.397.503 0 .926.132 1.217.37s.45.583.45.98c0 .29-.08.608-.265.899s-.529.74-1.084 1.323l-.688.714zM71.86 154.94c0 .767-.158 1.376-.502 1.826s-.82.661-1.402.661c-.609 0-1.059-.212-1.402-.661s-.503-1.059-.503-1.852.159-1.403.503-1.853.82-.661 1.402-.661c.608 0 1.085.212 1.402.661.344.397.503 1.032.503 1.879m-1.93 1.773q.515 0 .793-.477c.278-.477.265-.767.265-1.375s-.08-1.059-.265-1.376-.423-.476-.767-.476-.609.158-.794.476-.265.767-.265 1.376c0 .582.08 1.058.265 1.375s.45.477.767.477M77.682 157.268v-4.021a3.5 3.5 0 0 1-.98.397v-.583c.398-.105.874-.37 1.191-.687h.556v4.92h-.767z"></path></g><!-- source: https://football-logos.cc --></svg>