<svg xmlns="http://www.w3.org/2000/svg" viewBox="0 0 156.58 185.21"><!-- Source: https://football-logos.cc --><g transform="translate(-27.543 -13.23)scale(.26458)" data-source="https://football-logos.cc"><path fill="#cb9920" d="M626.6 129.3C517.5 111.5 400 50 400 50s-117.5 61.5-226.6 79.3c-8.6 35.9-27.6 117.7-14.3 230.7 10.3 87.7 49.5 249 240.9 302.7C591.4 609 630.6 447.7 640.9 360c13.3-113-5.7-194.8-14.3-230.7"></path><path fill="#fff" d="M400 648.3c-78.3-22.8-137.6-67-176.4-131.4-26.4-43.7-43.4-97-50.6-158.5-12.1-103.2 3.1-179 11.9-216.9 93.8-17.2 189.6-63 215.1-75.8 25.6 12.8 121.3 58.6 215.1 75.8 8.8 37.9 24.1 113.7 11.9 216.9-7.2 61.5-24.3 114.8-50.6 158.5-38.8 64.3-98.1 108.5-176.4 131.4"></path><path fill="#09377f" d="M400 598.9c-65.3 0-122.6-33.8-155.5-84.9C273.4 569.2 321 620.8 400 648.3c79-27.5 126.6-79 155.5-134.3-32.9 51.1-90.2 84.9-155.5 84.9"></path><path fill="#e70012" d="M400 229.2c102.1 0 184.9 82.8 184.9 184.9 0 11.8-1.1 23.2-3.2 34.4 15.9-54.2 18.4-104.2 19.8-130.7 3.3-64.1-3.3-130-13-176.3C495 122 400 65.6 400 65.6s-95 56.4-188.5 75.8c-9.7 46.3-16.3 112.1-13 176.3 1.4 26.5 3.9 76.6 19.8 130.7-2.1-11.1-3.2-22.6-3.2-34.4 0-102.1 82.8-184.8 184.9-184.8"></path><circle cx="400" cy="414" r="184.9" fill="#fff"></circle></g><path fill="#09377f" d="M124.037 96.308c0 13.23-5.636 25.162-14.632 33.523-.106.026-.185.08-.29.106 6.058-10.266 4.894-20.056 4.656-22.516s-1.508-13.864-9.102-18.997c3.969.82 11.483 4.127 15.849 23.204 0 0-2.17-32.888-21.564-32.015 0 0 17.833-6.244 24.262 14.976-.052-.45-2.01-14.976-15.504-26.697 0 0 1.402 2.46 1.746 5.477 0 0-5.556-13.679-25.797-14.71 0 0 3.757 3.518 4.101 8.916 0 0-17.86-13.23-39.767-5.53a46.3 46.3 0 0 1 13.838-8.44c4.921.079 10.266 1.428 14.579 4.18-1.297-2.275-5.953-5.345-7.62-6.033-.08-.026-.133-.105-.106-.185a46.13 46.13 0 0 1 22.78.926c3.308 1.747 6.827 4.26 10.372 7.832-.37-1.217-2.381-4.022-4.683-5.689 15.849 7.197 26.882 23.178 26.882 41.672"></path><g fill="#cb9920"><path d="M106.045 116.046s1.482 6.8 2.672 14.42a46 46 0 0 1-14.499 8.758c2.99-11.245 6.165-30.163-6.112-40.217 3.916 5.186 12.224 17.833 1.297 41.725a45.6 45.6 0 0 1-11.14 1.376c-1.428 0-2.83-.053-4.233-.186 2.831-1.217 5.557-3.095 9.34-7.381-3.942 2.936-8.943 6.27-18.6 5.556-8.758-2.699-16.404-7.99-22.04-14.923 2.355 1.403 5.98 2.7 11.35 2.726 1.324 3.148 5.345 7.17 10.055 7.514-2.62-1.323-5.239-2.964-7.09-7.514 3.068.079 8.228-.08 12.514-1.218 2.09 1.588 9.102 5.16 19.58 1.138-2.7.53-9.526 2.196-16.432-2.01 3.228-.794 4.816-1.826 7.356-4.71 2.09.08 7.514.344 11.377-4.366-1.746 1.138-4.71 2.884-10.504 2.54 1.482-1.746 1.826-3.492 1.931-5.239 2.197-.423 6.562-3.069 5.08-9.869-.264 2.62-.687 7.091-5.423 7.78-1.323-2.356-3.228-3.758-4.975-4.472 1.323-2.699 2.7-5.689 1.059-12.33 0 0 .344 3.413-1.138 5.424s-4.101 3.334-6.906 4.974c-2.804 1.667-6.985 6.033-7.355 7.62-.344 1.561.423 2.805 2.01 3.493 0 0-.872.608-2.883-.265 0 0-.688 2.54 3.413 3.493 0 0-3.678 1.137-6.297-2.46 0 0-3.678.264-3.942-3.229 0 0 .793.423 1.825.53 0 0-.185-.794.53-1.932.687-1.138 3.492-3.334 5.688-5.08s2.355-6.985 2.355-6.985 2.275-1.058 3.228-2.963c-.133.079-4.657 2.275-6.827 2.804-2.196.53-5.159.344-6.217.688s-1.667 1.323-1.588 2.09c0 0-.952-.476-1.058-1.56 0 0-1.932.952-1.985 2.063 0 0-1.27-.53-1.164-1.35 0 0-1.402 1.456.635 4.895 0 0-3.625-.582-4.656-3.545 0 0-.98 1.27-.635 2.805 0 0-2.064.079-3.546-2.038-.264-.397-.952-.132-.952-.132s-1.059-2.963.211-5.477c1.27-2.487 3.202-2.805 4.71-2.54.794-.926 1.535-2.064 3.28-1.746.265-.794.424-.873 1.06-1.27.608-.397 1.825-1.402 2.407-1.217.185-.556 1.931-3.281 2.328-3.625.132-1.005.926-2.54 1.826-3.545.926-1.006 3.148-2.964 4.63-4.102s5.503-4.233 6.43-9.445c0 0 1.005 3.069-.265 6.376 0 0 6.35-3.28 8.863-8.44 0 0 .265 8.917-14.393 13.52 0 0 25.585-2.698 29.686-14.42 0 0 1.217 6.033-5.424 8.044 0 0 7.594.952 15.558-10.927-.053.238-2.302 7.831-9.181 11.8-6.985 4.022-10.054 5.08-16.801 7.09 6.112.953 14.076 3.335 19.314 8.997-2.196-.953-5.503-.688-5.503-.688s8.572 4.55 17.304 15.478c0 0-2.699-1.482-4.63-1.932 0 0 4.974 5.583 7.62 13.547.079-.08-3.07-3.148-4.128-3.916M61.621 92.26c1.826-1.402.953-3.069.953-3.069l-5.16 4.55c.027 0 2.382-.079 4.207-1.48"></path><path d="M63.024 103.717c-9.393 1.56-5.874 13.573-17.304 11.8-2.963-.344-5.847-.608-6.641 2.62 0 0-1.932-4.895 3.228-6.377 0 0-.45-2.275.952-2.884 0 0 1.323 3.942 5.345 3.149 8.678-2.382 2.01-7.832 14.42-8.308"></path></g><path d="m42.307 72.39.08 4.392 4.47 1.402 2.435-4.021-2.884-3.863zm11.536 1.587 2.275 3.943 3.149-1.244v-4.365L55.933 70.3zm-4.895 7.964-1.746 2.54 3.492 1.482 3.863-1.667-.979-2.46zm-.529-14.869-1.826-1.746s4.022-1.138 7.25.264l-.45 1.482zM41.17 79.48l-1.668-1.56s1.323 3.757 3.334 5.688l.556-.317s-1.535-2.329-2.223-3.81m1.455-11.774-1.19 2.91-1.64 2.25-.53-.398a47 47 0 0 1 3.36-4.762"></path><path fill="#cb9920" d="m33.337 57.6 1.376.794c-.37.132-.582.238-.926.635l-.82 1.031 3.89 3.149c.555.45.846.556 1.164.635l-2.117 2.62c-.132-.292-.291-.556-.873-1.006l-3.89-3.149-.82 1.032c-.344.424-.397.662-.45 1.032l-1.058-1.164zm6.721-.741 1.35 1.455c.502.53.74.662 1.058.794l-2.461 2.275c-.106-.317-.212-.582-.714-1.11l-3.387-3.652c-.503-.53-.74-.662-1.111-.741l4.577-4.233c.979-.9 1.72-1.032 2.566-.106l.953 1.032c.767.82.397 1.217-.027 1.693l2.197.873c.502.185.873.397 1.243.423l-2.381 2.197-3.255-1.482zm-.847-.926 1.19-1.111c.265-.238.318-.37.054-.635l-.635-.688c-.238-.265-.37-.238-.635 0l-1.19 1.111zm12.436-5.451c.688-.423.688-.529.317-1.11l-2.275-3.546c-.45-.715-.582-.82-.98-.98l1.535-.978c-.026.423.027.582.503 1.296l2.09 3.255c.926 1.455.873 2.222-.502 3.122l-3.228 2.064c-1.244.793-2.17.502-3.017-.847l-2.116-3.307c-.397-.609-.635-.794-.9-.98l2.831-1.825c.053.318.106.609.503 1.217l2.328 3.625c.265.423.556.476.98.212zm8.81-3.995c.635-.238.9-.45 1.138-.661l.265 1.455-6.245 2.381c.027-.317.027-.635-.238-1.296l-1.772-4.63c-.265-.662-.45-.9-.688-1.138l6.112-2.355.74 1.27c-.317.027-.661.053-1.296.291l-2.196.847.635 1.667 1.931-.741c.609-.238.9-.45 1.138-.662l.582 1.535c-.317.026-.661.053-1.296.265l-1.932.74.715 1.905zm10.319-6.217-.661 5.132-2.805.318-2.514-6.35a2.4 2.4 0 0 0-.608-.926l3.492-.397c-.053.159-.079.238-.026.503.026.238.08.423.185.74l1.323 3.52h.027l.635-5.001 2.936-.344 1.852 4.71h.027l.45-3.731c.053-.291.026-.556 0-.74s-.08-.371-.159-.477l1.879-.212c-.106.159-.318.424-.424 1.19l-.82 6.562-2.831.318zm9.26 2.434-.582 1.005a.9.9 0 0 0-.132.45c-.026.265 0 .291.132.556l-2.143-.133c.476-.555.635-.74.953-1.323l3.122-5.582-.291-.45 3.413.212 2.275 6.693c.133.397.344.794.582 1.085l-3.783-.238c.159-.264.185-.317.185-.476 0-.185 0-.397-.08-.582l-.343-1.006zm2.884-1.059-.9-2.619-1.322 2.487zm9.314 1.561-.53 1.905c-.185.688-.185 1.006-.105 1.323l-3.228-.9c.211-.237.37-.502.582-1.19l1.323-4.789c.185-.688.185-1.005.053-1.35l6.006 1.641c1.27.344 1.799.9 1.455 2.117l-.37 1.35c-.291 1.084-.847.978-1.43.872l.424 2.329c.106.529.132.952.291 1.296l-3.122-.846-.45-3.546zm.344-1.217 1.587.424c.344.106.476.08.582-.291l.238-.9c.106-.344 0-.45-.344-.53l-1.587-.422zm9.525 4.736-.873 1.773c-.318.635-.37.953-.37 1.27l-3.017-1.482c.264-.211.476-.423.794-1.058l2.222-4.445c.318-.635.37-.952.291-1.296l5.583 2.778c1.19.582 1.587 1.243 1.005 2.355l-.608 1.243c-.503 1.006-1.006.82-1.588.582l-.026 2.355c0 .53-.053.952.053 1.323l-2.884-1.429.238-3.545zm.555-1.11 1.456.714c.317.158.45.158.608-.16l.423-.82c.16-.317.106-.423-.238-.582l-1.455-.714zm3.837 7.381c.29-.159.529-.344.926-.952l2.804-4.102c.397-.608.503-.873.53-1.217l2.778 1.905c-.291.16-.53.344-.926.953l-2.805 4.101c-.397.608-.503.873-.53 1.217zm7.752-1.138c1.138-1.164 2.037-1.11 2.937-.264l3.096 3.016c.873.847.952 1.773-.186 2.937l-2.17 2.249c-1.137 1.164-2.037 1.111-2.936.264l-3.096-3.042c-.873-.847-.952-1.773.185-2.937zm-.45 4.604c-.264.265-.211.476.08.74l.9.874c.264.265.502.318.74.053l2.858-2.937c.264-.265.211-.476-.08-.74l-.9-.874c-.264-.264-.502-.317-.74-.053zm8.414 6.8-1.614 1.19c-.582.424-.767.662-.9.953l-1.984-2.699c.318-.053.609-.159 1.19-.582l3.996-2.937c.582-.423.74-.661.873-1.032l3.678 5.001c.794 1.058.846 1.826-.185 2.566l-1.138.82c-.9.662-1.27.265-1.667-.211l-1.111 2.09c-.238.476-.477.82-.556 1.19l-1.905-2.592 1.826-3.043zm1.032-.741.979 1.323c.212.291.317.344.635.132l.74-.555c.292-.212.292-.344.054-.635l-.98-1.323zM28.231 175.604c-.661-.423-16.563-10.53-26.114-23.998L0 148.616l15.531-1.402c.291-3.519.953-11.456 1.614-16.192l.767-5.45 3.043 4.577c.185.264.37.555.582.873 2.725 4.154 8.387 12.832 21.167 20.717l1.772 1.084-14.42 23.919z"></path><path fill="#e70012" d="M17.462 149.172s.874-11.721 1.747-17.833c2.46 3.678 8.228 13.467 22.383 22.199L29.37 173.83s-16.088-10.132-25.534-23.44z" data-source="https://football-logos.cc"></path><path fill="#cb9920" d="M128.35 175.604c.66-.423 16.562-10.53 26.114-23.998l2.116-2.99-15.53-1.402c-.292-3.519-.953-11.456-1.615-16.192l-.767-5.45-3.069 4.603c-.185.265-.37.556-.582.873-2.725 4.154-8.387 12.832-21.167 20.717l-1.773 1.085 14.42 23.918z"></path><path fill="#e70012" d="M139.118 149.172s-.873-11.721-1.746-17.833c-2.461 3.678-8.229 13.467-22.384 22.199l12.25 20.293s16.087-10.133 25.532-23.442z"></path><path fill="#cb9920" d="M78.29 185.208c-18.785 0-36.01-5.291-51.17-15.769l-1.746-1.217L40.825 146.5l1.746 1.376c.133.105 14.182 10.927 35.746 10.927s35.586-10.822 35.745-10.927l1.746-1.35 1.27 1.8 14.182 19.923-1.746 1.217c-15.214 10.45-32.438 15.742-51.224 15.742"></path><path fill="#e70012" d="M115.332 149.516s-14.446 11.377-37.042 11.377-37.041-11.377-37.041-11.377L28.31 167.693c15.214 10.504 32.359 15.399 49.98 15.399s34.766-4.895 49.98-15.4z"></path><path fill="#fff" d="M46.858 161.766c-.212-.317-.37-.555-.82-.767l-2.223-1.032c-.37-.159-.503-.132-.661.212l-.239.529c-.158.344-.105.45.265.635l1.693.767c1.006.476 1.323 1.244.688 2.62l-1.058 2.301c-.688 1.509-1.429 2.17-2.567 1.64l-4.312-1.984.688-2.01c.158.29.317.582.767.793l2.302 1.059c.37.158.476.158.635-.212l.29-.661c.16-.344.107-.45-.264-.609l-1.958-.9c-.952-.423-1.11-1.084-.37-2.672l.979-2.116c.688-1.482 1.508-2.038 2.355-1.64l4.418 2.036zm-1.191 8.546c.265-.317.503-.661.873-1.587l2.62-6.324c.37-.926.45-1.323.476-1.746l2.83 1.164c-.264.318-.502.662-.872 1.588l-2.62 6.323c-.37.926-.45 1.323-.476 1.746zm8.943-5.556-1.693 6.562c-.291 1.137-.318 1.35-.212 1.878l-1.614-.397c.344-.423.423-.608.714-1.746l1.64-6.482c.292-1.138.318-1.35.212-1.879l3.572.9.609 8.943h.026l1.64-6.43c.292-1.137.318-1.349.212-1.878l1.614.397c-.344.423-.423.608-.714 1.746l-2.117 8.281-3.307-.846zm13.652 3.281a1.87 1.87 0 0 0-1.005-.45l-1.852-.291c-.344-.053-.53.08-.609.582l-.873 5.583c-.079.503.08.688.397.74l1.455.239c1.032.159 1.217.08 1.614-.133l-.555 2.064-4.154-.688c-1.111-.185-1.588-1.084-1.244-3.307l.662-4.26c.344-2.222 1.084-2.937 2.196-2.751l4.074.635zm6.588 7.303c.61.026.927-.106 1.191-.239l-.317 1.985-6.06-.239c.133-.396.239-.793.292-1.772l.264-6.853c.027-1.005-.026-1.376-.132-1.8l5.953.239.133 2.01c-.265-.131-.583-.29-1.191-.317l-2.143-.079-.106 2.434 1.878.08c.609.026.9-.106 1.191-.239l-.08 2.276a2.6 2.6 0 0 0-1.163-.318l-1.879-.079-.106 2.805zm13.865-.424c.688-.053.846-.185 1.402-.556l-.08 2.196-6.905.556-.37-4.63c-.133-1.773.238-2.143 1.164-2.302l2.778-.45c.344-.053.397-.185.37-.608l-.053-.582c-.026-.291-.158-.477-.555-.45l-3.016.238a1.67 1.67 0 0 0-1.032.45l.053-2.117 5.053-.397c1.535-.132 1.905.767 2.011 2.223l.159 2.09c.132 1.56-.238 2.01-1.376 2.196l-2.593.397c-.265.026-.291.37-.265.714l.106 1.297zm7.62-10.556c1.085-.239 1.878.449 2.328 2.645l.873 4.207c.45 2.196 0 3.122-1.085 3.36l-3.862.794c-1.085.238-1.879-.45-2.329-2.646l-.873-4.207c-.45-2.196 0-3.122 1.085-3.36zm-2.117 2.195c-.344.08-.476.265-.37.767l1.137 5.53c.106.503.291.609.635.556l1.112-.238c.344-.08.476-.265.37-.768l-1.138-5.53c-.105-.502-.29-.608-.635-.555zm10.557-5c1.058-.37 1.905.185 2.672 2.301l1.455 4.049c.768 2.116.45 3.095-.608 3.466l-3.704 1.323c-1.059.37-1.905-.186-2.673-2.302l-1.455-4.048c-.767-2.117-.45-3.096.609-3.467zm-1.8 2.487c-.317.105-.423.317-.264.793l1.905 5.319c.159.476.397.582.715.45l1.084-.398c.318-.105.424-.317.265-.793l-1.905-5.318c-.159-.477-.397-.583-.714-.45zm6.721-2.858c-.529.238-.608.37-.873.794l-.714-2.037 6.112-2.858.793 1.561c-.344 2.99-.185 6.35.741 9.234l-2.699 1.244c-.9-3.281-.582-8.388-.476-9.34zM39.9 43.55l-7.277-6.667 2.328-1.429 4.287 4.525-2.143-5.954L39 32.808l4.286 4.26-2.117-5.662 2.143-1.376 3.175 9.287-2.143 1.376-4.418-4.286 2.063 5.82zm9.365-5.715-3.704-8.81 6.35-2.673.847 1.985-3.995 1.693.582 1.376 3.783-1.587.794 1.878-3.783 1.588.687 1.614 4.234-1.773.82 1.958zm14.552-12.647-.343-2.17 8.016-1.19.318 2.196-2.699.397 1.085 7.25-2.593.396-1.085-7.25zm21.458-.132-2.487.106c-.026-.291-.185-.662-.423-.953s-.582-.529-.98-.582c-.528-.053-1.084.133-1.428.582s-.503 1.191-.582 2.038c-.08.873.08 1.587.317 2.116s.662.847 1.191.9c.423.026.953 0 1.244-.291s.476-.741.555-1.244l2.673.212c-.16 1.217-.715 2.17-1.509 2.831-.82.635-1.931.82-3.175.714-1.428-.132-2.513-.661-3.227-1.64s-1.006-2.249-.874-3.863c.133-1.508.635-2.646 1.535-3.44.873-.793 2.037-1.137 3.413-1.005 1.217.106 2.17.503 2.831 1.217.688.635.953 1.535.926 2.302m1.588 1.667c.158-.714.45-1.402.793-1.932s.635-1.031 1.165-1.428c.502-.344 1.11-.556 1.72-.662s1.243-.106 1.93.053c.662.159 1.324.37 1.826.715s.98.82 1.297 1.349c.37.556.53 1.164.556 1.878.026.662.079 1.35-.106 2.09-.159.715-.397 1.324-.741 1.853s-.794.979-1.323 1.35c-.503.343-1.058.581-1.667.687s-1.243.08-1.905-.08c-.661-.132-1.217-.396-1.72-.714a4.2 4.2 0 0 1-1.243-1.296c-.37-.582-.53-1.164-.635-1.826-.133-.608-.106-1.296.053-2.037m2.593.45q-.28 1.31.079 2.143c.265.555.714.9 1.376 1.058.582.132 1.111-.026 1.587-.45s.794-1.058.98-1.905c.184-.873.158-1.587-.107-2.143s-.714-.9-1.375-1.058c-.582-.132-1.112.026-1.588.45-.423.423-.767 1.058-.952 1.905m5.794 6.059 6.165-7.911 2.884.926V36.38l-2.567-.846v-1.958l-2.91-1.059-1.217 1.588zm4.815-2.461 1.879.714v-3.201zm5.795 2.884 2.275 1.111-.08.133c-.21.396-.131.9.107 1.19.185.238.476.503.873.715.37.185.688.317.952.29s.582-.211.662-.45c.211-.528-.053-.925-1.032-1.745a14 14 0 0 0-.556-.45c-.846-.741-1.323-1.217-1.56-1.879s-.212-1.376.105-2.037c.423-.82 1.058-1.297 1.931-1.455s1.747 0 2.858.555 1.852 1.191 2.196 1.985c.291.635.265 1.746-.026 2.434l-2.329-.926c.159-.344.08-.873-.026-1.085-.106-.238-.424-.53-.794-.714-.317-.16-.609-.238-.847-.212s-.529.238-.635.45c-.29.582.397.952 1.456 1.852l.105.08c.503.449.82.793 1.032 1.031.212.212.291.37.397.53.291.476.344.846.37 1.243s-.026.82-.238 1.27c-.344.74-1.243 1.455-1.905 1.587-.9.212-1.878.08-3.016-.476-1.243-.608-2.064-1.35-2.434-2.17-.397-.82-.317-1.772.159-2.857m-50.271-1.879 2.408-.767.026.159c.132.423.53.74.9.794.317.053.688.053 1.111-.08.397-.132.714-.264.9-.45.185-.211.264-.555.158-.793-.211-.53-.688-.635-1.958-.556-.211 0-.608.053-.74.053-1.112.053-1.8.026-2.408-.265-.609-.317-1.111-.846-1.323-1.534-.291-.873-.132-1.667.397-2.381.502-.715 1.27-1.191 2.46-1.588 1.165-.37 2.17-.423 2.964-.08.635.265 1.402 1.086 1.667 1.773l-2.302.953c-.106-.344-.53-.662-.768-.767s-.661-.08-1.058.053c-.344.105-.608.264-.767.45s-.212.555-.159.767c.185.635.953.397 2.328.344l.133-.027c.661-.026 1.137.027 1.455.027s.476.053.661.105c.53.133.847.37 1.138.635s.556.609.714 1.085c.265.794.106 1.905-.264 2.46-.503.768-1.297 1.35-2.514 1.747-1.323.423-2.434.45-3.28.132-.847-.396-1.482-1.11-1.879-2.249m60.695 2.726 1.244-1.852 6.667 4.603-1.243 1.852-2.25-1.56-4.18 6.005-2.17-1.481 4.181-6.006z" data-source="https://football-logos.cc"></path><!-- source: https://football-logos.cc --></svg>