<svg xmlns="http://www.w3.org/2000/svg" viewBox="0 0 162.06 185.21"><!-- Source: https://football-logos.cc --><g transform="translate(-24.803 -13.23)scale(.26458)" data-source="https://football-logos.cc"><path fill="#175a2d" d="M689.1 556.4c-22.9 51.2-42.6 77.6-42.6 77.6-31.2-7.7-61.9-13.5-91.3-17.7 21.8-25.2 41.1-52.7 58.1-82.6 46.9 11.7 75.8 22.7 75.8 22.7"></path><path fill="#175a2d" d="M705.5 158.5 400 50 94.5 158.5s-10.6 170.8 47.6 309.6C210 630 330.5 716.9 400 750c69.5-33.1 190-120 257.9-281.9 58.3-138.8 47.6-309.6 47.6-309.6"></path><path fill="#fdce1d" d="m400 62.7 292 104.6c1.2 32.3 5.3 175.1-44.3 295.6-30.3 73.7-71.3 136.7-125 187.4-50.9 48-96.8 76-122.6 88.7-25.8-12.7-71.7-40.7-122.6-88.7-53.7-50.7-94.7-113.7-125-187.4-49.6-120.5-45.5-263.2-44.3-295.6z"></path><path fill="#0f7d40" d="M400 730c-19.9-10.2-64.8-36.2-117.1-85.6-51.1-48.2-92.6-110.4-123.1-184.6-42.2-102.5-45.8-221.6-43.9-286.9L400 71.2 684.2 173c1.9 65.3-1.7 184.4-43.9 286.9-30.6 74.3-72 136.4-123.1 184.6-52.4 49.4-97.3 75.3-117.2 85.5"></path><circle cx="400" cy="351.6" r="235.8" fill="#fdce1d"></circle><circle cx="400" cy="351.6" r="227.3" fill="#107d3e"></circle><path fill="#fdce1d" d="M283.7 358.6v87.7c0 3.1-4 4.6-5.9 2.1-21.1-26.6-33.7-60.2-33.7-96.8 0-8.9.7-17.6 2.2-26.1.6-3.4 4.6-5 7.4-2.8l20.7 16.5c5.9 4.7 9.3 11.8 9.3 19.4"></path><path fill="#fdce1d" d="M388.9 398.8v12.8c0 2.4-1.1 4.7-2.9 6.2l-19.5 16.1-7 5.8c-8.6 7.1-13.5 17.6-13.5 28.6v22c0 3.6-3.7 6-7 4.6-10.3-4.4-20-9.9-29-16.3-3.1-2.2-4.9-5.8-4.9-9.7V341.1c0-10.2-4.7-19.9-12.7-26.3l-8.5-6.8-22.8-18.2c-1.8-1.5-2.4-4-1.4-6.1 7.7-16 18.1-30.4 30.5-42.7 2.4-2.4 6.3-2.6 8.9-.5l36.4 28.9c6.6 5.3 10.5 13.3 10.5 21.8v47.4c0 13.8 6.3 26.9 17.1 35.6l3 2.4 20 16c1.7 1.5 2.8 3.8 2.8 6.2m44.7 83.3v17.5c0 2.5-1.8 4.6-4.2 5.1-9.5 1.8-19.3 2.8-29.4 2.8s-19.8-.9-29.4-2.8c-2.4-.5-4.2-2.6-4.2-5.1v-17.5c0-7.4 3.3-14.5 9.1-19.2l13.4-11 11.1-9.1 11.1 9.1 13.4 11c5.7 4.7 9.1 11.7 9.1 19.2m-87.7-242.7L324.8 222c-2.4-2-2.1-5.9.7-7.4 22.1-12.1 47.5-18.9 74.5-18.9s52.4 6.9 74.5 18.9c2.8 1.5 3.2 5.4.7 7.4l-21.1 17.4-5.7 4.7c-9.1 7.5-14.4 18.7-14.4 30.6v44.8c0 12.3-5.6 24-15.2 31.7l-7.8 6.2-7.5 6c-2.1 1.7-5.2 1.7-7.3 0l-7.5-6-7.8-6.2c-9.6-7.7-15.2-19.3-15.2-31.7v-44.8c0-11.8-5.3-23-14.4-30.6zM516.3 308l-8.5 6.8c-8 6.4-12.7 16.1-12.7 26.3V469c0 3.8-1.8 7.5-4.9 9.7-9 6.4-18.7 11.9-29.1 16.3-3.3 1.4-7-1-7-4.6v-22c0-11.1-5-21.6-13.5-28.6l-7-5.8-19.6-16.1c-1.9-1.5-2.9-3.8-2.9-6.2v-12.8c0-2.4 1.1-4.7 3-6.2l20-16 3-2.4c10.8-8.7 17.1-21.8 17.1-35.6v-47.4c0-8.5 3.9-16.5 10.5-21.8l36.4-28.9c2.7-2.1 6.5-1.9 8.9.5 12.4 12.4 22.8 26.8 30.5 42.7 1 2.1.5 4.6-1.4 6.1z"></path><path fill="#fdce1d" d="M555.9 351.6c0 36.6-12.6 70.2-33.7 96.8-2 2.5-5.9 1-5.9-2.1v-87.7c0-7.5 3.4-14.7 9.3-19.4l20.7-16.5c2.7-2.2 6.8-.6 7.4 2.8 1.5 8.5 2.2 17.2 2.2 26.1"></path><path fill="#175a2d" d="M244.9 616.3c-29.4 4.2-60.1 10-91.4 17.7 0 0-19.6-26.5-42.6-77.6 0 0 29-11 75.8-22.7 17.1 29.8 36.4 57.4 58.2 82.6"></path><path fill="#175a2d" d="M400 512.1c-74.8 0-187.4 24.1-244 55.8l49.7 86.1c3.9 6.7 12.1 9.5 19.3 6.5 26.2-10.9 91.9-34.1 175-34.1s148.8 23.2 175 34.1c7.2 3 15.4.2 19.3-6.5l49.7-86.1c-56.6-31.7-169.2-55.8-244-55.8"></path><path fill="#107d3e" d="M228.9 612.2c-24.7 3.9-48.9 8.8-72.6 14.5-5.6-8.2-20-30.8-36.5-66.6 10-3.5 31-10.3 59.8-17.8 15.4 25.7 32 49 49.3 69.9m451.4-52.1c-16.5 35.8-31 58.4-36.5 66.6-23.6-5.7-47.8-10.6-72.6-14.5 17.2-20.9 33.9-44.1 49.3-69.9 28.8 7.5 49.8 14.3 59.8 17.8"></path><path fill="#107d3e" d="M580.9 655.3c-1.2 0-2.3-.2-3.4-.7C552.5 644.2 485 620 400 620s-152.5 24.2-177.5 34.5c-1.1.5-2.3.7-3.4.7-3.2 0-6.2-1.7-7.8-4.5l-46.4-80.3C220 542 325.4 518.6 400 518.6s180 23.4 235.1 51.8l-46.4 80.3c-1.6 2.8-4.6 4.6-7.8 4.6"></path><g fill="#fdce1d"><path d="M620.1 542.7c-.1.2-.2.3-.3.5-1.5 2.5-3.1 5-4.6 7.5-.5.9-1.1 1.8-1.5 2.6 2.4 2.8 6.6 5.9 10.5 6.9-26.2-6.6-49.8-14.7-73.1-20.8-47.9-12.5-93.9-20.9-151-20.7-57.1-.1-103.1 8.2-151 20.7-23.3 6.1-47 14.2-73.1 20.8 4-1 8.1-4.1 10.5-6.9-.5-.8-1-1.7-1.6-2.6v-.1c-1.5-2.5-3.1-5-4.6-7.5-.1-.2-.2-.3-.3-.5-1.6.1-3.5.4-5.5.9-18.1 4.7-46.5 13.5-54.6 16.5 16.5 35.8 31 58.4 36.5 66.6 12-2.9 24.2-5.6 36.5-8l18.6 32.1c1.6 2.8 4.6 4.5 7.8 4.5 29.6-10.1 92.4-35.3 180.9-35.2 88.6-.1 151.3 25.1 180.9 35.2 3.2 0 6.2-1.7 7.8-4.5l18.6-32.1c12.3 2.5 24.5 5.1 36.5 8 5.6-8.2 20-30.8 36.5-66.6-8.1-3-36.6-11.8-54.6-16.5-2.3-.3-4.1-.6-5.8-.8m21.2 77.8c-10.3-2.4-20.7-4.7-31.1-6.8 0 0 9.1-15.7 12.8-33.1-10.5 18.1-28.5 49.5-39 67.5-30-3.3-93.5-35.8-184-33.5-90.5-2.3-153.9 30.2-184 33.5-10.5-18-28.5-49.5-39-67.5 3.7 17.4 12.8 33.1 12.8 33.1-10.5 2.1-20.9 4.4-31.1 6.8-6.1-9.3-17.9-28.6-31.4-57.1 1.3-.2 78.5-26.7 49.1-8.7-10 5.1-14.4 9.9-6.1 11.7 2.7.3 21.7-4.2 27.3-5.9 78-22.1 124.3-36.4 202.4-36.2 78.1-.2 124.4 14.1 202.4 36.2 5.6 1.7 24.6 6.2 27.3 5.9 8.3-1.8 3.9-6.6-6.1-11.7-29.4-18 47.8 8.5 49.1 8.7-13.5 28.5-25.3 47.8-31.4 57.1"></path><path d="M352.2 647.8v27.5h5.5v-35.1h-5.5v.1l-.1-.1-7.5 5.9v7zm42 3.1c0-6.2-5-11.2-11.2-11.2s-11.2 5-11.2 11.2c0 6.1 4.9 11.1 11 11.2l-7.3 13.3h7.4l9.6-18.7c1.1-1.8 1.7-3.7 1.7-5.8m-16.5 0c0-2.9 2.4-5.3 5.3-5.3s5.3 2.4 5.3 5.3-2.4 5.3-5.3 5.3-5.3-2.4-5.3-5.3m48.3 0c0-6.2-5-11.2-11.2-11.2s-11.2 5-11.2 11.2c0 6.1 4.9 11.1 11 11.2l-7.3 13.3h7.4l9.6-18.7c1.1-1.8 1.7-3.7 1.7-5.8m-16.5 0c0-2.9 2.4-5.3 5.3-5.3s5.3 2.4 5.3 5.3-2.4 5.3-5.3 5.3-5.3-2.4-5.3-5.3m40.2 10 3.3-4.3c.7-.9 4.3-5.6 1.8-10.6-2.5-5.1-8.7-8-15.1-5.2-4 1.8-5.7 5.9-5.5 10.3v.2h5.9c-.3-1.8 0-4.2 1.5-5.1 5.3-3.1 9.8 2.4 7.6 5.8-.9 1.4-3 4-3 4l-4.8 5.6-7.5 8.6v5.2h21.8v-5.2H442zm-172.4-93.1s-.8-4.9-2.2-11.7c-13.2 0-43.2 1.5-45.2 31.5s33.7 39.9 58.7 19l-6.4-27.6s-15.1 2.4-23 4.1l2.2 10.5 10.3-2.1 2.3 11.4s-25.5 11.1-29.8-13c-3.1-24.1 27.8-22.9 33.1-22.1m17.4-17.4 13.9-2.2s2.9 17.2 5.1 30.9 10.1 13.7 13.2 13.5 11.9-1.3 9.7-17.6-4.4-30.2-4.4-30.2l15.2-1.5s1.8 12.4 3.3 28.2.7 29.6-20.1 33c-20.3 3.4-26.9-5-30.9-24.8-3.9-20-5-29.3-5-29.3m100.8-12.5c-17.1 0-31 13.9-31 31s13.9 31 31 31 31-13.9 31-31-13.9-31-31-31m0 48.6c-9.7 0-17.6-7.9-17.6-17.6s7.9-17.6 17.6-17.6 17.6 7.9 17.6 17.6-7.9 17.6-17.6 17.6m80.7 17.3 15.2.3-12.9-58.9-17.5-1.7-27.1 54.9 14.9 1.7 5.6-12.8 19.6 2.2zm-17.9-25.4 10.3-23.6 3.9 25.1zm96 42.6 16.9-54.9-13.6-4-10.6 36.1-16.2-42.7-16.5-3.3-11.6 54.9 13.6 3.3 7.9-39 17.5 45.9zm-338-169.1c-2.7-5-2.8-10.4 1.4-12.7 4.7-2.6 9.2 1.2 9.2 1.2-1-2.9.6-7.4 4.7-8.9 4.5-1.7 9.8.8 12.6 5.8 2.9 5.1 5.5 10.4 5.5 10.4l-27.1 15.2s-3.6-5.9-6.3-11m11.4-5.9c-1.2-1.5-4-1.7-4.9-1.1s-2.3 2.8-1.1 5c1.4 2.4 2.2 4 2.2 4l6.7-3.7c0-.2-1.7-2.7-2.9-4.2m11.1-6.5c-1.4-2-3.3-3-5.5-1.8-1.8 1-1.9 4.7-.5 7.1 1.2 2.1 1.6 3.1 1.6 3.1l7.3-4.1s-1.4-2.3-2.9-4.3m318.6-225.4c3.8 4.3 5 9.5 1.4 12.7-4 3.6-9.2.8-9.2.8 1.6 2.6 1 7.4-2.7 9.7-4 2.6-9.7 1.3-13.6-3s-7.6-8.9-7.6-8.9l23.2-20.7c0 .1 4.7 5.1 8.5 9.4m-9.8 8.3c1.5 1.2 4.2.8 5 0s1.7-3.3 0-5.1c-1.9-2.1-3-3.4-3-3.4l-5.7 5.1c-.1 0 2.1 2.1 3.7 3.4m-9.5 8.7c1.8 1.6 3.9 2.2 5.8.5 1.5-1.4.8-5-1.1-7-1.7-1.8-2.3-2.6-2.3-2.6l-6.2 5.5s1.9 2 3.8 3.6m43.5 226.1c-2.8 5-7.3 7.9-11.5 5.6-4.7-2.6-3.9-8.4-3.9-8.4-1.9 2.4-6.6 3.4-10.1.8-3.8-2.9-4.5-8.7-1.8-13.8s5.8-10.2 5.8-10.2l27.3 14.9c.1-.1-3 6.1-5.8 11.1m-11.1-6.5c-.7 1.8.7 4.2 1.6 4.7s3.6.5 4.8-1.7c1.3-2.5 2.2-4 2.2-4l-6.7-3.7c0 .1-1.3 2.9-1.9 4.7m-11.4-5.9c-.9 2.3-.8 4.4 1.4 5.6 1.8 1 5-.9 6.3-3.4 1.1-2.2 1.7-3 1.7-3l-7.3-4s-1.2 2.5-2.1 4.8m-352.2-14.7-2.8-7.1-4-10.7 6-1.3 3.8 9.9 5.7-2-4.2-10.1 5.6-2 4.3 10 6.4-2.3-3.7-10.7 5.7-1.7 5.5 17.6-4.7 1.7-6.3 2.3-5.7 2.1-5.8 2.2zm-10-29.3 31-6.8-1.5-7-30.9 6.3zm-6.2-47.3 31.7.2v-7.3l-31.5-.5zm27.1 26.8c.9-2.3.9-4.5-.1-6-1.1-1.6-3.1-2.5-6.2-2.5-.5 0-1 0-1.5.1-7.5.6-16 1.6-17.7 1.8l-.2-7c2.3-.2 17.7-1.6 21.5-1.8h.4c4 0 10.3 2.5 10.3 9.3v5.8zm9.3-70.9-.3 6.3-24.6 11.1 21.5 3.4-1 7-31.1-5.3 1-7.4 22.1-10.3-19.7-2.6 1.1-7zm-17.9-41.5 6.7.6s-6.8 7.6-5.5 13.1 5.5 9.3 10.9 9.3c5.5 0 9.4-5.5 9.2-9.9l-5.3-2.2-1.5 4.9-5.7-2.4 4.2-11.2 14.3 5.3s2.4 22.1-15 22.7c-17.9-.9-22-19-12.3-30.2m31.2-49.9 6.2 2.7s-8.8 5.1-9.3 10.7c-.4 5.6 2.3 10.5 7.5 12.2s10.7-2.3 11.8-6.6l-4.3-3.7-3 4.1-4.7-4.1 7.5-9.4 12 9.5s-4.6 21.7-21.3 16.9c-16.8-6.2-15.1-24.7-2.4-32.3m107.3-36 7.1-2.6-21.2-25.6-7.3 2.8v33.1l6.3-2.5-.1-7.5 10.7-3.5zm-15.3-7.9-.2-12.3L340 172zM556 265.7l3.9 6.5 21.5-25.4-4.1-6.7-32.6 5.9 3.6 5.7 7.3-1.5 5.4 9.9zm5-16.5 12-2.4-8.6 9.5zm-172.9-75.5-3.8-29.9-7 .4 2.4 20-14.7-17.6-8.6.7 4.1 30.2 7.2-.5-2.8-21.5 15 18.6zm-106.3 46.5-.7.6c-5.3 4.7-13.4 4.1-18-1.3l-12-14.1 4.9-4.6 13.5 14.7c2 2.2 5.4 2.4 7.7.5l.3-.3c2.4-2.1 2.6-5.7.4-8l-13.5-14.5 5.1-4.7 12.9 13.1c5.1 5.3 4.8 13.8-.6 18.6m285.9 190.1.3-.9c2.4-6.6 9.8-10 16.4-7.5l17.3 6.6-2.1 6.4-18.9-6.4c-2.8-1-5.9.5-7 3.3l-.1.4c-1.1 3 .5 6.2 3.5 7.2l18.8 6.1-2.2 6.6-17.6-5.3c-7.1-2.1-10.9-9.6-8.4-16.5m1.1-114.9-5.8-17.1 27.9-11.3 2.7 6.9-23 9.7 3.9 10.2zm6.5 24.9-3.8-18 30.1-6.8 1.6 7.3-24 5.3 2 11.1zm-1.2 72 2.7-18.1 30.4 4.9-.6 7.6-24.8-4.1-1.8 10zM313.9 176.7c-5.2-7.3-15.1-9.2-22-4.3s-8.2 14.9-3 22.2 15.1 9.2 22 4.3c6.9-5 8.2-14.9 3-22.2m-6.7 17c-3.6 2.6-9.1 1-12.3-3.5s-2.9-10.2.6-12.8c3.6-2.6 9.1-1 12.3 3.5 3.3 4.6 3 10.3-.6 12.8m164.5-22.2c2.9-8.5-1.3-17.6-9.3-20.4-8-2.7-16.9 1.9-19.8 10.4s1.3 17.6 9.3 20.4 16.9-1.9 19.8-10.4m-17.8 4.5c-4.1-1.4-6.1-6.8-4.3-12s6.6-8.3 10.7-6.9 6.1 6.8 4.3 12c-1.7 5.2-6.5 8.3-10.7 6.9m51.1 15.7c5.5-7.1 4.5-17.1-2.2-22.3s-16.6-3.7-22.1 3.5c-5.5 7.1-4.5 17.1 2.2 22.3 6.7 5.1 16.6 3.6 22.1-3.5m-18.2-1.5c-3.5-2.7-3.5-8.4-.1-12.8s8.9-5.7 12.4-3 3.5 8.4.1 12.8c-3.4 4.3-9 5.7-12.4 3M423 163.9l10.6.9.3-6.1-10.3-.8.6-7.2 11.7.4.2-5.5-18.2-1.2-3.1 29.5 7.2.3zm90.9 50.8 15.8-19.3 6.7 5.2 4-4.4-19.8-15.2-3.3 4.9 6.4 4.9-15 19.5zm87.3 150.9h7.3s2-2.1 1.5-8c-.4-6-4.4-16.2-16.6-16-12.4.2-16.1 9.2-16.2 14.7s2.1 9.3 2.1 9.3h7.4s-2.4-1.9-2.8-6.4c-.4-5.4 2.3-9.7 8.9-10.1 6.2-.4 10.9 4.5 10.6 8.9-.2 4.4-2.2 7.6-2.2 7.6"></path></g></g><!-- source: https://football-logos.cc --></svg>