<svg xmlns="http://www.w3.org/2000/svg" viewBox="0 0 185.39 185.21"><!-- Source: https://football-logos.cc --><g transform="translate(-13.14 -13.23)scale(.26458)" data-source="https://football-logos.cc"><ellipse cx="400" cy="400" fill="#002859" rx="350.34" ry="350"></ellipse><ellipse cx="400" cy="400" fill="#52ed85" rx="336.44" ry="336.11"></ellipse><ellipse cx="400.16" cy="400" fill="#002859" rx="328.66" ry="328.49"></ellipse><ellipse cx="400.36" cy="400.05" fill="#fff" rx="316.46" ry="316.45"></ellipse><ellipse cx="400.36" cy="400" fill="#002859" rx="235.25" ry="235.27"></ellipse><path fill="#9ed1ff" d="m529.98 417.31 52.22 90.27H218.69l52.13-90.31 38.88-.04-19.61-33.35 110.16-190.84L510.6 383.81l-19.34 33.54z"></path><path fill="#002859" d="M483.42 432.75h38.17l33.81 59.23-309.51-.12 33.81-59.51h37.99l-15 26.81 48.44.05-43.46-75.05 92.58-161 82.06 142.13h-38.54l-43.4-75.67-54.43 94.31 54.43 94.53 37.99-66.02-58.46-.06-15.92-28.07 129.4.1-43.62 74.99 48.69-.04z"></path><path fill="#002859" d="m400.25 320.44 24.99 43.43h-49.98z"></path><path fill="#152b52" d="M148.49 261.55c-1.51 1.51-2.36 2.73-2.98 4.03-.59 1.24-.83 2.33-.71 3.27.12.95.62 1.63 1.52 2.06 1.14.55 2.26.44 3.36-.31s2.49-2.06 4.18-3.92 3.19-3.34 4.51-4.43 2.86-1.83 4.64-2.2c1.77-.37 3.73-.05 5.86.97 2.07.99 3.6 2.38 4.59 4.16.99 1.79 1.42 3.8 1.3 6.04s-.75 4.55-1.89 6.93c-1.23 2.56-2.89 4.86-5 6.89s-4.84 3.61-7.31 4.65l-3.25-6.94c2.25-.89 4.13-1.71 5.28-2.62 1.96-1.57 3.25-3.34 4.07-5.06.71-1.48.98-2.76.82-3.86-.16-1.09-.76-1.89-1.82-2.4q-1.245-.6-2.46-.15c-1.215.45-1.59.8-2.34 1.49-.75.7-1.7 1.7-2.86 3-1.66 1.88-3.12 3.35-4.39 4.43s-2.78 1.81-4.52 2.2-3.66.08-5.77-.92c-1.95-.93-3.41-2.26-4.39-3.99s-1.42-3.7-1.33-5.91q.135-3.33 1.89-6.99c1.04-2.17 2.39-4.16 4.04-5.96 1.66-1.8 4.1-2.83 5.97-3.6l3.44 6.7c-.94.15-3.34 1.33-4.45 2.44m29.6-55.88 18.92-19.38 4.88 4.76-13.31 13.63 5.66 5.53 11.96-12.25 4.88 4.76-11.96 12.25 5.77 5.64 13.7-14.03 4.88 4.76-19.31 19.78zm46.63-42.36 6.01-4.73 22.46 28.59-5.77 4.54-28.03-7.7 14.44 18.38-6.05 4.76-22.46-28.59 5.77-4.54 28.14 7.75zm16.01-11.23 25.67-14.79 2.74 4.75-5.06 30.49 17.24-9.93 3.36 5.94-26.45 15.24-2.76-4.79 5.13-30.47-16.46 9.48zm36.14-20.11 7.38-2.89 5.32 13.61 13.7-5.36-5.32-13.61 7.46-2.91 13.32 34.06-7.46 2.91-5.41-13.83-13.7 5.36 5.41 13.83-7.38 2.89zm-124.8 108.7 4.57-6.48 11.94 8.43 8.48-12.01-11.94-8.43 4.62-6.54 29.87 21.09-4.62 6.54-12.13-8.57-8.48 12.01 12.13 8.57-4.57 6.48zm165.45-123.8 26.44-6.09 1.52 6.61-18.6 4.29 1.77 7.67 16.72-3.85 1.52 6.61-16.72 3.85 1.8 7.82 19.15-4.41 1.52 6.61-26.98 6.22zm62.24-10.73 7.52-.63 3.04 36.5-7.22.6-18.95-22.05 1.95 23.47-7.57.63-3.04-36.5 7.22-.6 19.01 22.15zm61.26 5.25c2.26 2.36 3.23 5.52 2.92 9.48-.33 4.17-1.81 7.3-4.44 9.41s-6.16 2.99-10.59 2.64l-6.95-.55-.81 10.24-7.9-.63 2.85-35.84 14.84 1.18c4.45.35 7.82 1.7 10.08 4.07m-6.74 13.58c1.27-.95 1.98-2.43 2.14-4.44.16-1.98-.32-3.52-1.42-4.62s-2.77-1.74-5-1.92l-6.55-.52-.96 12.14 6.55.52c2.23.17 3.97-.21 5.24-1.16m20.46-14.31 26.01 6.12-1.55 6.58-18.3-4.3-1.8 7.64 16.45 3.87-1.55 6.58-16.45-3.87-1.83 7.79 18.84 4.43-1.55 6.58-26.55-6.24zm60.25 18.05 7.08 2.72L509 165.42l-6.8-2.61-7.61-28-8.4 21.85-7.13-2.74 13.07-33.99 6.8 2.61 7.62 28.12zm25.76 30.5 13.51 8.28-7.96 13.88c-2.4.2-5.82.34-8.67-.37-2.86-.71-5.35-1.72-7.48-3.02-3.11-1.9-5.48-4.33-7.13-7.27q-2.475-4.425-2.4-9.42c.075-4.995 1-6.51 2.85-9.53 1.83-2.99 4.24-5.26 7.22-6.8s6.19-2.21 9.63-2.02 6.74 1.26 9.91 3.2c2.31 1.41 4.26 3.18 5.87 5.31a21.6 21.6 0 0 1 3.01 5.38l-6.97 2.65c-.46-1.28-1.08-2.47-1.85-3.57-1.04-1.49-2.31-2.7-3.82-3.62-1.8-1.11-3.72-1.68-5.75-1.72s-3.93.43-5.71 1.4c-1.77.97-3.22 2.38-4.35 4.21-1.13 1.84-1.72 3.79-1.78 5.85s.38 3.99 1.34 5.77c.96 1.79 2.34 3.24 4.14 4.34.92.56 2 1.01 3.26 1.35s2.55.55 3.88.63l2.82-4.6-7.17-4.39zm56.44 32.67c-.66-1.72-1.61-3.13-2.84-4.23-1.49-1.32-3.18-2.16-5.09-2.51-1.9-.35-3.78-.19-5.64.47s-3.48 1.78-4.89 3.36c-1.4 1.58-2.33 3.33-2.79 5.26s-.4 3.83.15 5.69c.56 1.86 1.58 3.45 3.07 4.78 1.18 1.05 2.65 1.83 4.39 2.34s3.53.7 5.36.57l.03 7.04c-2.75.24-5.46-.04-8.15-.86s-4.99-2.08-6.9-3.78c-2.6-2.31-4.41-5.02-5.44-8.13s-1.19-6.28-.49-9.5 2.22-6.15 4.56-8.79c2.32-2.61 5.04-4.43 8.16-5.45s6.3-1.18 9.54-.47q4.86 1.05 8.79 4.56 2.88 2.565 4.59 6.27c1.71 3.705 1.75 4.99 1.82 7.55l-7.38 1.28c.1-1.91-.19-3.73-.85-5.45m18.4 8 5.27 5.91-27.1 24.14-5.27-5.91zm11.31 12.57 17.98 24.04-5.7 4.26-6.62-8.85-23.09 17.27-4.74-6.34 23.09-17.27-6.62-8.85zm38.89 59.82-26.41-.85-11.93 6.76-3.87-6.88 12.42-6.82 12.42-23.36 4.73 8.54-9.1 14.51 17.67.82zM228.13 597.55l17 14.14-3.87 4.59-12.1-10.06-4.25 4.93 10.95 9.11-3.48 4.19-10.95-9.11-7.45 9.13-4.87-4.05zm39.4 29.56q2.22 3.435 2.4 7.5c.18 4.065-.5 5.32-1.84 7.85s-3.17 4.51-5.49 5.94c-2.31 1.43-4.84 2.18-7.58 2.25s-5.39-.58-7.96-1.94c-2.57-1.37-4.59-3.2-6.07-5.51s-2.27-4.81-2.39-7.52.5-5.34 1.86-7.89c1.34-2.53 3.17-4.5 5.47-5.92 2.31-1.42 4.82-2.16 7.54-2.23 2.72-.06 5.37.59 7.97 1.97 2.58 1.37 4.61 3.2 6.09 5.5m-13.31-1.27c-1.62.09-3.12.58-4.51 1.48s-2.49 2.11-3.3 3.64c-.82 1.55-1.21 3.16-1.17 4.82s.47 3.19 1.29 4.58c.81 1.39 1.93 2.47 3.35 3.22s2.92 1.08 4.5.97 3.06-.62 4.44-1.54 2.48-2.15 3.31-3.7c.81-1.53 1.21-3.11 1.19-4.76s-.43-3.15-1.22-4.52a8.2 8.2 0 0 0-3.32-3.18c-1.42-.77-2.94-1.1-4.56-1.01m42.56 14.36c2.29 1.48 4.05 3.42 5.27 5.84s1.74 5.05 1.56 7.91-1.03 5.41-2.54 7.68c-1.51 2.26-3.5 3.99-5.96 5.18s-5.14 1.7-8.04 1.52-5.5-1.02-7.79-2.51-4.05-3.45-5.27-5.86q-1.83-3.63-1.56-7.95c.18-2.85 1.03-5.41 2.54-7.65 1.51-2.25 3.49-3.96 5.94-5.14s5.13-1.68 8.06-1.5c2.9.17 5.5 1 7.79 2.48m-12.63 4.34c-1.43.75-2.6 1.82-3.49 3.21s-1.39 2.95-1.5 4.67c-.11 1.75.2 3.38.92 4.87s1.74 2.71 3.06 3.64c1.31.93 2.77 1.45 4.38 1.55 1.6.1 3.1-.22 4.49-.97s2.53-1.83 3.41-3.24 1.37-2.99 1.48-4.74c.11-1.72-.19-3.33-.88-4.82-.7-1.49-1.69-2.7-2.98-3.61a8.2 8.2 0 0 0-4.34-1.53c-1.59-.1-3.11.22-4.55.97m27.3 2.28 23.36 7.16-1.67 5.44-8.54-2.62-7.05 22.99-6.31-1.94 7.05-22.99-8.5-2.61zm49.04 14.11c1.62 1.61 2.24 3.53 1.87 5.77-.26 1.55-.93 2.82-2.01 3.82s-2.43 1.58-4.03 1.73c1.81.67 3.13 1.76 3.98 3.25s1.12 3.19.8 5.1c-.42 2.49-1.72 4.29-3.91 5.4s-4.96 1.39-8.31.83l-13.71-2.29 4.86-29.05 13.25 2.22c3.19.54 5.59 1.61 7.21 3.22m-6.45 8.07c.79-.45 1.28-1.19 1.45-2.21.17-1-.05-1.83-.66-2.5s-1.53-1.1-2.77-1.27l-6.42-1.07-1.06 6.35 6.42 1.07c1.23.21 2.25.08 3.04-.37m-1.27 12.03c.98-.48 1.57-1.27 1.75-2.37.18-1.05-.12-1.95-.9-2.71s-1.94-1.25-3.48-1.48l-6.42-1.07-1.15 6.89 6.42 1.07q2.31.39 3.78-.33m38.03 10.09-2.31-6.64-12.46-.58-2.85 6.2-6.53-.41 14.03-28.92 6.53.41 10.11 30.44zm-12.58-12.74 8.85.55-3.73-10.98zm26.8-16.47 6.33-.24.91 23.66 15.15-.58.22 5.81-21.48.83zm26.86-2.18 6.27-.96 3.61 23.6 14.75-2.26.89 5.8-21.01 3.22zm59.1-7.48c-1.5-.23-2.88-.13-4.16.3-1.54.52-2.8 1.38-3.8 2.59s-1.62 2.61-1.87 4.19c-.25 1.59-.08 3.2.5 4.84s1.48 3.01 2.69 4.12 2.6 1.85 4.15 2.21c1.56.36 3.1.29 4.64-.23 1.22-.41 2.36-1.13 3.4-2.16a12.1 12.1 0 0 0 2.51-3.57l5.08 2.84q-1.35 3.075-3.81 5.43c-2.46 2.355-3.45 2.7-5.43 3.36-2.68.9-5.34 1.09-7.98.55s-4.98-1.71-7.02-3.52-3.55-4.08-4.53-6.82c-.97-2.71-1.2-5.38-.71-8.01s1.62-4.95 3.4-6.96 4.02-3.47 6.72-4.39c1.98-.67 4.08-.9 6.31-.71 2.23.2 4.27.79 6.14 1.79l-1.97 5.76c-1.34-.85-2.77-1.38-4.26-1.61m10.7-10.9 5.73-2.71 10.2 21.59 13.45-6.36 2.5 5.3-19.19 9.06zm41.85 3.89c1.65.45 3.31.17 4.99-.84 1.63-.98 2.6-2.28 2.93-3.89.33-1.62-.08-3.34-1.21-5.17l-9.18-14.86 5.59-3.36 9.18 14.86c1.37 2.22 2.12 4.4 2.24 6.56s-.37 4.17-1.48 6.04-2.78 3.48-5.02 4.83-4.47 2.08-6.69 2.21-4.28-.35-6.18-1.44-3.54-2.74-4.91-4.96l-9.18-14.86 5.59-3.36 9.18 14.86c1.11 1.8 2.5 2.93 4.15 3.38m26.45-43.8c2.27-.11 4.12.72 5.56 2.51 1 1.23 1.52 2.59 1.56 4.06s-.4 2.86-1.33 4.15c1.68-.88 3.36-1.13 5.04-.76q2.52.57 4.35 2.85c1.6 1.98 2.11 4.16 1.51 6.53-.59 2.37-2.19 4.6-4.79 6.7l-10.66 8.59-18.67-23.16 10.3-8.31c2.49-1.99 4.86-3.04 7.13-3.16m1.86 10.21c.18-.89-.06-1.74-.72-2.56-.64-.79-1.41-1.19-2.31-1.19s-1.82.39-2.76 1.19l-4.99 4.02 4.08 5.06 4.99-4.02c.96-.78 1.53-1.61 1.71-2.5m8.21 9.04c.28-1.05.07-2.01-.64-2.89-.68-.84-1.55-1.22-2.62-1.16-1.07.07-2.2.59-3.38 1.57l-4.99 4.02 4.43 5.49 4.99-4.02c1.19-.96 1.93-1.97 2.21-3.01m-466.4-219.22c-1.59-1.38-3.99-2.91-7.19-4.58l2.26-3.57c3.04 1.35 5.47 2.73 7.28 4.14zm-2.84 17.84-3.7-3.41c2.03-3.22 4.25-7.43 6.66-12.65l3.17 3.32c-1.84 4.2-3.88 8.45-6.13 12.74m4.03-29.46c-1.32-1.02-3.56-2.31-6.74-3.87l2.43-3.69c3.01 1.34 5.32 2.53 6.91 3.58zm13.65 29.58v-10.37c-2.58 3.95-5.7 6.92-9.37 8.94-.93-1.45-2-2.67-3.21-3.68 4.03-1.83 7.36-4.7 9.99-8.63h-7.48v-4.3h10.07v-4.05h4.93v4.05h10.2v4.3h-7.61c1.15 1.69 2.51 3.27 4.09 4.75 1.58 1.47 3.19 2.66 4.83 3.56-1.23.95-2.37 2.21-3.41 3.76-3.02-2.01-5.71-4.87-8.1-8.57v10.25zm-7.23-19.35c-1.04-1.2-2.17-2.31-3.37-3.31 1.48-.9 2.88-1.99 4.19-3.27 1.34-1.34 2.41-2.7 3.21-4.09l4.4 1.39c-.99 1.75-2.26 3.46-3.82 5.16-1.52 1.65-3.05 3.03-4.61 4.12m-2.72-8.22v-8.35h25.04v8.1h-4.52v-4.01h-16.24v4.25h-4.28zm20.93 8.22c-.69-1.15-1.77-2.58-3.25-4.29-1.4-1.58-2.82-3.07-4.28-4.46l3.45-2.25c3.67 3.27 6.28 6.08 7.81 8.43zm517.5 14.87-1.6-5.07c1.84-.55 3.64-1.14 5.43-1.74v-12.38h-4.69v-4.81h4.69v-8.68h4.93v8.68h4.52v4.81h-4.52v10.6l3.82-1.37.95 4.49c-4.25 1.81-8.76 3.64-13.53 5.47m15.17 4.53a20.2 20.2 0 0 0-4.77-2.65c1.89-2.64 3.19-5.8 3.91-9.47.49-2.61.74-6.07.74-10.37v-14.04h4.85v14.08c0 4.82-.25 8.72-.74 11.71-.74 4.25-2.07 7.82-3.99 10.74m7.69-5.24v-29.13h4.6v29.13zm7.77 5.03V382.7h4.97v36.57z"></path></g><!-- source: https://football-logos.cc --></svg>