<svg xmlns="http://www.w3.org/2000/svg" xml:space="preserve" viewBox="0 0 137.43 185.21"><!-- Source: https://football-logos.cc --><path d="M395.32 747.347c-4.712-2.671-115.575-65.515-133.313-75.932l-.49-.288c-14.566-8.553-44.873-26.347-71.455-57.484-33.027-38.685-49.773-85.288-49.773-138.514V80.33c0-16.725 13.606-30.331 30.33-30.331h458.762c16.724 0 30.33 13.607 30.33 30.33V475.13c0 53.226-16.746 99.83-49.773 138.514-26.582 31.137-56.89 48.931-71.455 57.484l-.49.288c-17.738 10.417-128.601 73.261-133.313 75.931L400 750z" style="fill:#fff" transform="translate(-37.118 -13.23)scale(.26458)" data-source="https://football-logos.cc"></path><path d="M629.38 59.492H170.62c-11.51 0-20.839 9.33-20.839 20.839v394.798c0 120.074 88.838 171.542 117.033 188.1C284.694 673.73 400 739.09 400 739.09s115.307-65.359 133.186-75.86c28.196-16.558 117.033-68.026 117.033-188.1V80.33c0-11.51-9.33-20.839-20.838-20.839z" style="fill:#0e4d8f" transform="translate(-37.118 -13.23)scale(.26458)"></path><path d="M400 719.993c-26.654-15.117-109.983-62.4-124.773-71.087l-.494-.29c-13.336-7.83-41.087-24.124-64.818-51.921-28.88-33.828-43.523-74.728-43.523-121.566V171.453h467.216V475.13c0 46.838-14.644 87.738-43.523 121.566-23.731 27.797-51.482 44.09-64.818 51.921l-.494.29c-14.79 8.687-98.12 55.97-124.773 71.087z" style="fill:#fff" transform="translate(-37.118 -13.23)scale(.26458)"></path><path d="M166.392 149.301h467.215v22.152H166.392z" style="fill:#e42413" transform="translate(-37.118 -13.23)scale(.26458)"></path><path d="M451.689 487.322c-.034-.623-.08-1.23-.12-1.845a109 109 0 0 0-2.287-17.854c-11.471-57.778-58.51-75.976-108.176-154.522-54.898-86.824-8.95-119.047-8.95-119.047h-98.76v296.432c0 60.28 48.867 109.146 109.146 109.146S451.69 550.766 451.69 490.486q-.001-1.535-.045-3.06z" style="fill:#0e4d8f" transform="translate(-37.118 -13.23)scale(.26458)"></path><path d="M563.623 467.514c-.048-.166-.467-1.598-1.084-4.153.395 1.376.76 2.76 1.084 4.153z" style="fill:none;stroke:#ec4afb;stroke-width:.5px;stroke-miterlimit:10" transform="translate(-37.118 -13.23)scale(.26458)"></path><path d="M563.63 467.53a106.8 106.8 0 0 1 2.92 24.853c0 58.805-47.667 106.472-106.464 106.472a107.5 107.5 0 0 1-16.129-1.21v-.008c56.4-23.543 76.69-78.442 80.565-161.614.43-9.236 2.01-17.758 3.418-25.684 12.537-70.9 44.36-92.542 44.914-92.906-25.558 69.444-14.239 129.585-10.347 145.801.008.048.024.087.032.127.617 2.555 1.036 3.987 1.084 4.153a.03.03 0 0 1 .008.016zM332.678 196.814s-10.434 33.435 5.036 62.358c14.283 26.703 39.718 35.803 67.466 44.754s50.87 20.438 60.045 27.599c0 0-29.692-13.874-51.433-17.007-21.74-3.133-42.104-6.266-53.516-9.622-11.412-3.357-33.118-15.6-39.608-32.75-6.489-17.151-4.848-45.57 12.01-75.332M432.33 346.89c34.686 3.805 60.196 16.336 60.196 16.336-18.35-19.468-65.118-31.776-87.272-34.237-22.153-2.462-29.538-3.133-41.397-6.042-6.114-1.5-13.494-3.63-21.836-8.415a422 422 0 0 0 15.521 22.682c22.38 5.594 43.117 6.203 74.789 9.676" style="fill:#0e4d8f" transform="translate(-37.118 -13.23)scale(.26458)"></path><path d="M316.193 292.29c-17.752-20.81-11.412-65.118-11.412-65.118-31.328 75.412 20.475 100.81 46.32 108.306 2.17.63 4.313 1.204 6.441 1.736a422 422 0 0 1-15.52-22.682c-7.841-4.499-16.531-11.343-25.829-22.242" style="fill:#fff" transform="translate(-37.118 -13.23)scale(.26458)"></path><path d="M479.659 384.298c24.764 5.669 54.899 26.256 54.899 26.256-21.483-26.853-58.77-40.923-90.601-45.948-28.82-4.55-35.383.224-70.829-7.395 5.896 7.143 11.635 13.68 17.153 19.808 29.612 2.008 64.614 1.61 89.378 7.279" style="fill:#0e4d8f" transform="translate(-37.118 -13.23)scale(.26458)"></path><path d="M280.352 286.435c-4.774 35.58 14.661 60.866 39.086 72.045 20.354 9.317 38.489 16.345 70.843 18.539-5.518-6.129-11.258-12.665-17.153-19.808-84.155-17.837-92.776-70.776-92.776-70.776" style="fill:#fff" transform="translate(-37.118 -13.23)scale(.26458)" data-source="https://football-logos.cc"></path><path d="M534.558 435.822c-23.347-22.974-52.512-35.338-125.215-37.865 5.078 5.647 9.829 11.115 14.183 16.625l.598-.03c74.494-4.211 110.433 21.27 110.433 21.27" style="fill:#0e4d8f" transform="translate(-37.118 -13.23)scale(.26458)"></path><path d="M275.951 342.75c-5.8 53.995 79.83 75.507 147.575 71.832-4.354-5.51-9.105-10.979-14.183-16.625-122.903-5.66-133.391-55.206-133.391-55.206zm152.83-41.674c-35.351 0-54.78-23.76-68.518-55.92-6.422-15.033-8.315-24.895-10.318-37.321-3.613-22.422-2.809-43.081-1.081-57.659 13.818 34.181 22.6 43.207 30.209 44.28 3.801.536 7.193-.858 12.045-5.128 6.538-5.754 16.206-6.375 20.06-6.375.94 0 1.874.033 2.777.097 3.308.237 7.832 2.186 12.621 4.25 5.107 2.2 10.893 4.694 14.482 4.694 6.89 0 15.647.522 30.227 1.8 7.076.621 18.767 2.31 29.083 3.8 8.075 1.166 15.704 2.267 18.53 2.463q.29.02.578.02c4.15 0 8.353-2.964 12.063-5.58.932-.656 1.811-1.276 2.666-1.832 2.533-1.646 5.54-2.517 8.697-2.517 2.779 0 5.613.69 7.98 1.944 2.554 1.352 6.61 5.758 12.507 12.325 2.832 3.154 5.507 6.133 7.065 7.527 4.621 4.135 6.893 6.714 6.481 9.332-.194 1.234-.985 2.257-2.179 2.823-2.118 1.114-2.13 1.365-2.242 3.594-.041.828-.092 1.858-.273 3.06-.943 6.292-6.658 6.292-10.44 6.292-1.29 0-2.73-.037-4.398-.08l-2.06-.05q-.294-.006-.584-.007c-8.738 0-12.906 4.358-13.435 5.946-.311.934-.257 1.888.14 2.489.108.162.433.654 1.482.738 2.424.194 3.916.828 5.005 1.292.82.348 1.174.49 1.711.49.784 0 .902-.095 1.397-.494.286-.23.643-.517 1.108-.783.537-.307 1.418-.659 3.48-.659 1.426 0 4.821.15 6.417 1.496.468.227 1.882.605 3.075.818l5.34.95-3.603 3.48c.143.15.29.319.428.509.397.545 1.22 1.679.664 7.06l-.256 2.484h-2.498c-.132 0-3.277-.003-7.792-.305l-.08-.003c-1.25 0-3.854 1.617-6.853 5.23a4.325 4.325 0 0 1-5.09 1.195c-9.109-4.046-26.718-6.983-41.873-6.983-14.856 0-19.306 2.716-19.767 3.763l-.058.122c-2.896 5.793-19.084 34.722-53.448 35.32a81 81 0 0 1-1.472.012zm137.543-47.832" style="fill:#fff" transform="translate(-37.118 -13.23)scale(.26458)"></path><path d="M350.505 159.556s-3.879 49.603 12.27 84.437c15.77 34.018 33.118 54.898 67.43 54.302s49.528-30.806 51.02-33.79c3.8-8.621 47.39-6.15 65.297 1.806.64.285 1.39.104 1.837-.434 1.657-1.996 5.767-6.452 9.247-6.22 4.475.298 7.608.298 7.608.298s.448-4.326-.149-5.147c-.597-.82-2.573-1.753-.41-3.841 0 0-3.58-.634-4.364-1.417-.783-.784-5.706-1.157-6.75-.56-1.045.597-1.492 1.641-3.879 1.641s-3.207-1.492-6.937-1.79-5.072-3.73-4.028-6.862 6.862-8.056 16.708-7.832 13.427.671 14.098-3.804c.671-4.476-.671-6.266 4.028-8.727 2.014-.896-.671-3.805-4.923-7.609s-15.216-17.454-19.02-19.468-9.399-2.461-13.875.448c-4.475 2.909-10.517 8.28-17.006 7.832s-34.909-5.147-47.664-6.266-22.377-1.79-29.985-1.79-21.035-8.504-27.3-8.951-15.217.671-20.811 5.594c-5.595 4.923-9.622 5.818-13.874 5.818s-17.827-3.655-28.568-37.668" style="fill:#0e4d8f" transform="translate(-37.118 -13.23)scale(.26458)"></path><path d="M545.789 206.778s3.629-4.221 9.037-2.673c5.408 1.547 7.116 7.879-.854 8.441s-16.082-3.94-15.37-7.175c.711-3.236 8.254-2.814 8.254-2.814s-2.562 2.955-1.067 4.22m-149.944 16.936s7.05-8.566 13.976-9.338 8.978-.298 12.402-2.89c3.425-2.594 9.491-8.521 19.065-7.045 2.5.442 3.083 2.169.295 2.942-2.255.625-7.544 5.688-7.378 9.111s4.482 2.609 4.482 2.609-6.42 8.282-13.826 9.156-13.967-2.76-16.125-5.773c-1.189-1.564-12.89 1.228-12.89 1.228z" style="fill:#fff" transform="translate(-37.118 -13.23)scale(.26458)"></path><path d="M413.682 217.28c-1.255 1.435 2.075 5.239 6.532 5.392 4.511.156 8.607-1.036 9.54-5.184s-1.512-5.503-2.437-5.34c-1.762.311-2.125 4.035-5.443 4.45-3.319.414-6.74-.976-8.192.683z" style="fill:#0e4d8f" transform="translate(-37.118 -13.23)scale(.26458)"></path><g transform="translate(-37.118 -13.23)scale(.26458)"><circle cx="342.542" cy="490.486" r="76.185" style="fill:#fff"></circle><circle cx="342.542" cy="490.486" r="71.25" style="fill:#0e4d8f"></circle><path d="m338.775 416.241-15.664 3.133-11.412 23.049 16.335 19.468h29.762l15.888-19.02-11.86-24.616zm58.853 89.509-26.182-12.084-8.95-28.419 15.887-18.797 25.063 3.805 6.265 8.95 5.147 18.126.895 10.07zm-51.916 42.517-.671-30.657 25.286-18.35 25.51 11.86 4.252 26.182-12.979 12.084-17.902 10.293zm-30.88-48.782 25.286 17.678v30.433l-23.272 12.307-16.56-8.28-15.216-14.769 4.7-25.733zm-26.629 6.041 25.51-11.748 9.398-28.978-16.335-18.573-25.958 3.58-7.16 12.755-4.252 16.783-.895 6.713z" style="fill:#fff"></path></g><path d="M424.575 78.242h24.318v56.204h-24.318zm-55.149 36.307V78.242h-24.318v38.77c0 9.63 7.805 17.435 17.433 17.435h56.017v-13.648h-42.883a6.25 6.25 0 0 1-6.25-6.25zM191.198 78.242v56.204h24.318V91.89h18.564a6.25 6.25 0 0 1 6.25 6.25v16.409a6.25 6.25 0 0 1-6.25 6.25h-12.981v13.647h26.444c9.446 0 17.104-7.658 17.104-17.104V95.43c0-9.493-7.695-17.188-17.187-17.188zm392.622 0h24.318v56.204H583.82zm-24.814 0h-24.318v56.204h24.318v-28.105l19.79 24.818v-28.475zm-268.008 56.204 26.35-56.204h-26.35l-26.35 56.204zm27.361 0h25.844l-22.31-52.482-13.705 28.556zm160.068 0 26.35-56.204h-26.35l-26.35 56.204zm27.362 0h25.843l-22.31-52.482-13.705 28.556z" style="fill:#fff" transform="translate(-37.118 -13.23)scale(.26458)"></path><path d="M290.475 645.072h14.658l15.014-32.769h-14.659l-3.373 7.363-2.861-7.363h-14.659l6.273 16.145h7.223zm32.507-32.7h14.294v32.701h-14.294zm29.671 32.7v-18.644l14.868 18.644h13.04v-32.7h-13.04v16.857l-14.233-16.858h-13.163v32.701zm52.12-16.882v3.634h7.622v2.911a2.63 2.63 0 0 1-2.629 2.63h-8.753a2.63 2.63 0 0 1-2.63-2.63v-12.377a2.63 2.63 0 0 1 2.63-2.63h8.753a2.63 2.63 0 0 1 2.63 2.63v.965h13.56v-1.69a9.26 9.26 0 0 0-9.262-9.261h-22.609a9.26 9.26 0 0 0-9.262 9.262v14.176a9.26 9.26 0 0 0 9.262 9.262h22.609a9.26 9.26 0 0 0 9.262-9.262v-7.62zm61.991.532c2.386 0 3.547 3.388 3.547 5.773v.723c0 5.442-4.412 9.854-9.855 9.854h-31.004v-32.7h31.004c5.443 0 9.855 4.412 9.855 9.854v.722c0 2.386-1.162 5.774-3.548 5.774zm-9.547-5.125a3.22 3.22 0 0 0-3.222-3.222h-12.203v6.445h12.203a3.22 3.22 0 0 0 3.222-3.223m0 9.872a3.22 3.22 0 0 0-3.222-3.222h-12.203v6.445h12.203a3.22 3.22 0 0 0 3.222-3.223m48.788 11.603h-22.68a9.57 9.57 0 0 1-9.569-9.57v-13.56a9.57 9.57 0 0 1 9.57-9.57h22.679a9.57 9.57 0 0 1 9.57 9.57v13.56a9.57 9.57 0 0 1-9.57 9.57m-4.347-9.66v-13.38a1.913 1.913 0 0 0-1.913-1.914h-10.16a1.913 1.913 0 0 0-1.912 1.913v13.382c0 1.056.856 1.913 1.913 1.913h10.159a1.913 1.913 0 0 0 1.913-1.914m-100.967 40.669h-14.127a6.887 6.887 0 0 1-6.887-6.887v-8.044a6.887 6.887 0 0 1 6.887-6.887h14.127a6.887 6.887 0 0 1 6.888 6.887v8.044a6.887 6.887 0 0 1-6.888 6.887m-2.398-7.744v-6.33a2.575 2.575 0 0 0-2.575-2.576h-4.18a2.575 2.575 0 0 0-2.576 2.576v6.33a2.575 2.575 0 0 0 2.575 2.576h4.181a2.575 2.575 0 0 0 2.575-2.576m-40.051.834c0 1.196.969 2.165 2.164 2.165h17.014v4.744h-20.436a6.849 6.849 0 0 1 0-13.697h10.265a1.876 1.876 0 1 0 0-3.751h-17.114v-4.37h20.913a6.372 6.372 0 0 1 0 12.745h-10.642a2.164 2.164 0 0 0-2.164 2.164m59.564 0c0 1.196.97 2.165 2.165 2.165h17.014v4.744h-20.437a6.849 6.849 0 0 1 0-13.697h10.266a1.876 1.876 0 0 0 0-3.751H409.7v-4.37h20.912a6.372 6.372 0 0 1 0 12.745h-10.641a2.164 2.164 0 0 0-2.165 2.164m21.458-14.909h9.049v21.819h-9.049z" style="fill:#0e4d8f" transform="translate(-37.118 -13.23)scale(.26458)" data-source="https://football-logos.cc"></path><!-- source: https://football-logos.cc --></svg>