<svg xmlns="http://www.w3.org/2000/svg" viewBox="0 0 132.04 185.21"><!-- Source: https://football-logos.cc --><path fill="#212579" d="M131.768 6.906C115.708.794 66.02 0 66.02 0S16.331.794.27 6.906c0 0-.608 51.223 0 85.751.397 22.966 1.985 26.405 4.313 33.893 2.434 7.858 10.345 19.923 25.4 29.951 15.055 10.054 29.025 19.447 36.036 28.707 7.012-9.26 20.982-18.653 36.037-28.707 15.054-10.028 22.966-22.093 25.4-29.95 2.328-7.489 3.916-10.928 4.312-33.894.609-34.555 0-85.751 0-85.751" data-source="https://football-logos.cc"></path><g fill="#fff" data-source="https://football-logos.cc"><path d="M98.352 138.933c-5.636 3.677-12.86 7.673-20.241 13.255-7.382 5.557-12.118 11.007-12.118 11.007s-4.736-5.45-12.118-11.007-14.578-9.578-20.24-13.255c-4.393-2.884-13.23-8.282-21.14-16.854q.277.794.555 1.667c2.037 6.244 7.514 15.716 21.854 25.294 11.166 7.461 22.649 15.081 31.063 22.966 8.413-7.885 19.896-15.531 31.062-22.966 14.366-9.578 19.817-19.024 21.854-25.294.185-.582.37-1.165.556-1.667-7.858 8.599-16.669 13.996-21.087 16.854m-.371-65.696c14.896 3.545 22.569 9.657 24.844 11.72V70.116v.052-.45c-4.71-2.142-12.223-5.106-12.223-5.106-4.075 6.826-12.62 8.626-12.62 8.626M66.125 48.154V31.38h-.106c-3.783 0-7.434.026-10.98.105v19.712c3.678-1.27 7.7-2.514 11.086-3.043m15.822 1.72c3.44 1.296 7.541 1.984 9.578 1.878s4.075.477 13.97-3.386c9.87-3.863 15.743-10.24 15.743-10.24s-.106 5.874-.661 11.219-4.154 10.98-4.154 10.98l6.402 2.54V35.93c-5.053-1.243-12.62-2.54-23.786-3.44a372 372 0 0 0-18.044-.925V49.53c.344.106.661.238.952.344"></path><path d="M92.716 115.782c-5.583-2.143-11.721-1.879-11.721-1.879v25.823c2.99-2.01 6.535-4.286 10.795-6.905 5.9-3.651 10.477-6.985 14.05-10.107-4.816-3.096-7.541-4.79-13.124-6.932m-29.581 10.001-4.392 4.233a27 27 0 0 0-3.677.688v11.8c5.53 3.916 8.625 6.642 10.98 9.129.026-.053.08-.08.106-.133v-26.193c-1.059.264-3.017.476-3.017.476M9.24 70.141v-.053 14.737c0 4.551 1.217 15.24 5.133 23.02V34.818c-1.958.37-3.651.741-5.133 1.111zm28.178 47.757c-.74-1.72-1.693-3.624-1.164-6.456s3.386-5.609 3.386-5.609-.079-.211.318-1.084a3.6 3.6 0 0 0 .238-1.059v-1.138c-1.429-.423-3.73-1.72-6.641-3.069-2.91-1.323-4.34-2.99-4.34-2.99v28.734c3.044 2.382 6.642 4.895 10.981 7.567v-9.18c-1.138-1.588-2.17-4.26-2.778-5.716"></path><path d="M114.676 48.551s-1.455 3.149-7.62 5.741c-6.164 2.62-11.72 3.44-15.372 3.44s-7.62-.74-12.118-2.09-6.694-1.455-9.525-1.455-7.54.423-13.176 2.619-8.361 3.757-10.663 4.815-4.392 1.773-10.24 2.514-7.328 1.455-8.995 2.302c-.926.873-3.757 4.1-4.26 4.63-.503.556-2.196 2.355-1.534 3.73s2.857 4.895 2.857 4.895 1.482-5.688 1.8-6.773 1.48-2.117 2.513-2.09 1.64.714 2.196 1.455 1.481 1.852 3.175 1.693 2.143-.555 5.609-2.116c3.44-1.561 4.55-1.958 6.615-2.699 2.09-.74 3.413-1.164 5.212-1.773s5.477-2.354 6.773-3.254 3.837-2.725 4.63-3.096 2.382-.82 4.075 0 3.228 2.09 6.932 2.752c0 0-9.049 1.244-15.24 2.99s-14.5 4.577-18.732 7.064c-4.234 2.46-5.398 2.937-7.541 3.016-2.117.08-4.815.239-6.35 2.62s1.085 4.498 2.09 5.874c.98 1.375 9.26 12.117 18.495 12.435 0 0-3.096-1.8-3.81-7.408 0 0 5.609-1.085 8.81-2.117s5.636-1.376 7.99.503 3.599 5.37 2.779 8.255c-.847 2.884-3.387 4.603-5.133 5.847-1.72 1.244-5.292 3.757-6.06 4.604 0 0-3.703-.053-2.248-5.795 0 0-2.884 2.302-3.334 7.276 0 0-3.096 2.117-2.831 4.948.053.741 1.773 4.128 2.249 5.345.476 1.19.74 1.72 1.984 2.302s8.335 3.757 8.335 3.757-2.858-4.128-3.149-7.303c0 0 2.725 1.985 4.022 2.143s9.049-.688 9.049-.688-1.614-3.148 1.508-6.217c3.148-3.096 7.884-5.795 15.795-5.424 7.885.37 17.304 2.83 27.596 10.292 0 0-9.419-16.193-34.766-15.796 0 0 5.398-4.445 19.103-.846s23.998 13.176 23.998 13.176-3.73-9.102-17.277-14.102-20.69-3.757-20.69-3.757 9.524-3.546 16.006-15.32c0 0-12.858 12.965-20.955 13.335 0 0 7.065-4.233 10.504-12.17 0 0-5.027 6.429-11.827 8.043 0 0-2.513 10.927-6.64 14.367 0 0 3.757-7.382 4.233-14.95 0-.634-1.059-1.878-2.196-3.148-1.138-1.243-3.625-4.921-3.466-7.673.158-2.778 3.757-5.741 6.403-6.482s10.292-.873 15.293-.98c0 0-4.472-.952-16.299-2.354 0 0 18.574-1.27 25.585-.45 0 0 14.076-4.445 17.833-20.452m-85.46 4.842v6.8a648 648 0 0 1 10.98-4.022v-2.805h-10.98zm10.98-18.573v-2.805a258 258 0 0 0-7.17.476 543 543 0 0 0-3.784.317v2.011zm-13.414 1.798H22.68c-.98 0-1.508.556-1.508 1.561v3.466h2.513v-2.698h2.064v2.38l-4.71 8.6-.026.053v1.64h7.249v-2.38h-4.128l3.652-6.641c.318-.582.476-1.138.476-1.64v-2.805c.027-.979-.502-1.535-1.481-1.535m8.309-.054h-4.34c-.978 0-1.508.556-1.508 1.588v11.96c0 1.004.53 1.56 1.482 1.56h4.366c.952 0 1.508-.556 1.508-1.56v-11.96c-.027-1.032-.556-1.588-1.508-1.588m-1.032 12.753h-2.302V38.92h2.302zm3.545-8.572v.582h.794V51.7h2.54V36.539H38.74l-.053.185zm10.107-4.181h-4.26c-.978 0-1.508.556-1.508 1.588v3.439h2.54V38.92h2.223v2.725l-2.46 1.747-.107.079v.714l.106.08 2.46 1.772v3.334h-2.222V46.54h-2.54v3.625c0 1.005.53 1.561 1.482 1.561h4.286c.953 0 1.508-.556 1.508-1.561v-4.101q0-.993-.793-1.508l-1.032-.662 1.005-.688c.53-.37.794-.873.794-1.534v-3.44c.026-1.111-.503-1.667-1.482-1.667m33.497-22.886c-.503 0-.583.45-.609 2.17s.026 2.17.53 2.196c.502 0 .581-.45.608-2.17 0-1.72-.053-2.196-.53-2.196m-20.002-.053h-.317v1.482h.317c.476 0 .688-.291.688-.768.026-.502-.185-.714-.688-.714M39.72 17.198l.926-.08-.635-2.645h-.027z"></path><path d="M99.04 10.08c-9.473-.74-20.585-1.11-33.02-1.11S42.471 9.34 33 10.106c-11.166.873-18.707 2.17-23.787 3.44V26.51c5.054-1.243 12.621-2.54 23.786-3.44 9.473-.74 20.559-1.137 33.02-1.137s23.548.37 33.02 1.138c11.166.873 18.706 2.17 23.786 3.44V13.546c-5.08-1.27-12.647-2.567-23.786-3.466M17.97 21.432l-2.196-1.296-1.905 1.693.556-2.487-2.196-1.296 2.54-.239.555-2.487 1.006 2.329 2.54-.238-1.905 1.693zm8.996-.926-1.8.159-.925-4.207h-.027l-.185 4.313-1.8.159-1.613-6.245 1.587-.132.874 4.34h.026l.212-4.42 1.481-.132 1.032 4.313h.027l.079-4.418 1.588-.133zm3.44-.185c-1.376.08-2.197-.397-2.302-2.17l-.265-4.154 1.64-.105.292 4.577c.026.608.238.767.555.74s.476-.184.45-.793l-.291-4.577 1.64-.106.265 4.154c.132 1.746-.582 2.328-1.984 2.434m5.45-.53-.132-2.619-1.006.053.133 2.62-1.64.08-.292-6.35 1.64-.08.106 2.328 1.006-.053-.106-2.328 1.64-.08.291 6.35zm5.292-.343-.239-1.111-1.322.079-.106 1.111-1.747.106 1.138-6.43 2.09-.132 1.958 6.245zm4.55-.212-1.19-3.89h-.027l.08 3.917-1.561.026-.133-6.35 1.852-.026 1.138 3.889h.027l-.08-3.916 1.561-.026.133 6.35zm7.012-.238-1.667.027-.08-4.948-1.243.026-.026-1.402 4.154-.08.026 1.403-1.243.026zm4.18-.106-.053-2.62-1.005.027.053 2.62-1.667.026-.106-6.35 1.667-.026.053 2.328 1.005-.026-.053-2.329 1.667-.026.106 6.35zm6.906-.106h-1.773c-.159-.317-.159-.952-.159-1.217v-.423c0-.714-.132-.9-.555-.9h-.423v2.54H59.22v-6.35h2.593c1.27 0 1.746.715 1.746 1.694 0 .846-.318 1.402-1.085 1.508v.026c.794.08 1.032.582 1.032 1.43v.555c0 .317 0 .74.08.873.052.08.079.132.184.185v.08zm4.286 0h-3.836v-6.35h3.757v1.35h-2.117v1.085h1.985v1.296h-1.985v1.27h2.196zm4.445.053h-3.863v-6.35h3.757v1.35h-2.116v1.084h1.984v1.297h-1.984v1.27h2.196v1.35zm6.244-4.92-1.243-.027-.08 4.947-1.666-.026.079-4.948-1.244-.026.027-1.403 4.154.053zM83.43 15.9c-.053 2.382-.635 3.281-2.328 3.255s-2.25-.98-2.196-3.334c.053-2.381.635-3.28 2.328-3.254 1.667.026 2.222.952 2.196 3.333m3.995 3.334-.344-4.286h-.026l-.741 4.233-1.826-.08-.793-6.402 1.587.08.318 4.418h.026l.794-4.366 1.481.08.45 4.418h.027l.661-4.365 1.588.079-1.376 6.297zm7.673.45-1.799-.106-.873-3.995h-.027L92.16 19.5l-1.534-.08.37-6.35 1.852.106.82 3.969h.027l.238-3.916 1.535.08zm4.974-4.18-1.534-.106v-.159c.026-.37-.106-.688-.424-.714-.344-.027-.529.238-.555.529-.106 1.243 2.646.846 2.487 3.148-.106 1.35-.926 1.905-2.381 1.773-1.376-.106-2.09-.635-1.985-1.931l.027-.212 1.587.106v.158c-.053.53.159.741.476.768.344.026.556-.238.583-.582.105-1.244-2.54-.82-2.382-3.07.106-1.296.82-1.93 2.223-1.825s1.958.767 1.878 2.117m6.827.079-2.09-.159-.08 1.085 1.958.132-.106 1.297-1.958-.133-.185 2.62-1.64-.132.45-6.324 3.756.265zm4.577 1.085-.027.397-1.587-.133.026-.344c.053-.714-.053-.952-.37-.979-.503-.053-.609.424-.767 2.117-.16 1.72-.133 2.17.37 2.223.397.026.53-.318.635-1.509l1.588.133-.053.476c-.16 1.773-1.217 2.117-2.302 2.01-1.852-.158-2.17-1.137-1.958-3.492.212-2.407.847-3.228 2.566-3.095 1.482.158 1.985.979 1.879 2.196m6.694 4.974-1.773-1.826-2.275 1.138 1.19-2.249-1.772-1.826 2.513.424 1.19-2.25.371 2.514 2.514.424-2.276 1.137z"></path></g><!-- source: https://football-logos.cc --></svg>