<svg xmlns="http://www.w3.org/2000/svg" viewBox="0 0 185.21 183.51"><!-- Source: https://football-logos.cc --><path fill="#fff" d="M145.31 10.927S122.582 0 92.632 0 39.953 10.927 39.953 10.927H25.004v78.211c0 39.317 29.898 78.132 67.628 89.138 37.756-11.006 67.627-49.794 67.627-89.138v-78.21z" data-source="https://football-logos.cc"></path><path fill="#0f5198" d="M92.632 1.323c15.319 0 28.654 2.937 37.174 5.397 9.234 2.673 14.922 5.371 14.975 5.398l.265.132h13.917v76.888c0 18.68-6.88 37.994-19.394 54.372-12.356 16.219-29.025 28.072-46.91 33.39-17.913-5.318-34.582-17.171-46.912-33.39-12.514-16.404-19.393-35.745-19.393-54.372V12.25h13.89l.265-.132c.053-.027 5.741-2.725 14.975-5.398 8.493-2.487 21.828-5.397 37.148-5.397m0-1.323C62.654 0 39.953 10.927 39.953 10.927H25.004v78.211c0 39.317 29.898 78.132 67.628 89.138 37.756-11.006 67.627-49.794 67.627-89.138v-78.21H145.31S122.61 0 92.632 0"></path><path fill="#ccc" d="M30.243 19.394v69.718c0 36.221 27.305 72.628 62.389 83.66 35.11-11.006 62.388-47.412 62.388-83.634V19.394z"></path><path fill="#fff" d="M93.955 22.04H152.4v67.098c0 16.933-6.218 34.608-17.515 49.689-10.795 14.473-25.295 25.32-40.958 30.77V22.04z"></path><path fill="#ca101e" d="M123.932 22.04H109.22L93.955 50.747v27.649zM93.955 133.694 152.4 23.76v-1.72h-13.758l-44.688 84.005z"></path><path fill="#115199" d="M152.401 89.138V51.382l-58.446 109.96v8.256c15.69-5.424 30.162-16.298 40.957-30.771 11.271-15.081 17.489-32.756 17.489-49.689M32.862 22.04H91.31v58.446H32.862z"></path><path fill="#fff" d="M32.862 83.106v6.032c0 16.933 6.218 34.608 17.516 49.689 10.795 14.473 25.294 25.32 40.957 30.77v-86.49z"></path><path fill="#ca101e" d="M52.336 141.393V83.106h-19.5v6.032c0 16.933 6.218 34.608 17.515 49.689.662.873 1.323 1.72 1.985 2.566"></path><path fill="#115199" d="M71.835 159.623c6.139 4.233 12.7 7.62 19.5 9.975V83.106h-19.5z"></path><path fill="#fff" d="M44.292 47.651c-1.825-.396-2.487-.687-5.053-1.957-1.852-.927-4.234-3.996-5-5.08l-.107-.16-.132-.132-1.138-1.005v41.17H53.13V57.07c0-5.927-5.768-8.758-8.837-9.42" data-source="https://football-logos.cc"></path><path fill="#115199" d="M43.975 49.186c-2.011-.45-2.805-.794-5.424-2.09-2.62-1.323-5.583-5.583-5.583-5.583l-.08-.08v39.053h18.707V57.071c-.053-5.266-5.61-7.435-7.62-7.885"></path><path fill="#fff" d="M91.309 80.486V39.635l-.98.661-.21.159-.16.211c-.026.027-2.302 3.07-4.762 4.445-2.25 1.27-4.101 1.853-5.61 2.355-.264.08-.528.159-.767.238-1.799.609-3.333 1.508-4.55 2.726-2.144 2.116-3.255 4.92-3.255 8.387v21.67z"></path><path fill="#115199" d="M91.309 80.486V41.54l-.08.052s-2.46 3.334-5.238 4.895c-2.805 1.561-5.08 2.196-6.641 2.699-1.561.53-6.72 2.54-6.72 9.604v21.67h18.679z"></path><path fill="#fff" d="M69.004 53.26c-.397.106-.926.16-1.455.239-1.138.158-2.434.317-3.492.873-1.376.714-2.752 2.037-3.731 3.545-.582.9-1.773 2.752-7.17 2.752h-1.561V80.46h21.06V57.256c0-.556-.264-1.694.477-4.075 0 0 .82-1.772.635-3.572-.53 1.085-1.27 1.773-2.064 2.329a7.3 7.3 0 0 1-2.699 1.323"></path><path fill="#cd0d24" d="M64.771 55.774c-1.244.662-2.434 1.905-3.149 3.016s-2.328 3.466-8.493 3.466v18.23h17.913V57.282c0-.846.45-2.83 1.481-4.577 0 0-1.799 1.773-3.175 2.09s-3.333.318-4.577.98"></path><g fill-rule="evenodd" clip-rule="evenodd"><path fill="#004da0" d="M70.618 9.763s-.74-.635-2.54-.979c-1.825-.37-2.328.45-2.354.741-.027.265.105.635.793.82.662.159 1.032.185 1.667.37.662.133 1.164.239 1.773.636.608.423.873 1.058.926 1.72.026.687-.159 1.402-.582 1.851-.424.477-1.111.953-2.117 1.138-.979.212-2.17.053-2.672-.053a54 54 0 0 1-1.746-.529V13.52s.185.318.82.503c.661.185 1.296.397 1.852.45.582.053 1.56.211 1.878-.08.318-.317.37-.608.291-.9-.079-.317-.29-.396-.529-.581-.264-.133-.952-.318-1.852-.503-.926-.238-.794-.159-1.137-.265-.318-.105-1.244-.767-1.482-1.428-.265-.662-.344-1.456.37-2.382.662-.846 2.593-1.243 3.757-1.164 1.138.08 2.884.715 2.884.715zm8.758-2.328v8.625h-2.09v-3.677H74.11v3.677h-2.196l-.027-8.599h2.276v3.413h3.042v-3.44zm7.434 3.625v1.375h-3.968v2.196h3.969v1.43h-6.27l-.027-8.626h6.35v1.587l-3.995.027v2.01zm1.482 5V7.435h1.985l3.704 5.741-.026-5.741h1.799l.026 8.599h-2.487l-3.28-5.292v5.292zM104.3 7.408l.026 8.626h-2.09v-3.678h-3.201v3.678h-2.196v-8.6h2.222v3.414h3.096l-.027-3.44zm1.19 0h2.25v5.583s.026 1.614 1.666 1.561c1.614-.053 1.429-1.535 1.429-1.535V7.408h2.117v6.297s.079 2.302-3.493 2.408c-3.916.08-3.969-2.302-3.969-2.302z"></path><path fill="#d7000f" d="m119.62 7.435-5.054 8.599-2.117.026 4.974-8.625z"></path><path fill="#004da0" d="M117.317 13.626v-1.587h2.725V7.435h2.25v8.599h-2.276v-2.408z"></path></g><g fill="#fff"><path d="m119.143 141.71.45-1.084c.37.132.714.132.979.026s.476-.317.661-.635c.185-.343.238-.635.185-.9a.8.8 0 0 0-.37-.528c-.132-.053-.238-.08-.37-.053s-.265.106-.424.264c-.106.106-.344.344-.688.741-.45.503-.82.794-1.164.926-.45.159-.9.159-1.323-.08a1.47 1.47 0 0 1-.635-.634c-.159-.265-.212-.582-.185-.953.026-.344.159-.74.37-1.137.344-.662.768-1.085 1.217-1.27q.715-.279 1.43.08l-.504 1.084c-.29-.106-.529-.106-.74-.027-.186.08-.37.291-.53.582-.158.318-.238.583-.185.82a.47.47 0 0 0 .238.345c.133.053.265.079.397 0q.278-.12.873-.794c.595-.674.715-.767.98-.953s.555-.29.846-.29q.437-.04.953.237c.29.16.529.397.714.688.185.318.238.635.212 1.032-.027.37-.16.794-.424 1.244-.344.661-.767 1.085-1.27 1.296-.502.265-1.058.238-1.693-.026m4.445-4.234-5.265-2.778.555-1.058 5.266 2.778zm1.112-2.063-5.266-2.778.556-1.032 4.656-.291-3.519-1.852.53-.98 5.265 2.779-.556 1.058-4.55.318 3.439 1.825zm2.645-9.71.873-.847c.503.45.794.952.873 1.455s-.026 1.058-.317 1.614c-.37.688-.926 1.138-1.64 1.35-.715.185-1.482.079-2.329-.371-.873-.476-1.429-1.058-1.693-1.773-.238-.714-.186-1.428.211-2.17.344-.634.82-1.058 1.403-1.27.344-.132.767-.132 1.243-.026l-.317 1.19c-.318-.079-.582-.052-.847.054s-.476.317-.609.608c-.211.397-.238.794-.079 1.164.159.397.53.741 1.164 1.085.662.344 1.217.477 1.614.397s.715-.317.926-.714c.159-.291.185-.582.106-.873-.053-.291-.238-.582-.582-.873m2.963-.927L125.043 122l2.064-3.915.9.476-1.509 2.83 1.164.61 1.403-2.646.9.476-1.403 2.646 1.429.767 1.56-2.937.9.476zm4.922-9.313-.53 1.006-3.81-2.011c.16.555.186 1.111.08 1.72l-.926-.477a3.2 3.2 0 0 0-.027-1.111c-.08-.45-.238-.794-.502-1.085l.423-.82zm-.397-2.196.397-1.032c.211.08.396.106.529.053a.58.58 0 0 0 .344-.317c.106-.212.106-.45 0-.688s-.477-.556-1.059-.9c.16.397.133.794-.053 1.19-.211.424-.555.689-1.058.821-.476.132-.979.053-1.482-.212-.529-.29-.873-.661-1.031-1.164s-.106-.979.158-1.482c.291-.529.715-.873 1.323-.978.582-.133 1.376.052 2.302.555.953.503 1.561 1.058 1.8 1.64s.21 1.165-.107 1.747c-.211.423-.502.688-.846.82s-.741.106-1.217-.053m-1.006-3.44c-.317-.185-.608-.238-.873-.185s-.45.186-.555.37-.106.371-.027.583.291.397.635.555c.344.186.635.239.847.186.238-.053.397-.186.502-.37s.106-.398.027-.61c-.08-.185-.265-.37-.556-.528m3.149-.662.397-1.032c.211.08.397.106.529.053a.58.58 0 0 0 .344-.317c.106-.212.106-.45 0-.688s-.476-.556-1.059-.9c.16.397.133.794-.052 1.19-.212.424-.556.689-1.059.821-.476.132-.979.053-1.481-.212-.53-.29-.874-.661-1.032-1.164s-.106-.979.158-1.482c.291-.529.715-.873 1.323-.979.582-.132 1.376.053 2.302.556.953.503 1.561 1.058 1.8 1.64s.211 1.165-.106 1.747c-.212.423-.503.688-.847.82-.318.132-.741.106-1.217-.053m-.98-3.44c-.317-.185-.608-.238-.872-.185s-.45.185-.556.37-.106.371-.026.583.29.397.635.555c.344.186.635.239.846.186.238-.053.397-.186.503-.37s.106-.398.026-.61c-.079-.185-.264-.37-.555-.529m2.937-.687.397-1.032c.264.106.502.106.714.053.212-.08.37-.186.45-.397.106-.212.132-.424.053-.662s-.265-.423-.53-.555-.502-.186-.714-.106a.75.75 0 0 0-.476.37 1.25 1.25 0 0 0-.159.503l-.767-.556q.239-.396.159-.714c-.08-.318-.186-.37-.397-.476-.185-.106-.344-.106-.503-.053s-.291.159-.37.344-.106.344-.053.529.185.344.397.503l-.662.846a2.8 2.8 0 0 1-.608-.688q-.2-.357-.16-.793c.04-.436.107-.582.265-.874q.397-.753 1.112-.952c.397-.106.74-.08 1.084.106q.675.357.715 1.35c.211-.265.503-.424.82-.504q.477-.079.953.16c.476.237.767.634.926 1.137s.079 1.005-.186 1.508c-.264.476-.608.794-1.032.979-.502.159-.952.159-1.428-.026M64.983 51.435s5.953-4.101 6.059-9.155c0 0 .344-1.799-2.435-4.815 0 0-2.196-1.614.583-3.651 2.751-2.064 4.736-1.932 4.736-1.932s-9.05-.9-11.166 1.535 1.932 4.71 2.831 5.609 2.46 1.931 2.117 4.736c-.344 2.778-2.117 7.144-2.725 7.673M53.394 41.037S50.43 41.566 50.14 44c0 0 .37 1.905 2.566 3.07 0-.054-2.646-3.837.688-6.033m1.508 9.578c.635.026 4.048.476 4.895.185.82-.291.873-1.561.873-1.746s-.794.264-.794.264l-.794-.476-.582.635s-.502-.74-.688-.847-.502 1.059-1.058 1.059c0 0-1.402.423-3.095-1.747 0-.052.608 2.62 1.243 2.673"></path><path d="M88.901 36.962c-4.022-6.244-11.139-7.91-11.139-7.91-.979 1.428-3.148 1.454-3.148 1.454-3.678.424-4.551-2.434-4.551-2.434 2.037-1.243 3.889-.555 4.498-.45s1.137-.079 1.137-.079c-.29 1.746-2.566 2.25-2.566 2.25 2.91.184 3.545-.715 4.577-1.932 1.032-1.244.344-2.461.344-2.461s-.185.344-1.138.609-1.587-.292-3.492-.635-2.725.423-5.292-.37-4.55-1.006-5.688-1.006-4.366.74-6.165 1.243c-1.826.476-3.89 1.297-5.212 1.932s-1.059 1.878-1.297 1.931c-.238.08-.873.08-1.217.08s-.635.343-.952.635-.609.476.026.926.45.635.08.476-.424-.08-.98-.159c-.582-.08-.052.344.16.714.184.37.105.265-.424.027-.53-.212-1.429 0-1.958.026s-2.91 3.705-2.91 3.705c-.609 1.825.82 1.11.82 1.11l.37-.475c.37-.477.265-.9 1.402-1.244s1.614.026 1.588.212-.688.026-1.085.079c-.423.026-.264.9-1.058 1.931-.794 1.059-.291 1.456.9 2.752 1.216 1.297 4.021 3.837 4.021 3.837 1.746-2.726 2.62-3.837 4.948-3.837 2.355 0 4.498 2.064 6.826 5.345 2.302 3.28 1.058 5.186.423 5.98s-2.302.793-3.175.793-1.905-.344-2.619-.45-.714.556-.53.98c.186.396.45.29.239 3.015-.238 2.726 1.667 2.382 1.667 2.382 2.91.185 3.545-1.535 4.392-3.334.82-1.8 2.699-2.117 2.699-2.117 1.667-1.64 2.91-4.92 3.28-8.07s-2.09-4.444-3.016-4.894c-.952-.45-1.958-1.27-2.646-1.72s-4.048-4.895 2.276-6.694 16.51 1.455 16.51 1.455-3.81-.08-6.88.715-3.254 3.466-3.254 3.466c8.52 9.048-5.556 15.636-5.556 15.636 7.276 0 9.869-4.021 11.589-7.381 1.693-3.36-1.561-7.911-1.561-7.911 3.863-5.133 14.737-.133 14.737-.133m-33.787-6.985-1.429-1.323s1.8-1.27 3.89-1.27c.026.027-1.773 1.482-2.461 2.593"></path><path fill-rule="evenodd" d="M68.37 69.48v2.143h-7.806v5.635h-4.789l-.026-13.6 13.811-.026v2.143h-8.996v3.705zm21.404-2.514v-2.514S87.5 63.05 82.63 63.447c-4.894.397-6.932 2.037-8.308 4.868-1.322 2.805-.264 6.35 4.445 8.229 4.763 1.852 9.949.37 11.325-.767v-2.91s-1.64 2.063-5.292 2.142c-3.651.027-6.8-2.063-6.615-4.498s1.244-4.497 6.165-5.053c3.149.053 5.424 1.508 5.424 1.508M50.298 64.69v2.911s-2.99-1.217-5.027-1.455H42.6s-1.72.211-2.037 1.138c0 .396.158 1.005 1.799 1.217s7.09.82 7.937 2.513c.847 1.429 1.085 3.149-1.376 4.948 0 0-2.17 1.27-4.656 1.27s-3.493-.027-3.493-.027-2.196-.132-4.55-1.005v-2.963s3.783 1.349 5.344 1.455c1.561.08 2.593.08 2.593.08s1.535-.054 2.01-1.033c0-.344.133-.238 0-.688-.37-.264-.131-.502-2.91-.926s-6.217-.846-7.25-3.254c-.21-.45-.131-1.19.054-2.222.529-.794 1.428-2.593 5.98-2.91h3.254s2.698.026 5 .952" clip-rule="evenodd"></path></g><path fill="#115199" d="M184.918 152.638c-.714-1.773-3.333-4.524-5.953-11.35s-2.963-6.694-4.55-12.462c0 0-1.826-2.09-6.033-1.456-4.207.662-19.05 8.123-18.018 14.95.317 2.09 2.857 3.016 2.857 3.016l1.773 3.201s-21.59 10.028-62.389 10.028-62.389-10.028-62.389-10.028l1.773-3.201s2.567-.926 2.858-3.017c1.058-6.826-13.812-14.287-18.018-14.949s-6.033 1.456-6.033 1.456c-1.561 5.768-1.931 5.635-4.55 12.461s-5.213 9.578-5.954 11.351c-.714 1.773 0 2.487.873 3.784 1.746 2.275 5.027 2.196 5.027 2.196.715-3.996 2.567-8.467 2.567-8.467 2.698.582 6.482 3.73 6.482 3.73-2.09 1.562-6.826 9.79-.344 13.627 6.456 3.836 39 16.007 77.682 16.007s71.226-12.144 77.681-16.007c6.456-3.837 1.747-12.065-.344-13.626 0 0 3.81-3.149 6.483-3.731 0 0 1.825 4.445 2.566 8.467 0 0 3.281.08 5.027-2.196.926-1.297 1.64-2.011.926-3.784"></path><g fill="#fff" data-source="https://football-logos.cc"><path d="M19.765 142.002c-.026-.053-.105-.053-.132.026l-.344 2.064c-.053.291.027.582.212.82 1.085 1.455 2.408 3.308 6.191 5.398 4.101 2.275 32.332 11.456 66.94 11.456s62.812-9.18 66.94-11.456c3.783-2.09 5.132-3.969 6.19-5.398.186-.238.239-.529.212-.82l-.344-2.064c0-.053-.106-.079-.132-.026-.53.952-3.202 5.45-7.938 7.17-5.344 1.932-30.189 10.742-64.928 10.742s-59.585-8.837-64.93-10.742c-4.735-1.72-7.407-6.218-7.937-7.17m-4.921-4.868c-2.302-.053-3.942-3.281-3.942-3.281-5.795 15.081-8.017 16.774-8.678 17.621-.662.82-1.879 1.19-.953 3.44.926 2.222 4.392 2.883 4.392 2.883 2.884-14.605 9.181-20.663 9.181-20.663"></path><path d="M16.008 152.85c.318-.318.424-.926.477-1.35a.78.78 0 0 0-.318-.688c-1.931-1.402-5.371-3.042-6.218-3.466-.132-.079-.317-.052-.45.053-.317.291-.502.794-.582 1.138a.34.34 0 0 0 .239.423c2.91.926 5.635 3.202 6.376 3.863.106.16.318.16.476.027m-4.656-20.744c1.508-1.322 3.095-1.905 6.588-1.005 3.677.953 9.26 4.895 11.88 7.09s2.354 6.298 2.354 6.298c2.09-.53 2.62-3.413-1.058-7.435s-12.144-7.779-15.028-8.043a6.9 6.9 0 0 0-4.604 1.243.62.62 0 0 0-.238.424l-.132 1.35c0 .078.132.131.238.078"></path><path d="M24.157 136.393c-1.481-.053-2.804.74-2.963 2.222-.132 1.164-.185 2.831-.212 3.52 0 .184.053.37.16.528 2.91 4.154 8.095 6.06 8.095 6.06.397-1.086 1.032-1.985 1.456-2.54a.371.371 0 0 0-.265-.61c-1.64-.184-2.249-.82-3.043-1.613-.926-.926-1.005-4.075-.952-5.107.053-1.058-.767-2.434-2.276-2.46m144.225 28.76c-2.355 1.19-31.856 15.346-75.75 15.346s-73.396-14.155-75.75-15.346-4.446-4.075-3.15-8.255c0 0-1.957 2.566-1.322 5.186.661 2.62 3.545 4.577 6.032 5.582 2.488.98 30.295 14.42 74.19 14.42s71.702-13.44 74.189-14.42 5.37-2.963 6.032-5.582-1.323-5.186-1.323-5.186c1.323 4.207-.767 7.09-3.148 8.255m14.658-13.706c-.662-.82-2.884-2.54-8.679-17.62 0 0-1.64 3.2-3.942 3.28 0 0 6.297 6.085 9.181 20.664 0 0 3.466-.661 4.392-2.884.926-2.249-.29-2.62-.952-3.44"></path><path d="M175.79 147.426c-.106-.106-.29-.132-.45-.053-.846.397-4.286 2.064-6.217 3.466a.78.78 0 0 0-.318.688c.027.423.132 1.005.476 1.35.133.132.344.132.503.026.741-.662 3.44-2.937 6.377-3.863a.34.34 0 0 0 .238-.424c-.133-.396-.318-.926-.609-1.19m-22.701-2.99s-.265-4.101 2.355-6.297 8.228-6.112 11.88-7.09c3.492-.9 5.08-.318 6.588 1.005.079.079.211 0 .211-.106l-.132-1.35a.7.7 0 0 0-.238-.423 6.9 6.9 0 0 0-4.604-1.244c-2.884.265-11.35 4.022-15.028 8.044-3.651 4.048-3.122 6.932-1.032 7.461"></path><path d="M154.809 145.52a.38.38 0 0 0-.265.61 9.2 9.2 0 0 1 1.455 2.54s5.186-1.906 8.097-6.06a.95.95 0 0 0 .158-.529c-.026-.661-.079-2.355-.211-3.519-.186-1.481-1.482-2.275-2.964-2.222s-2.328 1.402-2.275 2.46-.053 4.207-.953 5.107c-.793.82-1.402 1.455-3.042 1.614M60.3 173.143c-.212 0-.45-.026-.688-.053a5.6 5.6 0 0 1-2.011-.635 5.5 5.5 0 0 1-1.64-1.296l1.296-1.19c.37.37.767.687 1.164.952.423.264.9.45 1.455.503.133.026.265.026.37.026.265 0 .503-.053.662-.132.265-.133.423-.344.476-.662.027-.159 0-.29-.026-.423s-.132-.238-.265-.344-.317-.238-.555-.344a5.4 5.4 0 0 0-.926-.397 18 18 0 0 1-1.217-.556c-.344-.185-.662-.396-.874-.635-.238-.238-.396-.502-.502-.82s-.133-.714-.053-1.137c.053-.424.185-.794.37-1.112s.45-.555.768-.767.661-.344 1.058-.423c.212-.053.45-.053.714-.053.185 0 .397.026.609.053a4.9 4.9 0 0 1 1.799.555 5.8 5.8 0 0 1 1.376 1.006l-1.164 1.296c-.37-.317-.715-.582-1.085-.794s-.767-.37-1.19-.423c-.133-.026-.239-.026-.345-.026q-.396 0-.635.158a.75.75 0 0 0-.397.582c-.026.186 0 .344.027.45a.76.76 0 0 0 .29.37c.133.107.345.239.61.345q.357.158.952.397c.45.185.847.37 1.19.582.344.185.609.423.847.661.212.238.37.503.45.794s.106.635.053 1.032q-.08.714-.397 1.19c-.317.476-.476.582-.794.794a2.9 2.9 0 0 1-1.111.397 2.5 2.5 0 0 1-.661.08m5.98-8.362 1.904.16-.317 3.65 3.942.344.291-3.677 1.905.132-.767 9.155-1.879-.16.291-3.73-3.916-.317-.29 3.73-1.906-.158zm47.307.662.45 9.155-1.88.105-.21-3.757-3.917.212.186 3.73-1.905.106-.45-9.154 1.878-.106.212 3.678 3.916-.186-.185-3.704zm-31.909 9.736-.53-2.116-3.386-.159-.794 2.064-1.931-.08 3.757-9.075 2.222.08 2.805 9.392zm-3.281-3.915 2.275.106-.793-3.943zm44.397 2.195-.9-1.984-3.36.477-.397 2.17-1.905.29 1.985-9.63 2.196-.344 4.524 8.678zm-3.969-3.227 2.276-.318-1.535-3.704zm-31.194-3.995 3.784 6.35.079-6.297 1.746.026-.106 9.181-1.984-.026-3.836-6.536-.08 6.483-1.746-.027.106-9.18zm12.171 9.313c-.609 0-.873-.106-1.455-.317s-1.112-.53-1.535-.953a4.6 4.6 0 0 1-1.032-1.482c-.238-.555-.37-1.19-.397-1.878s.08-1.297.318-1.879.555-1.085.979-1.534.926-.794 1.508-1.059 1.217-.397 1.931-.423h.212c.344 0 .635.026.926.053.344.053.662.132.953.212.29.105.555.211.82.37.238.132.476.291.688.476l-1.164 1.482c-.16-.132-.318-.238-.503-.344s-.37-.212-.582-.291c-.185-.08-.424-.132-.635-.185a4.4 4.4 0 0 0-.635-.053h-.106c-.37 0-.741.106-1.085.264-.317.16-.608.397-.847.662s-.423.608-.555.952c-.132.37-.185.741-.185 1.165 0 .45.079.873.238 1.217q.237.555.635.952c.398.397.582.476.926.609.08.026.132.053.185.079.159.08.265.106.53.106h.079c.767-.027 1.428-.238 1.957-.635l.027-.027-.027-1.455-2.063.053-.027-1.614 3.89-.08.079 3.943c-.45.397-1.005.767-1.64 1.058s-1.403.45-2.223.477zm25.712-11.892 1.886-.269 1.294 9.09-1.886.268zm-91.302 1.256c-1.244-.556-1.905-2.302-2.064-3.625-.027-.238-.053-.503-.08-.74v-.054a5.18 5.18 0 0 0-.29 4.207c.211.609.555 1.19.978 1.667.08-.026.133-.026.186-.053.688-.265 1.137-.767 1.27-1.402m6.694-1.879c-.477-.08-.9.159-1.191.37.132.9-.53 1.88-1.244 2.673-.661.82-1.878 1.535-2.778 1.958a5.14 5.14 0 0 0 2.752-.212 5.25 5.25 0 0 0 3.387-4.074c-.212-.424-.53-.662-.926-.715"></path><path d="M38.101 165.761c.979-1.217 1.508-2.196.767-3.016-.185-.185-.555-.45-.979-.423-.344.026-.661.212-.926.582.106.37 0 .82-.238 1.243-.264.45-.661.768-1.058.874a2.3 2.3 0 0 1-.953.026c-.185.794-.74 1.402-1.56 1.693.502.477 1.11.82 1.746 1.059 1.058-.344 2.513-1.19 3.201-2.038m-2.566-6.085c.476-.423 1.19-.53 1.905-.53.423 0 .846.054 1.243.107.9.158 1.905.582 2.672 1.19a5.204 5.204 0 0 0-6.297-2.46 1.24 1.24 0 0 0-.185 1.084c.053.292.318.556.662.609"></path><path d="M33.021 162.666c.53 1.402 1.482 2.09 2.54 1.878.238-.053.53-.264.714-.582.186-.264.239-.582.212-.846-1.243-.397-1.693-1.588-1.482-2.54.053-.186.106-.318.186-.477a1.83 1.83 0 0 1-.82-.793 1.54 1.54 0 0 1-.106-1.032c-.688.37-1.297.9-1.773 1.508.026.185.053.37.053.555.106.794.185 1.562.476 2.329"></path><path d="M35.508 160.681a1.67 1.67 0 0 0 1.085 1.932c.344-.476.794-.714 1.27-.767.608-.053 1.138.29 1.376.555.132.159.238.291.317.45.291-.185.715-.37 1.164-.37h.186c.37.053.714.185.979.476 0-.476-.053-.926-.186-1.376-.608-.873-1.984-1.64-3.201-1.852-.98-.132-2.752-.238-2.99.952m117.554-.264v.08c-.026.237-.052.502-.079.74-.159 1.323-.82 3.043-2.064 3.598.133.635.582 1.138 1.244 1.376.08.027.132.053.185.053.423-.503.767-1.058.979-1.667.53-1.35.397-2.884-.265-4.18m-6.429 5.609c-.661-.82-1.323-1.773-1.217-2.672a1.45 1.45 0 0 0-1.19-.37c-.397.052-.741.317-.953.74.317 1.879 1.587 3.413 3.36 4.048a5.14 5.14 0 0 0 2.752.212c-.9-.45-2.09-1.164-2.752-1.958"></path><path d="M150.417 164.994a2.3 2.3 0 0 1-.953-.026c-.397-.106-.794-.424-1.058-.847-.238-.423-.344-.847-.238-1.217-.265-.37-.556-.556-.926-.582h-.08c-.397 0-.74.212-.9.423-.74.82-.211 1.773.768 2.99.688.847 2.117 1.667 3.201 2.037.635-.211 1.218-.582 1.747-1.058-.82-.318-1.403-.953-1.561-1.72m-.821-5.371c.318-.08.583-.317.715-.635.132-.344.08-.74-.159-1.085a5.4 5.4 0 0 0-1.693-.29 5.25 5.25 0 0 0-4.604 2.751c.767-.582 1.773-1.032 2.646-1.19 1.005-.133 2.328-.186 3.095.45"></path><path d="M150.126 160.523c.211.952-.212 2.143-1.482 2.54-.053.238.053.529.212.846.185.318.476.53.714.582 1.058.239 1.984-.476 2.54-1.878.291-.767.37-1.535.45-2.328.026-.186.053-.37.053-.556a5.1 5.1 0 0 0-1.773-1.508c.106.344.053.714-.106 1.032-.159.37-.45.635-.82.793.106.16.185.291.212.477"></path><path d="M145.575 162.825c.08-.16.159-.291.317-.45.265-.291.794-.609 1.376-.556.503.027.926.291 1.27.767a1.64 1.64 0 0 0 1.085-1.905c-.265-1.19-2.011-1.11-3.043-.926-1.19.186-2.566.98-3.201 1.852-.133.45-.159.9-.159 1.376.265-.264.609-.45.979-.476.53-.132 1.058.08 1.376.318"></path></g><!-- source: https://football-logos.cc --></svg>