<svg xmlns="http://www.w3.org/2000/svg" viewBox="0 0 87.64 115.35"><!-- Source: https://football-logos.cc --><path fill="#fff" d="m43.818 108.185 38.577-22.379V4.927H5.24v80.88z" data-source="https://football-logos.cc"></path><path fill="#fccf00" d="M0 0v89.07l43.818 26.283L87.635 89.07V0zm84.653 87.108-40.835 23.697L2.983 87.108V2.653h81.686v84.455z"></path><path d="M2.983 2.653v84.455l40.835 23.697 40.835-23.697V2.653zm79.412 83.153-38.577 22.379L5.24 85.806V4.927h77.155z"></path><path d="M43.818 39.797c-14.304 0-25.905 11.601-25.905 25.905s11.6 25.905 25.905 25.905c14.303 0 25.905-11.601 25.905-25.905S58.12 39.797 43.818 39.797m1.07 5.833 7.598-3.955a25.6 25.6 0 0 1 11.502 8.339l-1.417 8.454-6.064 1.993-11.651-8.47zm-9.755-3.938 7.614 3.971-.05 6.361-11.618 8.437-6.03-1.96-1.418-8.438a25.44 25.44 0 0 1 11.502-8.371m-12.49 38.363a25.47 25.47 0 0 1-4.384-13.48l6.146-6.048 5.999 1.945 4.466 13.743-3.708 5.109zm28.277 10.2c-2.257.66-4.63 1.022-7.102 1.022s-4.845-.379-7.086-1.038l-3.84-7.68 3.724-5.124H51.02l3.74 5.108zm5.57-8.948-3.774-5.157 4.433-13.645 6.064-1.994 6.13 6.015c-.164 4.993-1.713 9.64-4.35 13.513z" data-source="https://football-logos.cc"></path><g fill="#231815"><path d="M12.376 69.508c.099.05.197.083.263.083h.199a.84.84 0 0 0 .362-.083.8.8 0 0 0 .263-.214c.066-.099.116-.181.165-.296.033-.1.066-.215.099-.363l.165-.84q.099-.495.445-.495h.05q.296 0 .444.198c.115.148.165.346.181.577a1 1 0 0 1-.164.626c-.116.181-.297.264-.528.297h-.05l.017.412h.05c.346-.017.61-.149.79-.412.182-.264.264-.577.231-.94-.016-.23-.049-.428-.131-.593-.083-.165-.182-.297-.297-.362a1.2 1.2 0 0 0-.33-.165c-.098-.033-.214-.05-.313-.033-.247.016-.445.099-.56.247a1.4 1.4 0 0 0-.247.593l-.148.758c-.083.445-.264.676-.528.692h-.033a.42.42 0 0 1-.33-.131.8.8 0 0 1-.23-.314 1.6 1.6 0 0 1-.082-.379c-.017-.395.05-.692.214-.873.132-.148.33-.214.593-.23h.05l-.017-.413h-.05c-.411 0-.708.132-.906.412-.181.264-.28.627-.247 1.055.017.23.05.428.115.61.066.181.132.296.215.379.082.082.18.148.28.197m3.048.528-3.378.56-.05.017.083.395 1.615-.264.313 1.895-1.565.264h-.05l.066.412 3.378-.577h.05l-.083-.412-1.433.248-.33-1.896 1.4-.23h.05zm1.039 4.812-.116-.38v-.032l-3.658-.363h-.066l.132.429 1.12.098.412 1.418-.873.675-.017.017.116.428 2.933-2.257zm-.544-.083-1.335 1.005-.33-1.153zm-1.978 3.461 2.554-1.088-1.796 2.818-.016.033.165.38 3.147-1.32.05-.032-.165-.363-2.555 1.071 1.797-2.817.016-.017-.165-.395-3.164 1.334-.033.017zm5.026 2.504-.576-1.021-.017-.033-2.966 1.697-.033.017.61 1.055c.346.56.758.84 1.269.84.313 0 .659-.099 1.021-.313.956-.56 1.203-1.318.692-2.241m-.708-.527.313.56c.23.413.313.759.23 1.055s-.329.56-.757.808c-.429.247-.791.33-1.072.247q-.444-.123-.79-.742l-.314-.56zm2.291 5.916c.197-.149.345-.314.477-.495s.23-.38.28-.593a1.5 1.5 0 0 0 .017-.66 1.6 1.6 0 0 0-.313-.659c-.214-.28-.462-.478-.758-.56a1.53 1.53 0 0 0-.857-.05c-.28.067-.56.198-.808.396a2.15 2.15 0 0 0-.61.676 1.5 1.5 0 0 0-.197.84c.016.297.132.593.33.874.164.214.346.362.543.477s.412.165.626.165h.033c.198 0 .412-.033.61-.099.23-.066.445-.164.626-.313m.411-1.665a1 1 0 0 1-.033.494c-.05.165-.131.313-.23.445a1.7 1.7 0 0 1-.38.38 2 2 0 0 1-.477.263q-.247.099-.495.099h-.033a.9.9 0 0 1-.445-.116 1.1 1.1 0 0 1-.428-.362 1.2 1.2 0 0 1-.23-.511 1 1 0 0 1 .032-.494c.05-.165.132-.313.231-.445s.23-.264.379-.38a2 2 0 0 1 .478-.263q.248-.099.494-.099h.033c.149 0 .313.033.462.116.164.082.313.197.428.362.099.165.181.346.214.51m1.353 1.04-2.456 2.373-.033.033.28.297 1.994-1.928-.659 3.279v.016l.264.28.033.034 2.455-2.373.033-.033-.28-.297-1.994 1.928.66-3.28v-.016l-.264-.28zm3.641 3.345c-.263-.214-.56-.346-.873-.362h-.148a1.5 1.5 0 0 0-.709.165c-.264.131-.494.33-.692.576a2 2 0 0 0-.412.808c-.082.28-.066.577.016.857.083.296.264.544.544.774.215.165.429.28.676.313q.297.05.593-.05l-.296.43.247.197 1.104-1.368.033-.033-1.154-.922-.033-.033-.23.28.89.725q-.322.396-.742.445c-.297.05-.577-.05-.857-.264a1.1 1.1 0 0 1-.346-.445 1.3 1.3 0 0 1-.099-.494c.017-.165.05-.33.115-.495a2 2 0 0 1 .28-.461 1.692 1.692 0 0 1 .857-.577c.164-.05.33-.05.511-.016s.346.115.511.247c.23.181.363.395.412.66.05.246.017.46-.099.625l-.016.033.33.264.032-.05c.182-.33.231-.659.149-.972a1.8 1.8 0 0 0-.594-.857m4.878 3.708.033.017.181-.314-2.373-1.334-.032-.033-.182.313 1.022.577-1.5 2.67-.016.049.362.197 1.516-2.702zm-1.4 2.703-.05.05.396.18.79-.79 1.352.593-.05 1.104v.033l.396.181.165-3.691v-.033l-.38-.165zm1.417-.857 1.186-1.187-.099 1.665zm2.146 2.418 1.15-3.263.39.137-1.151 3.264zm3.424-2.632a1.3 1.3 0 0 0-.61-.05c-.181.017-.33.082-.445.165s-.198.165-.247.264a1 1 0 0 0-.132.28c-.066.247-.05.445.066.61.099.164.264.296.478.428l.675.379c.396.214.56.461.495.725a.5.5 0 0 1-.23.313.8.8 0 0 1-.38.132c-.132 0-.264 0-.379-.033-.379-.099-.643-.264-.758-.478-.099-.165-.115-.379-.033-.626l.017-.05-.396-.098-.016.032c-.132.396-.083.726.115.99.198.263.494.444.923.56.197.049.379.082.544.082h.065c.182 0 .33-.033.429-.082.099-.05.198-.116.28-.198a.9.9 0 0 0 .165-.231c.033-.066.05-.132.066-.181.033-.132.05-.264.033-.38s-.066-.23-.132-.312a1 1 0 0 0-.23-.231 1.7 1.7 0 0 0-.314-.198l-.742-.412c-.296-.165-.395-.346-.346-.577.05-.214.165-.346.33-.395.165-.066.379-.05.61 0q.346.099.544.346c.131.165.164.363.115.593l-.017.05.347.099.049.016.016-.05a.96.96 0 0 0-.148-.873c-.181-.346-.461-.527-.807-.61m1.433 3.988.412.05.231-1.615 1.912.28-.231 1.566-.017.049.412.05.495-3.379v-.05l-.412-.049-.198 1.45-1.895-.28.198-1.4v-.05l-.396-.066-.494 3.395zm5.388-2.949-.411-.017-1.467 3.362-.033.066.445.016.445-1.038 1.483.05.38 1.054.444.017-1.252-3.477zm.314 2.06-1.203-.033.66-1.55zm2.109 1.384-.247-2.769 2.126 2.588.016.016.429-.05-.297-3.394V95l-.412.033.247 2.769-2.125-2.587-.017-.017-.428.033.296 3.411v.05zm5.158-.709.396-.115-.396-1.55 1.533-.395h.033l-.083-.362-1.565.395-.28-1.087 1.714-.445h.049l-.099-.363-2.11.544-.049.017.84 3.312zm4.944-4.12c-.148-.18-.297-.313-.478-.428s-.395-.181-.626-.198a1.6 1.6 0 0 0-.725.116 1.56 1.56 0 0 0-.758.56c-.182.247-.28.527-.28.824a2.1 2.1 0 0 0 .148.89c.115.296.28.56.478.758.198.214.461.346.758.428.115.033.214.033.33.033.197 0 .395-.033.61-.115.246-.1.444-.23.609-.396.165-.164.28-.362.346-.56s.082-.412.082-.643a2.5 2.5 0 0 0-.148-.675 1.8 1.8 0 0 0-.346-.594m-1.137-.263c.181.016.33.082.478.165.132.098.263.214.362.346a1.9 1.9 0 0 1 .346 1.516.86.86 0 0 1-.247.445 1.3 1.3 0 0 1-.478.313 1.4 1.4 0 0 1-.56.082 1.2 1.2 0 0 1-.478-.165 1.8 1.8 0 0 1-.362-.346 1.9 1.9 0 0 1-.38-1.005c-.016-.181 0-.346.05-.51a.86.86 0 0 1 .247-.446c.116-.132.28-.23.478-.313.181-.066.363-.099.544-.082m4.911-.939a2 2 0 0 0-.412-.544c-.165-.149-.346-.28-.544-.363s-.412-.132-.643-.115q-.345.024-.692.198a1.54 1.54 0 0 0-.676.659c-.148.263-.197.56-.18.84.016.297.115.577.263.857s.346.51.577.692.494.297.807.33h.148a1.74 1.74 0 0 0 1.335-.66c.148-.18.23-.395.264-.593a2.1 2.1 0 0 0 0-.642 2.5 2.5 0 0 0-.247-.66m-1.55-.643a.9.9 0 0 1 .462.115c.148.083.28.181.412.297.115.132.23.263.313.428s.148.33.181.511c.033.165.05.346.017.511a1 1 0 0 1-.181.461c-.1.149-.248.264-.429.363s-.362.148-.544.148a1 1 0 0 1-.494-.115 2.4 2.4 0 0 1-.412-.297 2.6 2.6 0 0 1-.313-.428 2 2 0 0 1-.181-.511 1.3 1.3 0 0 1-.017-.51c.017-.166.083-.314.181-.462.1-.149.248-.264.429-.363s.362-.148.544-.148zm4.186.957-1.763-2.571.972-.66-.197-.296-2.275 1.566.198.296.972-.659 1.764 2.554zm3.131-3.494a.7.7 0 0 0-.132-.181.84.84 0 0 0-1.005-.247.74.74 0 0 0 .066-.38.83.83 0 0 0-.198-.494.77.77 0 0 0-.461-.28.85.85 0 0 0-.494.05 1.8 1.8 0 0 0-.462.296l-1.087.923-.033.033 2.224 2.604.033.033 1.12-.956c.166-.149.281-.28.38-.429a.9.9 0 0 0 .165-.379c.016-.115.016-.214-.017-.33s-.066-.197-.099-.263m-1.483 1.813L63 90.305l.808-.692c.214-.181.395-.28.576-.297.182-.016.33.05.462.198s.181.297.165.445q-.025.296-.396.593zm.05-2.39c-.033.149-.132.313-.313.462l-.808.692-.725-.84.807-.693c.182-.165.363-.247.511-.247s.28.066.412.214c.116.132.149.264.116.412m1.087-2.966-.263.28-.017.017 1.599 3.378.28-.297.016-.016-.494-1.005 1.005-1.088 1.022.395.033.017.296-.33-3.444-1.35zm1.764 1.137-.824.874-.726-1.517zm3.526-2.175-.28-.214-1.154 1.5-2.472-1.863-.247.33 2.769 2.093zm.396-.676.032.017 1.187-1.928.016-.033-.313-.198-.988 1.615-2.604-1.599-.033-.016-.214.346zm2.274-7.431-.05-.017-.148.379.033.016c.263.149.461.346.577.593.115.248.115.495 0 .775a1.1 1.1 0 0 1-.33.461.96.96 0 0 1-.445.231c-.165.033-.33.05-.51.033a2.3 2.3 0 0 1-.528-.132 2 2 0 0 1-.462-.263 1.5 1.5 0 0 1-.346-.38 1.1 1.1 0 0 1-.164-.477 1.16 1.16 0 0 1 .099-.56c.098-.231.23-.396.428-.511.198-.116.428-.149.66-.116h.032l.148-.379-.049-.016c-.33-.1-.66-.05-.956.131a1.6 1.6 0 0 0-.626.742q-.198.495-.099.94c.066.296.198.56.396.774.197.214.461.379.758.494.28.116.56.165.824.165h.049c.297 0 .577-.099.824-.264.247-.164.445-.412.577-.741.148-.38.165-.725.016-1.055-.082-.346-.33-.626-.708-.824m2.142-2.636-.363-.1-.51 1.83-2.983-.857-.116.395 3.33.956zm-.626-3.609-2.126-.363h-.05l-.065.412 2.109.363c.362.05.61.18.741.362.132.181.182.429.116.742-.05.296-.181.527-.363.659-.181.132-.461.165-.824.099l-2.06-.346h-.049l-.066.412 2.175.362c.1.017.198.033.297.033.082 0 .148-.05.23-.066h.017c.165-.033.313-.05.462-.132q.42-.27.543-.939c.083-.445.017-.807-.197-1.071-.215-.297-.511-.461-.89-.527m1.4-2.934a.9.9 0 0 0-.164-.379.8.8 0 0 0-.248-.214c-.098-.05-.18-.099-.263-.115a1 1 0 0 0-.23-.033h-.067a.94.94 0 0 0-.544.181.9.9 0 0 0-.28.38.7.7 0 0 0-.23-.314.93.93 0 0 0-.495-.198.72.72 0 0 0-.527.149.7.7 0 0 0-.297.395c-.05.148-.099.33-.099.544l-.066 1.434v.05l3.412.18h.049l.082-1.466a2.2 2.2 0 0 0-.033-.594m-3.114 1.467.05-1.055c.016-.461.214-.692.576-.692h.05c.148 0 .28.066.362.198s.132.313.115.544l-.049 1.054zm1.615-1.384a1 1 0 0 1 .115-.23.5.5 0 0 1 .412-.199h.05c.197.017.346.066.445.182.131.148.18.379.164.692l-.05 1.054-1.252-.066.05-1.054c0-.116.033-.214.05-.313-.017-.017 0-.05.016-.066m.807-.412c.033.016.066.016.083.033-.017 0-.05-.017-.083-.033m-.56-.264"></path><path fill-rule="evenodd" d="M30.47 15.243h.725c0 .165.05.33.099.527s.148.462.313.791c.181.314.395.577.642.775.264.198.544.379.857.544.297.165.66.313 1.088.478.412.148.84.247 1.269.313a8 8 0 0 0 1.137.099 4.9 4.9 0 0 0 1.467-.165c.379-.132.692-.247.89-.38.214-.164.378-.312.51-.477a1.2 1.2 0 0 0 .182-.676 1.36 1.36 0 0 0-.314-.807c-.214-.247-.494-.445-.84-.61s-.923-.362-1.714-.61-1.483-.428-2.043-.56c-.577-.148-.989-.247-1.236-.313a8 8 0 0 1-.857-.33c-.33-.164-.61-.33-.857-.51s-.461-.38-.643-.594c-.164-.23-.313-.461-.412-.725s-.131-.56-.131-.873c0-.116.016-.23.032-.33.017-.082.05-.23.1-.395.065-.165.148-.38.247-.61.115-.247.313-.494.593-.692.28-.214.577-.412.923-.593s.708-.346 1.12-.429c.412-.099.742-.165.972-.181.248-.017.528-.033.808-.033.297.016.544.033.758.05.23.016.544.065.956.164.428.083.79.165 1.038.23l.79.232c.182.066.363.115.512.164.165.033.313.05.412.033a.35.35 0 0 0 .23-.066c.066-.033.116-.115.132-.214l.132-.675h.758l.115 3.79h-.758a10 10 0 0 0-.214-.692 1.7 1.7 0 0 0-.395-.676c-.165-.214-.429-.445-.808-.643-.362-.197-.708-.395-1.087-.527-.363-.148-.742-.247-1.104-.346a7 7 0 0 0-.857-.181 8 8 0 0 0-.61-.033c-.412.016-.791.05-1.137.148a2.2 2.2 0 0 0-.89.428 2.3 2.3 0 0 0-.61.594c-.132.214-.214.412-.23.61 0 .197.049.362.164.51.1.165.264.33.478.495.231.148.544.296.973.445.428.164.939.313 1.549.494.626.165 1.318.346 2.109.544s1.335.33 1.648.428.642.23 1.021.412c.363.165.66.363.907.56.23.198.428.462.577.824.164.363.247.742.23 1.121-.033.379-.165.775-.379 1.186-.23.412-.56.775-1.038 1.138-.478.346-1.055.61-1.78.774-.708.165-1.35.264-1.928.264-.346.016-.675 0-1.021-.017-.33-.033-.66-.099-.99-.181s-.708-.198-1.17-.363-.873-.313-1.219-.461c-.346-.165-.593-.264-.692-.28-.099-.05-.148-.05-.214-.05-.099 0-.165.033-.23.083s-.116.132-.149.247-.05.264-.066.461l-.05.528h-.79z" clip-rule="evenodd"></path></g><path d="M45.499 8.24v.56h1.532a.88.88 0 0 1 .873.873v7.894a.88.88 0 0 1-.873.873H45.5V19h9.294v-.56h-1.879a.88.88 0 0 1-.873-.873v-3.725h2.999c.61 0 1.055.1 1.368.313.296.198.494.544.56 1.006h.395v-3.049h-.395c-.066.461-.264.791-.56 1.005-.297.198-.758.313-1.368.313h-3V8.833h4.467c.33 0 .626.033.856.115.248.082.511.214.742.412.264.181.461.396.577.61.148.214.296.51.461.89.165.362.264.593.297.725l.082.412h.874V8.24zm29.299 8.19a5.9 5.9 0 0 1-1.697 1.483 3.94 3.94 0 0 1-1.945.51c-1.054 0-1.862-.428-2.406-1.268-.543-.84-.824-2.077-.824-3.725 0-1.565.28-2.752.84-3.576.265-.379.512-.593.693-.708.445-.264.873-.28 1.187-.297 1.318-.033 2.504.66 2.999 1.335.23.313.395.676.395.676.083.247.149.461.214.692h.758v-.165l-.115-3.527v-.098h-.758l-.132.675c-.033.116-.082.182-.132.214a.35.35 0 0 1-.23.066c-.116.017-.247 0-.412-.033a4 4 0 0 1-.511-.164l-.791-.231c-.247-.066-.61-.132-1.038-.23a31 31 0 0 0-.956-.166c-1.5-.197-2.818.38-2.818.38-.758.329-1.236.774-1.533 1.054-.28.247-.774.725-1.17 1.467-.412.774-.626 1.664-.626 2.67 0 .906.165 1.713.495 2.471.33.742.824 1.384 1.45 1.928A6.3 6.3 0 0 0 67.695 19a7.3 7.3 0 0 0 2.374.38c1.153 0 2.175-.215 3.081-.66a6 6 0 0 0 2.274-1.944zM12.227 8.24v3.724h.874l.082-.412c.033-.116.132-.363.297-.725.165-.38.313-.676.461-.89.116-.214.297-.429.577-.61a2.4 2.4 0 0 1 .742-.412c.23-.082.51-.115.856-.115h1.5v8.75a.64.64 0 0 1-.115.38c-.083.115-.165.213-.264.263s-.297.115-.577.165-.576.066-.906.066h-.906v.56h9.64v-.56h-.907c-.33 0-.61-.017-.906-.066-.28-.05-.478-.1-.577-.165-.099-.05-.18-.148-.263-.264-.066-.132-.116-.247-.116-.379V8.8h1.5c.33 0 .626.033.857.115.247.083.51.214.741.412.264.181.462.396.577.61.148.214.297.51.462.89.164.362.263.593.296.725l.083.412h.873V8.24z"></path><path fill="#e95504" d="M55.781 54.414 37.82 23.977h-9.953l22.922 38.89zm-6.987 11.832L23.878 23.977h-9.97l29.91 50.706zm6.971-42.269 8.981 15.227 8.981-15.227zm2.01 27.058 4.977-8.453-10.975-18.605h-9.97z" data-source="https://football-logos.cc"></path><!-- source: https://football-logos.cc --></svg>