<svg xmlns="http://www.w3.org/2000/svg" viewBox="0 0 185.21 185.21"><!-- Source: https://football-logos.cc --><g transform="translate(-13.23 -13.23)scale(.26458)" data-source="https://football-logos.cc"><circle cx="400" cy="400" r="350" fill="#5a0205"></circle><path fill="#fff" d="M400 739c-90.5 0-175.7-35.3-239.7-99.3S61 490.5 61 400s35.3-175.7 99.3-239.7S309.5 61 400 61s175.7 35.3 239.7 99.3S739 309.4 739 400s-35.3 175.7-99.3 239.7S490.5 739 400 739"></path><path fill="#5a0205" d="M400 726.9c-87.3 0-169.4-34-231.2-95.8-61.7-61.7-95.7-143.8-95.7-231.1s34-169.4 95.8-231.2C230.6 107 312.7 73 400.1 73c87.3 0 169.4 34 231.2 95.8 61.7 61.7 95.8 143.8 95.8 231.2 0 87.3-34 169.4-95.8 231.2s-144 95.7-231.3 95.7"></path><path fill="#be0000" d="M400 714.9c-84.1 0-163.2-32.8-222.7-92.2-59.4-59.5-92.2-138.6-92.2-222.7s32.8-163.2 92.2-222.7c59.5-59.5 138.6-92.2 222.7-92.2s163.2 32.8 222.7 92.2c59.5 59.5 92.2 138.6 92.2 222.7s-32.8 163.2-92.2 222.7c-59.5 59.4-138.6 92.2-222.7 92.2"></path><path fill="#fff" d="M400 638.7c-63.8 0-123.7-24.8-168.8-69.9s-69.9-105-69.9-168.8 24.8-123.7 69.9-168.8 105-69.9 168.8-69.9 123.7 24.8 168.8 69.9 69.9 105 69.9 168.8-24.8 123.7-69.9 168.8-105 69.9-168.8 69.9" opacity=".5"></path><path fill="#fff" d="M400 628.7c-61.1 0-118.5-23.8-161.7-67s-67-100.6-67-161.7 23.8-118.5 67-161.7 100.6-67 161.7-67 118.5 23.8 161.7 67 67 100.6 67 161.7-23.8 118.5-67 161.7-100.6 67-161.7 67"></path><path fill="#840001" d="M133.2 307.7s-22.1 96.3 2 184.5c0 .1-44.1-96.2-2-184.5m534.4 0s22.1 96.3-2 184.5c0 .1 44.1-96.2 2-184.5"></path></g><path fill="#5a0205" d="M90.7 152.215c-3.467-2.646-27.623-21.749-27.623-40.878V56.462h4.233v51.7c.026 23.892 20.24 41.592 23.39 44.053m3.545 0c3.466-2.646 27.622-21.749 27.622-40.878V56.462h-4.233v51.7c-.027 23.892-20.24 41.592-23.39 44.053"></path><path fill="#840001" d="M76.597 44.291H50.403v66.173c0 21.166 29.792 38.761 40.746 42.068 0 0-28.02-20.584-28.02-41.169V56.49h13.494v-12.2z"></path><path fill="#d00" d="M79.957 145.283c-3.995-2.329-8.255-5.239-12.091-8.493-7.118-6.033-15.61-15.479-15.61-26.326v-64.32h22.489v8.466H61.25v56.753c0 9.022 4.868 18.97 14.5 29.554a84 84 0 0 0 4.206 4.366"></path><path fill="#840001" d="M81.36 44.291v66.702c0 22.595 2.195 26.723 11.112 41.83 8.916-15.08 11.112-19.235 11.112-41.83v-54.53h18.257v54.874c0 20.584-28.02 41.195-28.02 41.195 10.954-3.307 40.746-20.875 40.746-42.068V44.29z" data-source="https://football-logos.cc"></path><path fill="#bd0102" d="M92.472 149.172c-7.25-12.356-9.26-17.145-9.26-38.153V46.143h49.503v64.32c0 10.848-8.493 20.294-15.61 26.327-3.863 3.254-8.097 6.164-12.092 8.493a98 98 0 0 0 4.233-4.392c9.631-10.61 14.5-20.532 14.5-29.554V54.61h-21.987v56.383c-.027 21.034-2.038 25.797-9.287 38.18"></path><path fill="#d00" d="M92.472 46.143v103.03c-7.25-12.357-9.26-17.146-9.26-38.18v-64.85z"></path><path fill="#fff" d="M50.8 40.349a7.7 7.7 0 0 1-3.784-1.005c-2.434-1.43-3.81-4.049-3.783-7.224.026-2.46 1.164-4.683 3.07-5.98 1.878-1.27 4.232-1.454 6.64-.528l-1.164 3.016c-1.402-.556-2.672-.476-3.651.185-1.006.688-1.614 1.932-1.64 3.334-.027 1.984.74 3.545 2.169 4.366 1.296.74 2.91.767 4.127.052 1.191-.714 1.826-2.01 1.8-3.73l3.254-.053c.053 2.884-1.19 5.292-3.387 6.588a7.13 7.13 0 0 1-3.651.979m27.887 128.005a5.56 5.56 0 0 1-1.35-2.593c-.45-2.063.318-4.127 2.064-5.715 1.376-1.217 3.175-1.72 4.816-1.322s2.937 1.587 3.651 3.386l-2.249.873c-.423-1.058-1.085-1.72-1.958-1.931s-1.878.08-2.646.767c-1.11 1.006-1.587 2.196-1.323 3.387.239 1.085 1.059 1.984 2.064 2.302s2.011 0 2.964-.9l1.666 1.746c-1.56 1.482-3.519 2.011-5.344 1.456-.9-.212-1.72-.741-2.355-1.456m66.384-18.52a5.7 5.7 0 0 1-2.91-.106c-2.011-.609-3.466-2.302-3.97-4.63-.396-1.8.08-3.599 1.218-4.842 1.164-1.244 2.831-1.773 4.736-1.509l-.344 2.408c-1.111-.159-2.037.106-2.62.741-.608.661-.846 1.667-.634 2.699.317 1.455 1.137 2.46 2.302 2.83 1.058.318 2.248.08 3.016-.66.767-.715.979-1.747.661-3.017l2.355-.582c.53 2.09.026 4.048-1.35 5.371-.66.635-1.534 1.085-2.46 1.297M58.208 20.029l-2.963 1.296 5.583 12.648 2.99-1.297-2.17-4.895 4.366-1.931 2.143 4.895 2.963-1.323-5.583-12.647-2.963 1.323 2.249 5.053-4.366 1.932zM91.202 160.02h-2.408l-.026 10.319h2.407v-3.995h3.572l-.026 3.995h2.434l.026-10.319h-2.434v4.127h-3.545zM74.718 17.436l5.874-1.19-.635-3.176-9.128 1.853 3.122 14.075 9.208-1.905-.662-3.175-6.085 1.244-.53-2.381 5.477-.926-.529-3.202-5.635.953zm26.908 144.436 4.287-.53-.265-2.301-6.667.794 1.455 10.292 6.72-.847-.29-2.328-4.446.556-.238-1.747 3.995-.344-.211-2.328-4.101.37zM93.874 20.294l-.132-7.964 3.228-.08.264 14.314-2.513-.026-5.795-8.097.212 8.229-3.254.08-.08-14.209 2.54-.106zm20.717 142.107-1.72-5.424 2.223-.688 3.042 9.763-1.72.477-5.609-4.392 1.8 5.582-2.223.715-2.884-9.71 1.72-.583zm-52.996-3.413 2.54-5.292 2.143 1.032-4.55 9.525-1.641-.846-1.164-7.276-2.567 5.476-2.17-1.005 4.63-9.393 1.72.768zm53.128-137.054a9 9 0 0 1-.74 2.408 7.7 7.7 0 0 1-1.8 2.407c-1.243 1.059-2.83 1.64-4.55 1.64-.186 0-.397 0-.583-.026-3.73-.29-7.355-3.333-7.011-7.99.344-4.71 3.969-6.88 7.408-6.932 3.678-.053 6.588 2.17 6.906 5.265l-3.228.344c-.132-1.19-1.402-2.408-3.625-2.355-1.905.027-3.995 1.059-4.207 3.916-.211 2.725 1.932 4.34 4.022 4.498 1.561.132 2.646-.503 3.334-1.455l-3.466-.715.502-2.46 3.863.794zM76.359 162.772a6.5 6.5 0 0 1-.556 1.799c-.397.82-.9 1.402-1.35 1.773-.925.793-2.116 1.217-3.36 1.217-.132 0-.29 0-.423-.027-2.751-.212-5.477-2.487-5.212-5.927.264-3.492 2.937-5.106 5.503-5.132 2.725-.027 4.895 1.614 5.133 3.915l-2.408.239c-.079-.9-1.031-1.773-2.698-1.747-1.403.027-2.964.794-3.122 2.91-.16 2.012 1.428 3.229 2.99 3.334 1.164.08 1.957-.37 2.46-1.084l-2.566-.53.37-1.825 2.857.582zm51.461-7.092c.344.61.582 1.191.688 1.72.212.9.185 1.641.08 2.223-.212 1.19-.874 2.276-1.853 3.07-.105.079-.238.184-.344.264-2.275 1.56-5.794 1.508-7.778-1.35-1.985-2.883-.9-5.82 1.058-7.434 2.09-1.747 4.815-1.826 6.43-.159l-1.72 1.693c-.635-.635-1.932-.714-3.202.318-1.085.9-1.799 2.487-.608 4.233 1.137 1.667 3.122 1.614 4.418.714.953-.661 1.297-1.534 1.244-2.407l-2.329 1.19-.846-1.64 2.593-1.35zm-5.186-122.554a7.1 7.1 0 0 1-2.857-.609l-4.974-2.17 5.238-13.387 5.45 2.328c1.747.741 3.096 2.117 3.81 3.863s.742 3.678.027 5.424a7.17 7.17 0 0 1-3.942 3.969 7 7 0 0 1-2.752.582m-3.889-4.419 2.249.98c1.032.449 2.143.449 3.201.026a4.08 4.08 0 0 0 2.25-2.25 4.115 4.115 0 0 0-2.197-5.29l-2.513-1.086zm15.743 12.065a5.5 5.5 0 0 1-3.255-1.058c-1.19-.873-1.984-2.17-2.222-3.625s.106-2.937.979-4.154l5.265-7.25 2.62 1.906-5.24 7.276a2.35 2.35 0 0 0-.423 1.72c.106.608.424 1.137.926 1.508 1.006.74 2.434.529 3.202-.477l5.556-7.276 2.593 1.958-5.556 7.276a5.57 5.57 0 0 1-4.445 2.196m-4.154 107.738 6.085 8.256 1.773-1.323-2.223-3.017 3.652-2.698-1.323-1.773-3.652 2.699-1.27-1.72 3.678-2.831-1.376-1.746zm-79.878 8.811c-3.016 0-5.45-2.434-5.45-5.45s2.434-5.45 5.45-5.45 5.45 2.434 5.45 5.45c0 2.99-2.434 5.45-5.45 5.45m0-8.705c-1.773 0-3.228 1.456-3.228 3.228s1.455 3.228 3.228 3.228 3.228-1.455 3.228-3.228-1.429-3.228-3.228-3.228m-4.286-7.037-3.122-3.017-7.038 7.488 1.614 1.508 2.355-2.487.582.53-.503 4.233 2.01 1.905.53-4.551c.423.158.873.238 1.35.211a3.26 3.26 0 0 0 2.354-1.11c1.244-1.377 1.19-3.44-.132-4.71m-1.508 3.201c-.212.238-.503.37-.82.37s-.61-.105-.847-.317l-1.508-1.402 1.64-1.747 1.508 1.456c.45.45.476 1.164.027 1.64" data-source="https://football-logos.cc"></path><!-- source: https://football-logos.cc --></svg>