<svg xmlns="http://www.w3.org/2000/svg" xml:space="preserve" viewBox="0 0 185.21 185.21"><!-- Source: https://football-logos.cc --><g transform="matrix(.26458 0 0 .26458 -13.23 -13.23)" data-source="https://football-logos.cc"><circle cx="400" cy="400" r="350" style="fill:#e3ce75"></circle><path d="M400 724.86c-86.77 0-168.35-33.79-229.71-95.15S75.14 486.77 75.14 400s33.79-168.35 95.15-229.71S313.23 75.14 400 75.14s168.35 33.79 229.71 95.15S724.86 313.23 724.86 400s-33.79 168.35-95.15 229.71S486.77 724.86 400 724.86" style="fill:#c51b1d"></path><path d="M400 618.51c-58.37 0-113.24-22.73-154.51-64s-64-96.14-64-154.51 22.73-113.24 64-154.51 96.14-64 154.51-64 113.24 22.73 154.51 64 64 96.14 64 154.51-22.73 113.24-64 154.51-96.14 64-154.51 64" style="fill:#fff"></path></g><path d="M398.4 640.51c-58.73-20.67-108.09-52.84-142.73-93.05-31.62-36.7-49.03-78.1-49.03-116.57V259.22L400 194.69l193.37 64.53v171.66c0 38.47-17.41 79.87-49.03 116.57-34.64 40.21-84 72.39-142.74 93.05l-1.6.56z" style="fill:#fff" transform="matrix(.26458 0 0 .26458 -13.23 -13.23)"></path><path d="m400 199.79-188.54 62.92v168.18c0 72.57 64.78 161.51 188.54 205.06 123.76-43.55 188.54-132.5 188.54-205.06V262.71z" style="fill:#c51b1d" transform="matrix(.26458 0 0 .26458 -13.23 -13.23)"></path><g style="opacity:.4"><path d="m342.47 496.2 12.57 50.04 24.13-34.51 35.79 22.19-8.2-50.94 29.95-23.38-53.03-8.58-23.8-33.13-11.61 35.77-42.54 32.87zM567.85 496.12c-.28-.43-.56-.84-.85-1.26-20.62-30.15-48.9-54.64-82.05-70.66-1.3-.63-2.61-1.25-3.93-1.85.86.64 54.76 41.17 47.09 66.1 0 .02 18.23 1.32 39.74 7.67" style="fill:#76171d" transform="matrix(.26458 0 0 .26458 -13.23 -13.23)"></path></g><g style="opacity:.2" data-source="https://football-logos.cc"><path d="M442.6 618.12c.86-.43 1.71-.84 2.56-1.28l8.18-21.02 26.11 1.37c.91-.6 1.82-1.19 2.72-1.8l-30.13-1.59z" style="fill:#e3ce75" transform="matrix(.26458 0 0 .26458 -13.23 -13.23)"></path><path d="M569.94 501.43c.44-.83.85-1.66 1.27-2.49-8.06-12.48-17.52-24.2-28.28-34.96-39.86-39.85-92.85-61.8-149.21-61.8s-109.35 21.95-149.21 61.8a216 216 0 0 0-20.73 24.04c.19.45.38.9.58 1.34 0 0 0 .01-.01.01.08.18.16.35.24.53.1.24.2.47.3.71l.01-.01c1.36 3.11 2.82 6.22 4.39 9.32 4.83-5.34 10.67-11.42 14.56-14.34-.16.42-4.22 10.12-8.6 25.25 1.29 2.19 2.63 4.38 4.01 6.56 7.37-10.23 18.01-24.49 26.9-34.5l-4.86 62.19-.68.7c.43.48.85.97 1.29 1.45l1.02-1.04.24-.25 4.66-59.67 27.98 37.3 42.9-24.25-19.55 52.13 28.42 40.73-27.64 4.61c.79.52 1.6 1.04 2.4 1.57l28.59-4.77-29.6-42.42 20.32-54.19.03.01 12.95 51.53 21.89-31.31 16.05 32.31-39.53 43.16 50.73 4.97 16.93 30.37q.915-.375 1.8-.75l-17.53-31.43-47.89-4.7 37.81-41.28-17.1-34.46 1.66-2.37 36.81 22.83-2.23-13.87 8.86 3.35 41.4-30.11-.95 55.49 32.32 35.19c.52-.38 1.04-.77 1.56-1.16l-31.93-34.77.97-57.63c14.5 14.51 29.96 49.3 29.96 49.3 3.87-16.44 2.9-46.41 2.9-46.41 5.8-3.87 27.07-6.77 27.07-6.77-24.17-23.2-42.54-28.04-42.54-28.04-3.87-9.02-12.88-22.33-18.47-30.2l35.87 25.37s-6.57-13.65-16.06-28.88c12.89 10.46 48.35 41.5 42.2 61.48l-.36 1.16 1.22.09c.13.01 7.11.54 17.41 2.41l.01 1.46c0 .19.01 18.21-3.43 33.98-5.8-5.02-30.05-25.78-39.55-30.97l-2.56-1.39 23.35 50.77-1.25 18.12c.7-.66 1.39-1.31 2.08-1.98l1.14-16.5-21.03-45.7c12.07 7.81 37.5 29.93 37.77 30.18l1.21 1.05.37-1.56c2.7-11.46 3.5-24.43 3.74-31.25l9.92 24.71c.44-.65.88-1.3 1.31-1.94l-11.53-28.69c5.88 1.11 12.73 2.64 19.96 4.74.99 1.49 2 3.01 2.97 4.54m-273.62 19.62L267 481.94c.68-.75 1.34-1.48 2-2.17 0 0 23.2-1.93 35.77-1.93 0 0-11.6-9.67-6.77-30.94 0 0 6.77-7.73 32.85-25.13-.71.24-19.44 6.84-26.09 10.63 0 0 .2-3.48.58-8.27a207 207 0 0 1 19.59-7.97c3.71.75 7.38 1.66 9.8 2.7 0 0-10.64 11.6-15.47 34.81 0 0 15.83-12.21 38.73-33.13l-10.56 32.55-43.86 33.89 36.19 9.52zm117.34 10.93-34.76-21.56-2.11 3.02-1.27 1.81-20.06 28.7-12.19-48.54-.95-.25.05-.14-.18.11-34.31-9.03 40.98-31.67.24-.18L360.2 420l22.92 31.91 51.24 8.3-28.65 22.36 5.85 36.43.36 2.2zm8.92-8.83-8.91-3.36-5.85-36.39 30.04-23.45-19.97 28.53c16.34-.86 41.84 2.87 47.28 3.7zm38.51-100.79-53.06 1.32 51.65 3.74-3.12 15.59c-13.54-9.67-38.67-18.37-38.67-18.37 11.3 12.17 18.69 30.57 20.07 34.17l-53.72-8.71-24.68-34.35-1.21 3.73c-18.22 10.28-30.37 20.63-30.37 20.63s4.83-15.47 12.57-23.2c0 0-5.06-1.19-11.7-2.08 20.67-6.74 42.51-10.24 64.88-10.24 27.55 0 54.28 5.31 79.03 15.44 7.55 7.95 15.76 17.69 20.55 26.86zM546.13 490l-.7-1.73.01 1.61c-7.83-1.41-13.71-2.04-16.09-2.27 2.5-10.66-4.62-24.89-21.18-42.29-6.83-7.17-13.97-13.47-19.13-17.78 19.02 9.79 36.62 22.58 52.19 38.15 8.92 8.92 16.92 18.53 23.99 28.67-6.96-1.93-13.5-3.34-19.09-4.36" style="fill:#e3ce75" transform="matrix(.26458 0 0 .26458 -13.23 -13.23)"></path></g><path d="M438.19 298.48h-75.9l-64.5 37.71a10.84 10.84 0 0 0-5.37 9.36v23.5h76.16v163.24c0 6.23 5.05 11.27 11.27 11.27h47.07c6.23 0 11.27-5.05 11.27-11.27zM491.66 298.48h-35.1v70.58h35.1c6.51 0 11.79-5.28 11.79-11.79v-47c0-6.51-5.28-11.79-11.79-11.79" style="fill:#fff" transform="matrix(.26458 0 0 .26458 -13.23 -13.23)"></path><path d="m400 199.79-188.54 62.92v168.18c0 72.57 64.78 161.51 188.54 205.06z" style="fill-opacity:.3" transform="matrix(.26458 0 0 .26458 -13.23 -13.23)"></path><path d="m104.7 338.28 3.02-11.56 30.49 7.97c2.55.67 4.18 1.06 4.87 1.19.69.12 2.23.31 4.6.55 2.38.25 4.09-.77 5.15-3.04s1.75-3.9 2.06-4.89c.32-.99.75-2.54 1.31-4.66l2.89-11.07 9.68 2.53-3.21 12.29-1.62 6.18c-1.05 4.02-2.64 7.14-4.76 9.36-2.12 2.23-4.45 3.68-6.98 4.35s-5.03.89-7.49.65c-2.47-.24-5.63-.86-9.49-1.87zM170.77 311.74l-51.9-21.54 4.58-11.03 51.9 21.54zM176.34 297.29l-37.61-47.77 6.72-11.95 60.36 7.29-6.84 12.17-14.08-1.74-10.47 18.63 8.8 11.12zm-22.51-47.18L167 266.68l7.83-13.93zM185.2 186.06c6.79-6.61 13.48-9.75 20.06-9.42s13.41 4.13 20.48 11.4c6.18 6.35 9.23 12.79 9.16 19.31q-.105 9.78-9.57 18.99c-6.63 6.45-13.34 9.65-20.12 9.6s-13.38-3.38-19.79-9.97c-6.77-6.95-10.16-13.72-10.19-20.3-.02-6.58 3.3-13.11 9.97-19.61m6.81 6.64c-3.74 3.64-5.41 7.32-5.03 11.05s2.9 7.99 7.56 12.77c4.61 4.74 8.83 7.39 12.65 7.94s7.58-.98 11.28-4.57c3.5-3.4 4.99-7.03 4.49-10.88s-3-8.09-7.5-12.71c-4.54-4.66-8.7-7.28-12.5-7.84-3.81-.58-7.45.84-10.95 4.24M235.61 162.63l21.32 35.27-9.65 5.83-29.07-48.09 13.06-7.89L272.13 172l-21.67-35.85 9.65-5.83 29.07 48.09-12.55 7.59zM297.96 175.69l-20.14-52.46 11.15-4.28 20.14 52.46zM319.65 125.15l7.44 40.54-11.09 2.03-10.14-55.27 15.01-2.75 29.61 37.16-7.56-41.2 11.09-2.03 10.14 55.27-14.43 2.65zM392.36 124.19l27.58-.57.69 33.39-25.06.52c-4.43.09-7.88-.15-10.36-.71-2.48-.57-5.76-2.37-9.83-5.4s-6.22-10.17-6.46-21.4c-.11-5.22.55-9.88 1.98-13.99 1.43-4.1 3.83-7.54 7.19-10.3 3.36-2.77 8.97-4.23 16.82-4.39l24.56-.51.21 10.01-23.13.48c-5.38.11-9.18 1.52-11.4 4.24s-3.26 7.19-3.13 13.43c.07 3.54.47 6.64 1.2 9.29.73 2.66 1.99 4.88 3.8 6.67 1.8 1.79 5.37 2.63 10.69 2.52l10.77-.22-.27-13.37-15.64.32zM491.57 125.99l-17.15-5.2 2.9-9.58 46.29 14.03-2.9 9.58-17.71-5.37-13.4 44.19-11.43-3.47zM510.2 182.24l23.75-50.92 10.83 5.05-23.75 50.92zM595.96 167.87l-5.63 8.28-12.86-8.76c-3.34-2.27-5.94-3.7-7.81-4.3-1.87-.59-3.67-.59-5.39 0s-3.03 1.23-3.9 1.92c-.88.69-2.06 2.13-3.54 4.31l26.08 17.75-5.63 8.28-26.08-17.75c-2.36 4.27-3.09 7.85-2.18 10.75s3.75 5.98 8.52 9.23l12.45 8.47-5.63 8.28-12.87-8.76c-5.01-3.41-8.59-6.39-10.75-8.95s-3.67-6.4-4.51-11.53c-.85-5.13 1.36-11.57 6.64-19.33 5.85-8.59 11.48-13.16 16.91-13.71q8.145-.825 11.46.21c2.21.69 4.89 2.11 8.04 4.25zM592.11 212.15l-15.65 14.54-8.13-8.75 41.17-38.24 18.66 20.09c2.9 3.12 5.06 5.82 6.49 8.1 1.42 2.27 2.4 5.16 2.93 8.65.52 3.49-1.2 7.09-5.19 10.79-6.2 5.76-12.63 6.87-19.29 3.34 1.57 3.51 2.06 6.62 1.46 9.32q-.9 4.05-5.97 8.76c-1.69 1.57-2.78 2.68-3.26 3.31-.48.64-1.17 1.8-2.07 3.47l-9.1-9.8c.59-1.01 1.05-1.72 1.36-2.13.32-.41 1.85-2.18 4.62-5.32s4.11-6.15 4.02-9.01c-.09-2.87-1.92-6.23-5.51-10.09zm7.33-6.81 11.39 12.26c2.06 2.22 3.98 3.42 5.76 3.61 1.78.18 3.67-.66 5.69-2.53 1.89-1.75 2.79-3.49 2.69-5.2s-1.19-3.7-3.29-5.95l-11.39-12.26zM674.55 270.01l-8.74 4.88-7.59-13.59c-1.97-3.53-3.66-5.97-5.06-7.34-1.41-1.37-3.01-2.17-4.82-2.42q-2.715-.36-4.35-.03c-1.09.23-2.79.98-5.09 2.27l15.38 27.54-8.74 4.88-15.38-27.54c-4.02 2.76-6.28 5.64-6.76 8.64-.49 3 .67 7.03 3.49 12.07l7.34 13.15-8.74 4.88-7.59-13.59q-4.425-7.935-5.61-12.81c-.79-3.25-.41-7.37 1.12-12.33 1.54-4.97 6.4-9.74 14.59-14.31 9.07-5.06 15.87-5.56 21.26-4.69 5.02.8 8.49 3.71 10.15 5.31 1.67 1.61 3.43 4.07 5.29 7.4zM669.98 301.78l-39.9 10.32-2.82-10.91 54.4-14.06 3.82 14.77-34.94 32.2 40.56-10.48 2.82 10.91-54.4 14.06-3.67-14.2zM164.23 532.75l-9.13 4.1-13.67-30.47-21.18 9.5-4.89-10.9 26.75-12c6.4-2.87 11.5-4.39 15.27-4.55 3.78-.16 6.95.75 9.53 2.73s4.5 3.89 5.77 5.76c1.27 1.86 2.79 4.79 4.58 8.78l7.92 17.65-9.13 4.1-7.3-16.27c-2.41-5.37-4.73-8.79-6.95-10.25s-5.05-1.42-8.48.12l-2.76 1.24zM200.09 546.92c5.63 7.62 7.85 14.67 6.64 21.14s-5.9 12.73-14.06 18.76q-10.68 7.905-20.37 6.48c-6.45-.95-12.3-4.96-17.53-12.04-5.5-7.44-7.77-14.52-6.8-21.23q1.44-10.065 12.54-18.27c7.8-5.77 14.96-8.22 21.49-7.37 6.52.88 12.55 5.05 18.09 12.53m-7.5 5.86c-3.1-4.19-6.53-6.35-10.28-6.47s-8.31 1.8-13.67 5.77c-5.32 3.94-8.51 7.76-9.57 11.47s-.05 7.64 3.02 11.79c2.9 3.92 6.29 5.89 10.18 5.92 3.89.02 8.42-1.89 13.61-5.72 5.23-3.87 8.38-7.65 9.46-11.33 1.07-3.71.15-7.51-2.75-11.43M235.14 589.83c7.17 6.19 10.89 12.58 11.13 19.16.25 6.58-2.95 13.72-9.58 21.4-5.79 6.71-11.93 10.31-18.44 10.81-6.5.5-13.09-2.13-19.76-7.88-7.01-6.04-10.78-12.45-11.32-19.2-.54-6.76 2.2-13.62 8.2-20.58 6.34-7.34 12.78-11.32 19.34-11.92 6.58-.61 13.38 2.13 20.43 8.21m-6.02 7.36c-3.95-3.41-7.77-4.76-11.45-4.05-3.69.71-7.71 3.59-12.07 8.64-4.32 5.01-6.59 9.44-6.8 13.29s1.63 7.46 5.54 10.83c3.69 3.19 7.44 4.36 11.23 3.53 3.79-.84 7.8-3.7 12.01-8.58q6.375-7.38 6.72-13.14c.25-3.82-1.48-7.33-5.18-10.52M264.5 626.48l-15.49-9 5.03-8.65 41.82 24.3-5.03 8.66-16-9.3-23.2 39.93-10.33-6zM280.35 687.87l16.02-53.86 30.39 9.04c4.94 1.47 8.32 3.12 10.11 4.94 1.8 1.82 2.97 4.03 3.52 6.62s.43 5.2-.36 7.84q-1.23 4.11-4.47 7.05t-7.14 3.36q6.735 5.97 3.99 15.18c-.93 3.13-2.4 5.61-4.41 7.45s-4.32 2.85-6.92 3.05c-2.6.19-6.27-.41-11-1.82zm14.3-6.19 15.56 4.63c1.67.5 2.9.78 3.7.84s1.93-.19 3.39-.76 2.52-1.99 3.2-4.26c1.17-3.95-.93-6.72-6.3-8.32l-15.8-4.7zm6.6-22.17 15.61 4.64c1.62.48 2.83.75 3.63.82.8.06 1.93-.18 3.39-.75 1.46-.56 2.52-1.97 3.2-4.23 1.17-3.92-.92-6.68-6.26-8.27L304.96 647ZM338.36 704.19l27.57-54.18 13.67 1.08 18.71 57.84-13.92-1.1-4.33-13.51-21.3-1.68-6.4 12.66zm33.38-40.22-9.51 18.91 15.93 1.26zM404.32 652.98l11.9-1.04 2.74 31.4c.23 2.63.4 4.29.52 4.99.12.69.46 2.2 1.03 4.52s2.1 3.6 4.6 3.83 4.26.33 5.3.3 2.65-.15 4.83-.34l11.4-.99.87 9.97-12.65 1.1-6.37.55c-4.13.36-7.61-.09-10.42-1.34s-4.96-2.95-6.44-5.11-2.53-4.44-3.13-6.84-1.08-5.59-1.42-9.57zM445.65 648.16l11.58-2.94 7.76 30.55c.65 2.56 1.09 4.17 1.32 4.84s.81 2.1 1.74 4.3 2.65 3.21 5.16 3.04c2.5-.17 4.26-.36 5.28-.56q1.53-.3 4.71-1.11l11.09-2.82 2.47 9.7-12.31 3.13-6.2 1.57q-6.03 1.53-10.5.36c-2.98-.78-5.37-2.12-7.18-4.01s-3.21-3.97-4.19-6.25c-.98-2.27-1.97-5.35-2.95-9.22zM580.75 636.7l5.52 8.35L570 655.82c-4.02 2.66-7.38 4.42-10.08 5.26-2.7.85-5.64.99-8.8.42-3.17-.57-6.3-2.08-9.41-4.53-3.11-2.46-6.08-5.84-8.94-10.15-3.47-5.25-5.55-10.32-6.24-15.22s.05-9.12 2.2-12.67c2.16-3.55 5.71-6.96 10.67-10.24l15.85-10.49 5.53 8.35-14.66 9.7q-6.66 4.41-7.29 9.63c-.42 3.48 1.09 7.82 4.54 13.02 3.75 5.67 7.38 9.07 10.88 10.19s7.56.15 12.19-2.91zM557.95 596.44l8.46-8.43 22.24 22.34c1.86 1.87 3.06 3.04 3.6 3.49.53.46 1.76 1.4 3.69 2.81 1.92 1.42 3.92 1.41 5.98-.01 2.07-1.42 3.49-2.48 4.26-3.17s1.94-1.81 3.49-3.35l8.11-8.07 7.06 7.09-9 8.96-4.53 4.51c-2.94 2.93-5.89 4.81-8.85 5.66q-4.44 1.26-8.22.21c-2.52-.7-4.78-1.78-6.79-3.24-2-1.46-4.42-3.6-7.23-6.43zM592.51 558.27l28.28 18.07c2.36 1.51 4.3 2.48 5.82 2.92s3.02.45 4.52.04c1.49-.41 2.93-1.17 4.31-2.29S638 574.56 639 573c3.23-5.06 4.06-8.77 2.48-11.14s-3.97-4.59-7.19-6.64L606 537.15l6.43-10.06 27.86 17.8c7.28 4.65 11.17 9 11.68 13.05q.765 6.075-.51 10.56c-.84 2.99-2.37 6.21-4.57 9.66-4.77 7.47-9.24 11.65-13.41 12.55s-7.44 1.02-9.82.37-5.38-2.14-9.02-4.47l-28.57-18.25zM668.13 542.67l-52.31-20.53 11.58-29.52c1.88-4.8 3.81-8.02 5.78-9.66s4.27-2.62 6.89-2.94c2.63-.32 5.22.02 7.78 1.02 2.66 1.05 4.88 2.73 6.65 5.05s2.68 4.79 2.74 7.4c4.34-4.14 9.5-5.04 15.47-2.7 3.04 1.19 5.38 2.87 7.05 5.02 1.66 2.16 2.48 4.54 2.45 7.15s-.94 6.21-2.75 10.81zm-26.49-23.22 5.95-15.16c.62-1.57.99-2.75 1.12-3.55.13-.79-.02-1.94-.46-3.44-.43-1.5-1.75-2.68-3.94-3.54-3.81-1.49-6.73.35-8.77 5.53l-6.04 15.4zm21.53 8.45 5.93-15.11c.63-1.62 1.02-2.82 1.15-3.62.13-.79-.03-1.94-.47-3.44s-1.77-2.68-3.97-3.55c-3.83-1.5-6.78.35-8.83 5.57l-6.02 15.35zM698.7 415.58c-.34-6.09-2.4-11.93-5.96-16.88-4.12-5.74-10.1-10.02-16.83-12.05-3-.9-6.12-1.36-9.28-1.36s-6.28.46-9.28 1.36c-6.73 2.03-12.71 6.31-16.83 12.05a31.9 31.9 0 0 0-5.96 16.88c-.04.59-.05 1.2-.05 1.84 0 7.24 2.35 14.08 6.81 19.78 3.51 4.48 8.14 7.96 13.4 10.07 3.79 1.52 7.8 2.28 11.92 2.28s8.13-.77 11.92-2.28c5.26-2.1 9.9-5.58 13.4-10.07 4.45-5.69 6.81-12.53 6.81-19.78-.01-.64-.03-1.26-.07-1.84m-41.84-23.6 8.97 3.45v9.87l-9.84 7.15-9.39-3.05-.52-9.85c2.9-3.34 6.59-5.96 10.78-7.57m30.33 7.57-.52 9.85-9.39 3.05-9.84-7.15v-9.87l8.97-3.45c4.19 1.61 7.88 4.24 10.78 7.57m-41.09 11.38 9.39 3.05 3.76 11.57-5.8 7.99-10.59-2.83a27.06 27.06 0 0 1-3.41-11.57zm8.65 23.55 5.8-7.99h12.17l5.8 7.99-6.21 9.57.02.01a27.419 27.419 0 0 1-11.4 0l.02-.01zm35.66-3.77-10.59 2.83-5.8-7.99 3.76-11.57 9.39-3.05 6.66 8.21c-.27 4.18-1.47 8.1-3.42 11.57m.46-31.84-2.71-.65a28.95 28.95 0 0 0-10.42-7.44l-1.42-2.31a30.76 30.76 0 0 1 14.55 10.4m-33.93-10.4-1.42 2.31a29 29 0 0 0-10.42 7.44l-2.71.65c3.7-4.82 8.81-8.47 14.55-10.4m-20.82 28.94c0-.3 0-.6.01-.89l1.67 1.96a28.7 28.7 0 0 0 4.45 14.35l-.21 2.66c-3.88-5.27-5.92-11.5-5.92-18.08m19.98 28.65 2.35-.97c2.6.77 5.34 1.18 8.18 1.18s5.59-.41 8.18-1.18l2.36.97a30.4 30.4 0 0 1-10.54 1.87c-3.63 0-7.17-.63-10.53-1.87m35.12-10.57-.21-2.66a28.7 28.7 0 0 0 4.45-14.35l1.67-1.96c.01.29.01.59.01.89.01 6.58-2.04 12.81-5.92 18.08M98.34 417.41c0 7.24 2.35 14.08 6.81 19.78 3.51 4.48 8.14 7.96 13.4 10.07 3.79 1.52 7.8 2.28 11.92 2.28s8.13-.77 11.92-2.28c5.26-2.1 9.9-5.58 13.4-10.07 4.45-5.69 6.81-12.53 6.81-19.78a31.942 31.942 0 0 0-6.01-18.72c-4.12-5.74-10.1-10.02-16.83-12.05-3-.9-6.12-1.36-9.28-1.36s-6.28.46-9.28 1.36c-6.73 2.03-12.71 6.31-16.83 12.05a31.9 31.9 0 0 0-5.96 16.88c-.05.59-.07 1.21-.07 1.84m52.68-17.86-.52 9.85-9.39 3.05-9.84-7.15v-9.87l8.97-3.45c4.19 1.61 7.88 4.23 10.78 7.57m-30.33-7.57 8.97 3.45v9.87l-9.84 7.15-9.39-3.05-.52-9.85c2.9-3.33 6.59-5.96 10.78-7.57m36.97 27.16c-.26 4.18-1.47 8.1-3.41 11.57l-10.59 2.83-5.8-7.99 3.76-11.57 9.39-3.05zm-21.51 24.91.02.01a27.419 27.419 0 0 1-11.4 0l.02-.01-6.21-9.57 5.8-7.99h12.17l5.8 7.99zm-32.88-24.91 6.66-8.21 9.39 3.05 3.76 11.57-5.8 7.99-10.59-2.83a27.1 27.1 0 0 1-3.42-11.57m17.5-30.67-1.42 2.31a29 29 0 0 0-10.42 7.44l-2.71.65c3.71-4.82 8.81-8.47 14.55-10.4m33.93 10.4-2.71-.65a28.95 28.95 0 0 0-10.42-7.44l-1.42-2.31a30.7 30.7 0 0 1 14.55 10.4m.36 36.62-.21-2.66a28.7 28.7 0 0 0 4.45-14.35l1.67-1.96c.01.29.01.59.01.89 0 6.58-2.04 12.81-5.92 18.08m-24.59 12.44a30.4 30.4 0 0 1-10.54-1.87l2.36-.97c2.6.77 5.34 1.18 8.18 1.18s5.59-.41 8.18-1.18l2.35.97c-3.36 1.24-6.9 1.87-10.53 1.87m-30.52-30.52c0-.3 0-.6.01-.89l1.67 1.96a28.7 28.7 0 0 0 4.45 14.35l-.21 2.66c-3.87-5.27-5.92-11.5-5.92-18.08" style="fill:#e3ce75" transform="matrix(.26458 0 0 .26458 -13.23 -13.23)" data-source="https://football-logos.cc"></path><!-- source: https://football-logos.cc --></svg>