<svg xmlns="http://www.w3.org/2000/svg" viewBox="0 0 185.21 171.4"><!-- Source: https://football-logos.cc --><ellipse cx="91.361" cy="85.699" fill="#fff" rx="85.831" ry="85.699" data-source="https://football-logos.cc"></ellipse><ellipse cx="91.361" cy="85.699" fill="#cb2530" rx="84.217" ry="84.111"></ellipse><ellipse cx="91.361" cy="85.699" fill="#fff" rx="64.611" ry="64.532"></ellipse><ellipse cx="91.361" cy="85.699" fill="#017e39" rx="62.839" ry="62.759"></ellipse><g transform="translate(-13.23 -20.135)scale(.26458)"><ellipse cx="398.3" cy="418.2" rx="113.2" ry="113"></ellipse><ellipse cx="398.3" cy="418.2" fill="#fff" rx="106.9" ry="106.7"></ellipse><path d="M315.2 386.2h-7.9s-1.6 37.6-11.6 44.2l13.8 37.4s16.7-15 40.4-7.1l1.6-17.3c.1.2-35.9-15.6-36.3-57.2m1-9.5c17.7-43.5 51.4-44 51.4-44l1.8-9.4-18.3-3.3c-24.4 11.2-46.5 40.9-46.5 40.9l1.2 19.3zm119.5-19.1 14.9-2.8s-7.9-23.4-2.8-35.5c0 0-21-9.2-39.8-8.9 0 0-9.2 10.6-30.3 10.6l-.6 10s33-4.5 58.6 26.6m66.4 50.7-5.5 22.2s7.7 4.9 7.7 15.5l4.5-34.9zm-48.3-44.1-14 2.2s9.4 40.7-13.8 61.4l6.7 9.8s24.8-17.7 56.3-10.4l5.5-20.1c.3 0-33.6-22.5-40.7-42.9m-34.3 70.6s-23.6 19.5-58.5 13.4l-1 15.5s29.3 7.7 41.4 40.5l12.6-5.5s-9.2-31.9 10.4-52.7z"></path></g><path fill="#fff" d="M0 109.511h181.61v43.021H0z"></path><path fill="#017e39" d="M2.434 111.919h176.768v38.18H2.434z" data-source="https://football-logos.cc"></path><path fill="#fff" d="M82.365 158.062q-.516.437-1.508.714v1.456c.476-.106.82-.265 1.084-.397.291-.106.609-.291.9-.556v4.313h1.879v-6.588h-1.561c-.16.45-.477.793-.794 1.058m8.361-.688c-.37-.212-.874-.344-1.482-.37h-.106c-.556 0-.979.106-1.35.29s-.66.45-.846.795c-.212.37-.344.74-.344 1.19 0 .609.212 1.164.609 1.561.423.45.873.609 1.481.609.186 0 .37 0 .556-.027.08-.026.185-.08.265-.106.211-.105.45-.264.661-.476-.026.662-.159 1.111-.265 1.35-.158.29-.423.476-.661.476h-.027c-.158 0-.29-.08-.423-.185-.106-.106-.185-.265-.212-.53l-1.825.212c.106.344.264.609.476.847.185.211.45.397.741.529.291.159.74.185 1.243.185h.027c.847 0 1.561-.29 2.064-.794.476-.555.74-1.428.74-2.619 0-.794-.105-1.429-.37-1.905a2.4 2.4 0 0 0-.952-1.032m-.82 2.699a1.08 1.08 0 0 1-.61.291h-.026a.75.75 0 0 1-.608-.291c-.159-.212-.212-.476-.212-.847s.08-.608.212-.794a.75.75 0 0 1 .582-.264h.08a.74.74 0 0 1 .581.291c.186.185.291.476.291.82a2.1 2.1 0 0 1-.29.794m6.905-2.699c-.423-.212-.847-.344-1.482-.37h-.105c-.53 0-.98.106-1.376.29a1.9 1.9 0 0 0-.847.795c-.212.37-.344.74-.344 1.19 0 .609.212 1.164.609 1.561.423.45.926.609 1.508.609.185 0 .344 0 .529-.027.106-.026.185-.08.264-.106.265-.105.424-.264.662-.476-.08.662-.159 1.111-.265 1.35-.158.29-.37.476-.661.476-.185 0-.291-.08-.423-.185-.106-.106-.186-.265-.212-.53l-1.826.212c.106.344.265.609.477.847.185.211.45.397.74.529.344.159.715.185 1.244.185h.026c.847 0 1.508-.29 2.011-.794.476-.555.741-1.428.741-2.619 0-.794-.106-1.429-.344-1.905a2.7 2.7 0 0 0-.926-1.032m-.82 2.699a.94.94 0 0 1-.609.291c-.264 0-.476-.106-.608-.291-.185-.212-.265-.476-.265-.847s.08-.608.212-.794a.8.8 0 0 1 .608-.264h.027c.211 0 .45.106.608.291.106.185.212.476.212.82.026.344-.053.635-.185.794m7.54.952v-3.995h-1.587l-.873 1.032-2.434 2.831v1.482h3.333v1.217h1.588v-1.217h.847v-1.376h-.874zm-1.56 0h-1.747l.873-1.031.873-1.006zM184.23 105.198c-.503 1.403-1.482 2.884-2.752 4.313h-66.146a29.67 29.67 0 0 0 6.8-18.944c0-4.34-.926-8.493-2.593-12.197 11.483-2.038 18.282.502 21.484 2.354 5.794 3.334 8.123 6.456 10.795 10.451.714 1.085 3.387 5.504 3.73 7.25l.239 1.27c.37 1.958.9 4.948 1.825 4.842.582-.08 1.8-.212 1.826-5.212 0-1.43-.82-3.281-2.223-3.863-1.666-.688-4.048-2.858-3.81-4.551.186-1.376 1.032-2.381 2.329-2.752 2.407-.661 5.768.953 8.175 3.942 2.858 3.546 3.572 5.213 4.022 6.536.159-.291.318-.768.318-1.403v-.026c.052-2.646.105-5.636-3.281-8.07-1.323-.952-1.8-2.937-1.085-4.471.873-1.879 3.096-2.593 5.953-1.905 3.863.926 5.874 2.857 6.747 6.403.53 2.196.37 4.789.212 7.064-.053.952-.106 1.826-.106 2.593 0 .714.132 1.217.397 1.429.238.211.661.211.952.158.053-.026.37-.29.609-2.407.158-1.535 1.032-2.726 2.275-3.175 1.085-.37 2.223-.133 3.016.635 2.17 1.984 1.085 7.514.291 9.736"></path><g fill="#f58e00"><path d="M184.23 105.198c-.503 1.403-1.482 2.884-2.752 4.313h-2.593c1.825-1.746 3.069-3.519 3.598-4.948.98-2.672 1.297-6.8.265-7.805-.291-.29-.688-.37-1.112-.212-.582.212-.979.82-1.058 1.64-.212 1.932-.556 3.81-2.196 4.049-.979.132-1.826-.08-2.434-.609-.688-.608-1.058-1.56-1.058-2.857 0-.82.052-1.746.132-2.725.132-2.143.29-4.604-.185-6.509-.688-2.858-2.196-4.26-5.371-5.027-1.958-.476-3.334-.159-3.81.873-.344.74-.133 1.746.476 2.196 4.18 3.016 4.1 6.826 4.048 9.604v.027c-.053 2.17-1.111 3.307-2.09 3.625-.662.211-1.35-.133-1.588-.82-.053-.16-.106-.292-.158-.424-.424-1.27-.9-2.699-3.863-6.35-2.144-2.672-4.816-3.704-6.218-3.307-.582.159-.9.555-1.006 1.19 0 .477 1.27 2.011 2.7 2.593 2.222.926 3.386 3.52 3.36 5.61-.027 4.656-1.085 6.773-3.493 7.037-2.646.292-3.28-3.069-3.863-6.35-.08-.423-.159-.846-.238-1.243-.238-1.19-2.408-5-3.466-6.588-2.62-3.942-4.736-6.747-10.187-9.87-6.032-3.492-14.128-3.095-19.843-2.169a21 21 0 0 0-.741-1.799c11.483-2.037 18.283.503 21.484 2.355 5.794 3.334 8.123 6.456 10.795 10.451.714 1.085 3.387 5.503 3.73 7.25l.239 1.27c.37 1.957.9 4.947 1.825 4.841.582-.079 1.8-.211 1.826-5.212 0-1.429-.82-3.28-2.223-3.863-1.666-.688-4.048-2.857-3.81-4.55.186-1.376 1.032-2.382 2.329-2.752 2.408-.662 5.768.952 8.175 3.942 2.858 3.545 3.572 5.212 4.022 6.535.159-.29.318-.767.318-1.402v-.027c.053-2.645.105-5.635-3.281-8.07-1.323-.952-1.8-2.936-1.085-4.47.873-1.88 3.096-2.594 5.953-1.906 3.863.926 5.874 2.858 6.747 6.403.53 2.196.37 4.79.212 7.064-.053.953-.106 1.826-.106 2.593 0 .715.132 1.217.397 1.43.238.21.661.21.952.158.053-.027.37-.291.609-2.408.158-1.534 1.032-2.725 2.275-3.175 1.085-.37 2.223-.132 3.016.635 2.223 2.011 1.138 7.54.344 9.763"></path><path d="M149.437 109.511h-1.879c-1.35-9.128-4.233-14.843-9.34-19.024-5.291-4.365-11.509-4.418-16.35-3.968a23 23 0 0 0-.318-1.852c5.027-.477 11.959-.45 17.832 4.365 5.583 4.551 8.652 10.69 10.055 20.479"></path><path d="M143.087 109.511h-1.905c-1.059-5.53-3.281-9.684-6.641-12.409-3.757-3.07-8.44-3.942-12.515-3.969.053-.608.08-1.243.106-1.852 4.392.027 9.445 1.006 13.573 4.366 3.81 3.069 6.27 7.726 7.382 13.864"></path><path d="M135.996 109.511h-1.958c-1.482-4.392-5.107-8.652-13.388-9.657.185-.582.37-1.19.53-1.8 7.778 1.059 12.884 4.975 14.816 11.457m-10.398 0h-3.44c-1.693-.82-3.678-1.323-5.583-1.587.397-.556.794-1.138 1.138-1.72.08 0 .159.026.212.026 3.28.582 5.847 1.694 7.673 3.281"></path></g><path fill="#fff" d="M75.274 109.511c.82-5.768-.159-11.456-1.984-15.478-5.398-11.88-17.648-17.754-26.961-17.41-7.515.291-13.018 3.122-17.754 6.006a62.5 62.5 0 0 0 4.604 26.935z"></path><g fill="#f58e00"><path d="M75.274 109.511h-1.879c.82-5.477-.079-10.9-1.799-14.71-5.053-11.14-16.483-16.643-25.188-16.3-7.594.292-13.097 3.388-17.912 6.377q0-1.11.079-2.222c4.763-2.884 10.24-5.715 17.754-6.006 9.313-.37 21.563 5.503 26.96 17.41 1.826 3.968 2.805 9.683 1.985 15.451"></path><path d="M68.183 109.511h-1.852c-.317-6.932-2.884-12.7-7.514-16.827-3.89-3.493-9.287-5.742-14.367-6.06-5.82-.343-11.139 2.223-15.637 5.16a28 28 0 0 1-.159-2.09c4.551-2.831 10.002-5.292 15.928-4.922 5.504.344 11.298 2.779 15.505 6.536 3.572 3.201 7.7 8.863 8.096 18.203"></path><path d="M62.495 109.511h-1.853c-1.296-10.557-8.44-14.129-12.858-15.346-6.588-1.799-14.103-.344-18.204 3.202a57 57 0 0 1-.344-2.064c4.71-3.413 12.356-4.763 19.05-2.937 8.123 2.223 13.177 8.36 14.209 17.145"></path><path d="M54.213 109.511h-1.958c-1.905-4.471-5.609-7.7-8.599-8.705-4.63-1.534-9.657-.397-13.097.847-.158-.609-.317-1.19-.45-1.8 3.705-1.296 9.102-2.46 14.13-.793 3.968 1.296 8.07 5.371 9.974 10.451"></path><path d="M45.852 109.511h-2.328c-1.826-2.143-4.34-3.413-7.488-3.836-1.56-.212-3.069-.16-4.286-.027a36 36 0 0 1-.582-1.799c3.863-.45 10.663-.291 14.684 5.662"></path></g><path fill="#fff" d="M77.39 50.562c.239 0 .345-.027.477-.318l.74-2.698h2.355l-.9 3.65c-.105.768-.634 1.165-1.534 1.112H76.65v-1.746zm1.085-3.678c-.661.08-1.031-.37-1.19-1.27l-.556-2.513h2.46l.371 1.349c.159.45.318.688.582.661h.847v1.773zm.133-4.445c-.741.053-1.164-.317-1.297-1.111l-.502-2.91h2.54l.264 1.534c.08.423.265.582.556.556h.846v1.905h-2.407zm2.593-1.825v-2.011h9.578v1.958h-.556v10.08c.026 1.27-.476 1.905-1.535 1.852h-1.376v-1.905h.318c.37 0 .53-.185.503-.608v-9.34zm4.498 11.191h-4.075V41.407h5.61v8.81c.052 1.139-.45 1.615-1.535 1.588m-.609-2.487v-6.085h-1.429v6.641h.98c.29.026.449-.132.449-.556m9.446-8.943v-1.772h5.847v-.609h2.249v.609h5.794v1.772h-5.794v.98h5.477v9.075c.106 1.217-.503 1.772-1.826 1.64h-2.487v-1.773h1.693c.318.027.45-.08.424-.37v-.794h-3.281v2.91h-2.25v-2.91h-3.28v2.91h-2.196V41.329h5.477v-.979h-5.847zm2.566 2.752v1.482h1.508l-.688-1.085h2.382l.714 1.085h.9l.714-1.032h2.434l-.688 1.032h1.482v-1.482zm0 3.122v1.085h3.28v-1.085zm8.837 0h-3.28v1.085h3.28zM27.12 61.04l-9.26-4.393.581-1.217 3.81 1.8 2.302-4.816-3.81-1.8.582-1.216 9.26 4.392-.581 1.217-4.366-2.064-2.302 4.816 4.366 2.063zm4.55-9.314-8.36-5.662 4.1-6.059.98.661-3.36 4.948 2.566 1.72 3.122-4.63.98.661-3.123 4.657 2.858 1.931 3.492-5.133.979.662zm5.319-7.541-7.594-6.8.926-1.031 9.525 1.35-5.953-5.319.847-.953 7.593 6.8-.926 1.032-9.525-1.35 5.98 5.319zm6.191-6.932-3.572-10.371 1.085-.9 9.604 5.45-1.164.927-2.857-1.694-3.175 2.62 1.137 3.095zm-.476-5.053 2.566-2.09s-3.783-2.355-4.392-2.7c.344.768 1.826 4.79 1.826 4.79m67.733-12.092 7.117-8.334 1.323.476.185 11.033-1.402-.529V19.42l-3.863-1.402-2.09 2.54zm4.101-2.963 3.122 1.138s.106-4.445.08-5.16c-.477.662-3.202 4.022-3.202 4.022M51.065 30.586l-5.371-8.652 1.164-.74 8.784 3.994-4.233-6.826 1.084-.688 5.371 8.678-1.164.715-8.784-3.995 4.233 6.826zm69.162-6.932 4.498-9.023 1.217.609-3.996 7.937 4.551 2.25-.529 1.084zm7.038 3.598 5.556-8.414 1.138.741-4.895 7.408 4.233 2.779-.661 1.005zm17.197 14.235 7.78-6.403.872 1.058-6.879 5.636 3.228 3.89-.926.766zm-80.645-17.86-3.704-9.657 6.51-2.514.449 1.138-5.239 2.011 1.138 2.99 4.524-1.746.45 1.137-4.524 1.746 1.666 4.366zm81.122 12.912 1.005.952c-.952.635-2.143 1.112-3.069 1.059-.953-.053-1.826-.397-2.62-1.085q-1.23-1.071-1.587-2.223c-.212-.767-.185-1.587.132-2.46s.794-1.64 1.456-2.381c.714-.768 1.508-1.323 2.354-1.667s1.694-.397 2.54-.212 1.614.556 2.302 1.138q1.152.992 1.429 2.222c.159.847.053 2.011-.53 2.884l-1.031-.74c.317-.715.397-1.535.265-2.064-.106-.556-.424-1.032-.926-1.456-.583-.502-1.218-.793-1.853-.846a3.23 3.23 0 0 0-1.852.397 7.2 7.2 0 0 0-1.587 1.243c-.582.635-1.006 1.297-1.244 1.932-.238.661-.29 1.243-.079 1.825.185.582.53 1.059.979 1.482.556.476 1.19.74 1.878.74.609.027 1.297-.21 2.038-.74M79.613 13.203c.741 2.672-.212 5.503-3.466 6.403-3.043.82-5.345-.926-6.112-3.731s.37-5.503 3.493-6.35c2.91-.794 5.291.767 6.085 3.678m-8.123 2.222c.582 2.117 2.223 3.651 4.445 3.043 2.408-.662 2.831-2.778 2.276-4.868-.582-2.09-2.143-3.599-4.392-2.964-2.382.635-2.91 2.725-2.329 4.79m19.844-3.731c.635 2.725-.423 5.503-3.73 6.27-3.07.715-5.319-1.138-5.954-3.995-.661-2.831.582-5.477 3.731-6.218 2.963-.688 5.292.98 5.953 3.943M83.106 13.6c.502 2.143 2.09 3.757 4.312 3.227 2.434-.555 2.964-2.672 2.461-4.788-.503-2.144-2.01-3.678-4.286-3.149-2.355.53-2.964 2.593-2.487 4.71m13.546-4.736-3.36-.265.08-1.138 8.122.609-.08 1.137-3.36-.264-.582 8.943-1.402-.106zm7.329-.292 4.022.768c2.196.423 3.016 1.72 2.778 3.069-.212 1.138-1.058 1.746-1.905 1.852.688.344 1.667 1.27 1.402 2.699-.344 1.852-2.037 2.593-4.021 2.222l-4.101-.767zm2.964 4.79c1.508.29 2.222-.16 2.38-1.112.16-.873-.37-1.614-1.613-1.852l-2.593-.503-.582 3.017zm-3.255 4.233 2.593.476c1.323.238 2.328-.159 2.567-1.376.211-1.058-.397-1.931-2.144-2.249l-2.328-.45zm55.034 25.955-5.186 3.308c-2.038 1.296-1.879 2.751-1.19 3.836.82 1.27 1.983 1.8 3.968.53l5.186-3.308.714 1.138-5.08 3.307c-2.805 1.773-4.577.767-5.741-1.058-1.138-1.773-1.244-3.89 1.402-5.557l5.212-3.307zm5.026 8.943 1.615 3.704c.873 2.038.264 3.44-1.006 3.996-1.085.476-2.064.132-2.62-.503.08.767-.105 2.064-1.48 2.672-1.747.741-3.308-.211-4.102-2.037l-1.64-3.81zm-2.328 5.133c.609 1.403 1.376 1.72 2.276 1.323.82-.344 1.137-1.217.635-2.355l-1.032-2.407-2.831 1.217zm-5.344-.29 1.032 2.38c.529 1.218 1.428 1.826 2.592 1.323 1.006-.423 1.376-1.402.688-3.016l-.926-2.143zM50.006 117.29l-4.286 27.464h-6.482l1.72-10.954h-11.96l-1.772 10.954h-6.483l4.472-27.464h6.456l-1.561 10.345h11.853l1.72-10.345zm3.334 0h22.251l-1.137 6.27H58.446l-.608 4.207h15.187l-1.085 6.006H56.86l-.185 1.64a2.74 2.74 0 0 0 2.725 3.043h12.78l-1.006 6.271H57.997c-4.736 0-8.361-4.233-7.594-8.916zm44.344 27.464H92.05l-9.287-17.119-2.54 17.119h-6.588l4.577-27.464h5.9l9.022 16.06 2.62-16.06h6.217zm58.552 0h-5.635l-9.287-17.119-2.54 17.119h-6.562l4.551-27.464h5.9l9.023 16.06 2.619-16.06h6.218zm-32.516 0h7.01l-6.879-24.21a4.48 4.48 0 0 0-4.312-3.254h-4.445L99.06 144.754h7.329l3.36-5.927h12.277zm-10.425-12.145 4.683-8.255 2.328 8.255z" data-source="https://football-logos.cc"></path><!-- source: https://football-logos.cc --></svg>