<svg xmlns="http://www.w3.org/2000/svg" xml:space="preserve" viewBox="0 0 137.28 185.21"><!-- Source: https://football-logos.cc --><path d="M400 750c115.755-83.687 181.204-186.224 214.474-267.49 48.11-117.516 52.36-251.434 37.088-330.518C498.574 126.63 400 50 400 50s-98.574 76.63-251.562 101.992c-15.271 79.084-11.022 213.002 37.088 330.518C218.796 563.776 284.246 666.313 400 750" style="fill:#ff8200" transform="translate(-37.192 -13.23)scale(.26458)" data-source="https://football-logos.cc"></path><path d="M400 729.645c-47.86-35.928-89.903-77.66-125.1-124.185-30.849-40.78-55.816-84.235-74.207-129.159-43.993-107.459-50.807-230.674-38.109-310.155 75.842-14.054 137.436-40.158 176.453-60.063C367.845 91.387 388.61 78.03 400 70.186c11.388 7.844 32.154 21.2 60.963 35.897 39.017 19.905 100.611 46.01 176.452 60.063 12.699 79.48 5.885 202.696-38.107 310.155-18.393 44.924-43.36 88.38-74.21 129.16-35.195 46.524-77.24 88.256-125.098 124.184" style="fill:#fff" transform="translate(-37.192 -13.23)scale(.26458)"></path><path d="M631.68 275.874c1.92-38.33.211-72.992-3.643-100.728-74.045-14.646-134.095-40.334-171.893-59.617-24.52-12.509-43.371-24.07-56.144-32.545-12.774 8.476-31.626 20.037-56.144 32.545-37.798 19.283-97.848 44.97-171.893 59.617-3.854 27.737-5.562 62.399-3.643 100.728zm-462.776 10.109c3.83 58.16 16.044 123.87 41.602 186.3 18.044 44.077 42.555 86.731 72.851 126.78C316.361 642.69 355.575 682.107 400 716.324c44.425-34.217 83.639-73.635 116.642-117.261 30.295-40.047 54.807-82.702 72.852-126.78 25.558-62.43 37.773-128.14 41.602-186.3z" style="fill:#002c71" transform="translate(-37.192 -13.23)scale(.26458)"></path><path d="M236.825 285.982v196.182a499 499 0 0 1-7.587-17.554c-19.183-46.85-32.38-101.162-38.174-157.054a632 632 0 0 1-1.86-21.574zm154.315 0v62.476c-17.312 1.234-33.45 6.931-47.38 16.022v-78.498zm-76.955 107.485c-12.223 17.815-19.415 39.678-19.415 63.296s7.192 45.49 19.415 63.305v33.393l-17.313 29.894a572 572 0 0 1-30.077-44.566V285.982h47.39zm154.413-107.485v.81l-38.56 66.592a98 98 0 0 0-8.83-2.535v-64.867z" style="fill:#ff8200" transform="translate(-37.192 -13.23)scale(.26458)" data-source="https://football-logos.cc"></path><path d="m512.919 284.789-44.321 76.538-5.987 10.325-7.644 13.216-1.61 2.776-6.41 11.067a80 80 0 0 0-14.296-8.261 79 79 0 0 0-11.443-4.107 80 80 0 0 0-9.13-1.947 80.4 80.4 0 0 0-12.165-.916c-18.846 0-36.179 6.507-49.867 17.39-18.47 14.682-30.318 37.355-30.318 62.795 0 18.914 6.546 36.294 17.497 50.003a80 80 0 0 0 15.491 14.826l-.067.115a85 85 0 0 1-15.685-14.489c-11.548-13.669-19.106-31.117-20.764-50.349a89 89 0 0 1-.357-8.069c0-47.93 36.478-86.923 81.901-88.128a82 82 0 0 1 4.338 0 95.5 95.5 0 0 1 18.47 2.198c.222.039.434.087.656.145a95 95 0 0 1 19.463 6.68l8.387-14.489 19.54-33.74 25.234-43.58zm-29.292 178.982c-1.36-15.838-6.73-30.462-15.03-42.763-5.214-7.74-13.285-16.602-21.65-22.297 7.48 5.4 16.686 15.337 21.65 23.55 7.298 12.089 11.501 26.26 11.501 41.404s-4.203 29.315-11.5 41.404c-8.811 14.575-22.114 26.114-37.991 32.718a50 50 0 0 1-1.668.665q-.81.318-1.62.607c-.559.203-1.118.395-1.686.588-.617.212-1.244.415-1.87.607a62 62 0 0 1-1.9.56 7 7 0 0 1-.655.192c-.405.116-.82.222-1.234.328-.01 0-.029.01-.039.01-.568.145-1.137.28-1.706.415-.202.048-.395.096-.598.135-.414.096-.829.183-1.243.27-.299.067-.588.125-.887.173-.357.077-.723.154-1.09.212-.25.048-.5.096-.751.135-.473.087-.935.164-1.408.231-.588.097-1.185.174-1.773.25-.357.05-.714.097-1.08.136-.386.048-.78.096-1.167.135-.616.058-1.233.116-1.85.164q-.842.072-1.697.115a78 78 0 0 1-9.544 0 50 50 0 0 1-1.696-.115c-.617-.048-1.234-.106-1.851-.164a52 52 0 0 1-1.167-.135c-.356-.039-.713-.087-1.08-.135-.587-.077-1.185-.154-1.773-.25a36 36 0 0 1-1.407-.232c-.251-.038-.502-.087-.752-.135a38 38 0 0 1-1.022-.193 34 34 0 0 1-1.06-.212c-.31-.067-.618-.125-.916-.202a33 33 0 0 1-.945-.213 70 70 0 0 1-1.369-.337 6 6 0 0 1-.405-.106 56 56 0 0 1-1.735-.472 69 69 0 0 1-1.88-.55c-.02 0-.029-.01-.038-.019q-.925-.291-1.851-.598a79 79 0 0 1-7.22-2.815 82 82 0 0 1-14.325-8.222l-6.411 11.076-1.542 2.66-3.056 5.293h-.01l-30.973 53.492-11.366 19.627c3.711 4.502 7.4 9.117 11.266 13.503l11.36-19.615 34.028-58.775 3.027-5.224a95 95 0 0 0 26.703 8.087 96 96 0 0 0 14.238 1.051c4.84 0 9.592-.357 14.238-1.05a78 78 0 0 0 7.057-1.591c19.424-5.312 36.12-17.738 47.39-34.463 9.697-14.363 15.385-31.908 15.385-50.84 0-2.72-.116-5.409-.357-8.07z" style="fill:#fff" transform="translate(-37.192 -13.23)scale(.26458)"></path><path d="M420.224 447.311c-7.363 23.817-11.453 35.543-11.453 35.543-15.272 1.09-39.36-.364-39.36-.364-5-8.635-11.272-34.724-11.272-34.724 19.27-16.544 30.27-21.817 30.27-21.817 12.453 4.546 31.815 21.362 31.815 21.362m31.089-28.543s-12.363-16.726-38.179-22.18l3.5 4.045s-16.226 1.5-28.498 7.773c-2.863 1.363-21.407-4.773-21.407-4.773s-14.303 6.954-22.968 21.271c0 0 2.515-2.181 5.378-3.272 0 0-6.135 11.999-6 23.18 0 0-7.226 10.09-9.135 21.543 0 0-1.727-3.045-2.181-6.408 0 0-4.636 26.907 13.726 44.723 0 0-4.364-8.453-4.909-14.362 0 0 8.454 7.09 21.453 9.908 0 0 9.363 13.635 22.907 21.635 0 0-2.909 2.727-14.271 3.727 0 0 21.68 14.499 55.222 1.954 0 0-10.09-.682-16.226-3.818 0 0 12.817-14.317 15.954-25.361 0 0 18.134-2.864 27.406-10.636 0 0 1.773 12.136-1.636 20.453 0 0 18.271-12.135 16.499-52.36 0 0-6.818 7.773-12.272 9.818 0 0-9-16.771-19.226-25.361 0 0 1.5-12.681 1.228-24.68 0 0 6.954.5 13.635 3.182zM259.42 181.288l-26.907 33.088-17.453-33.088h-28.725l31.633 53.814-4.726 30.543h22.18l4.726-30.907 47.996-53.45zm215.978 0-26.906 33.088-17.454-33.088h-28.724l31.633 53.814-4.726 30.543h22.18l4.726-30.907 47.996-53.45zm-94.352 84.357 13.817-84.357h-22.907l-8.909 62.358h-2.363l-26.907-62.358H295.78l-13.453 84.357h22.543l9.272-63.631h2.353l26.554 63.63zm117.127 0h21.543l5.17-32.861h11.965l26.634 32.86h33.18l-37.997-43.587 47.053-40.77h-33.418l-32.361 30.771h-11.795l4.84-30.77h-21.543z" style="fill:#fff" transform="translate(-37.192 -13.23)scale(.26458)"></path><path d="M343.594 163.244s17.454-42.36 67.086-41.815c0 0-5.845 4.432-8.945 9.409 0 0 18.399-.818 29.489 5.908 0 0-2.91 1.091-9.09 4.727 0 0 23.634 7.09 33.27 20.908 0 0-18-15.817-51.27-11.454 0 0 2.364-6.277 6.364-8.593 0 0-13.999-2.133-26.725 1.503l5.636-9.454s-20.362-1-45.815 28.861" style="fill:#ff8200" transform="translate(-37.192 -13.23)scale(.26458)" data-source="https://football-logos.cc"></path><!-- source: https://football-logos.cc --></svg>