<svg xmlns="http://www.w3.org/2000/svg" viewBox="0 0 87.71 97.11"><!-- Source: https://football-logos.cc --><path fill="#fefefe" d="M87.317 41.35c.374-2.484.396-5.865.398-5.973.005-.609-.429-1.483-.96-1.78-1.395-.78-6.75-2.737-6.701-2.877.494-1.433.84-2.647 1.056-3.542.874-3.625.609-4.544.374-5.435s-4.896-8.152-16.74-15.319c-5.4-3.267-12.04-4.815-18.854-5.082-.482-.019-.98-.029-1.483-.029-3.343 0-6.185.415-7.189.582a10 10 0 0 0-2.267-.258c-.351 0-.875.013-.98.02-.04-.072-.704-1.522-2.824-1.65-.576-.035-1.57.066-2.203.398-3.294 1.725-7.385 4.536-9.157 5.88-2.257 1.71-1.927 3.523-1.92 3.56-3.223 2.342-4.782 4.167-6.144 5.683-.687-.032-.874-.125-5.31-4.373-1.053-1.008-1.63-.884-2.072-.884a1.663 1.663 0 0 0-1.658 1.788c.156 2.103.893 5.664 1.295 7.03.063 1.062.254 1.98.437 2.749.157.656.61 1.608.61 1.608.468.921 1.248 1.764 1.764 2.28.172 1.701.969 3.66 1.474 5.166-3.6 1.137-7.08 2.616-7.248 2.688-.635.27-1.067.91-1.01 1.597.913 11.084 2.615 14.09 3.036 14.898.247.471.538 1.097.905 1.323.048.577.15.971.282 1.42C11.331 77.175 31.522 90.33 39.9 94.999c2.333 1.305 3.804 1.95 3.865 1.977a1.66 1.66 0 0 0 1.332 0c.06-.026 1.602-.553 3.866-1.977 10.855-6.824 28.563-19.378 34.748-40.413.18-.612.921-2.905.89-3.654.78-1.313 2.093-5.45 2.716-9.581" data-source="https://football-logos.cc"></path><path fill="#fe6a2c" d="M44.335 44.23c-23.868 0-38.674 7.73-38.674 7.73 8.854 30.357 38.674 43.428 38.674 43.428s29.82-13.07 38.674-43.428c0 0-14.806-7.73-38.674-7.73"></path><path fill="#021d56" d="M44.335 44.23c-23.868 0-38.674 7.73-38.674 7.73l3.545 1.874c5.544 28.624 35.13 41.554 35.13 41.554s29.584-12.93 35.128-41.554l3.545-1.874s-14.806-7.73-38.674-7.73"></path><path fill="#fff" d="M74.728 48.733c-1.032 5.054-4.995 19.996-17.672 33.818H31.614C18.938 68.73 14.976 53.787 13.944 48.733c-.63.2-1.23.398-1.791.591 6.341 33.426 32.183 46.063 32.183 46.063S70.18 82.75 76.52 49.324a10.4 10.4 0 0 0-1.792-.591"></path><path fill="#fe6a2c" d="M44.335 70.59v.156L17.663 60.61q-.04-.1-.082-.199l14.401-15.476q.282-.033.565-.063c.036 2.49.867 13.075 11.787 23.403zm-5.198 10.432q0 .78-.118 1.53h-7.403a74 74 0 0 1-7.606-9.85 9.8 9.8 0 0 1 5.276-1.53c5.44 0 9.85 4.41 9.85 9.85"></path><path fill="#feffff" d="M64.044 73.643a74 74 0 0 1-3.542 4.865l-16.167.016v-3.935h11.797c1.405 0 2.154-.626 2.78-1 .624-.375 1.593-.78 2.311-.78.616-.001 1.614-.083 2.82.834m4.159-7.02a76 76 0 0 1-2.223 3.966h-2.913c-1.468 0-1.998-.5-2.593-.904-.594-.407-1.343-1.093-2.842-1.093s-2.279.78-2.905 1.247c-.624.469-1.842.75-3.028.75h-7.363v-3.966h2.833c1.436 0 2.311-.312 2.998-.719s1.998-1.436 3.747-1.436 2.561.812 3.312 1.375 1.093.78 2.404.78zm.04-19.675h-5.379c-2.998 0-2.998-.517-3.796-1.171-.795-.657-1.967-.937-3.372 0s-1.5 1.17-3.842 1.17h-7.517v-2.716c9.11-.438 17.231.874 23.906 2.717m-.273 11.15c-2.423 1.638-9.144.542-12.556.843-2.03 0-4.091.156-5.495-1-2.1-2.005-3.924-2.32-5.583-1.336v6.014c2.295-.365 3.69-2.343 5.863-2.399 1.03 0 1.608.312 2.825 1.25s1.89 1.125 4.076 1.125h13.05a76 76 0 0 0 1.574-3.783c-1.21-1.03-2.658-1.526-3.754-.714m-.937-7.168c-2.154 0-2.67-.048-4.1-1.055-1.427-1.007-2.505-.42-3.207 0-.703.423-1.078 1.07-3.701 1.07H44.336v1.34c1.284 1.41 2.867 2.563 5.02 2.563h9.65c2.155 0 3.216.25 4.748-.735 1.53-.983 2.389-.374 3.09 0 .704.376 1.313.735 2.999.735h3.27a64 64 0 0 0 1.115-3.92h-7.196z" data-source="https://football-logos.cc"></path><path fill="#021d56" d="M77.744 32.113s.265-.766.624-1.943c.32-1.036.693-2.304.928-3.332.357-1.425.682-2.957.854-4.347 0 0-5.2-8.526-16.305-14.675-5.51-3.052-11.757-4.626-18.113-4.875-4.59-.18-8.682.592-8.682.592s-1.343-.436-3.06-.25c-1.72.19-1.625-.156-2.126-1.029-.5-.875-1.375-.844-2.311-.407s-3.717 2.03-4.997 2.874c-1.28.842-2.906 1.967-3.935 2.748-1.032.78-.968 1.247-.907 1.625.064.374.157 1.154.157 1.154-4.199 2.89-7.206 6.228-8.282 7.499a9.8 9.8 0 0 1-2.555-1.019c-1.78-1.03-4.685-4.045-4.685-4.045.437 5.871 3.342 8.682 3.342 8.682-.738-.124-3.442-1.605-3.528-1.653.091.098 3.288 3.474 3.995 4.12.72.657.937.625.937.625l-.717.78c.374 2.498 1.935 6.684 1.935 6.684-4.06 1.125-8.743 3.123-8.743 3.123.436 10.931 3.153 14.492 3.153 14.492 3.749-1.687 18.648-7.558 39.612-7.558 22.651 0 38.673 7.558 38.673 7.558 2.91-3.96 3.011-14.274 3.011-14.274-1.84-1.025-8.275-3.15-8.275-3.15"></path><path fill="#fff" d="M17.56 16.824c-.843 1.032-1.31 1.267-3.045 1.267-.624 0-1.277-.043-1.943-.147 2.138-1.77 6.628-3.838 6.628-3.838-.28.985-.796 1.689-1.64 2.718m48.848-1.859c-.408-.061-.968-.125-1.25-.812s-.47-1.076-1.032-1.31c-.562-.235-.984 0-2.437.561s-2.108 1.03-6.277-.656c-4.17-1.687-6.84-3.889-6.84-3.889s6.981.328 15.554 3.28c2.401.827 4.617 1.869 6.565 2.944-.804.37-1.952.821-2.35.6-.56-.312-1.527-.654-1.933-.718M33.802 27.552l1.397-1.885s4.814-.122 6.255-1.44l3.116 3.069c0-.002-8.023.08-10.768.256M19.404 42.716s-.906.312-1.483.515c-.104.036-.213.003-.315-.063a2.46 2.46 0 0 0 1.105-2.731l-1.644-6.167a2.463 2.463 0 0 0-3.004-1.74l-2.518.672a2.463 2.463 0 0 0-1.74 3.003l1.644 6.167a2.463 2.463 0 0 0 3.004 1.74l2-.533c.053.168.117.358.173.495.124.312.593.594 1.467.344s1.64-.531 1.64-.531zm-4.026-.186a1.296 1.296 0 0 1-1.581-.915l-1.58-5.92c-.182-.687.23-1.399.917-1.582s1.398.229 1.581.916l1.579 5.92a1.296 1.296 0 0 1-.916 1.581m15.238-4.488-.879-5.903a2.664 2.664 0 0 0-3.027-2.243l-4.858.722 1.662 11.173 4.858-.723a2.663 2.663 0 0 0 2.244-3.026m-3.692 1.922-1.246.185-1.254-8.436 1.246-.186a1.345 1.345 0 0 1 1.527 1.132l.859 5.778a1.343 1.343 0 0 1-1.132 1.527m7.827-11.054.407 11.33 2.608-.095-.18-5.03 2.38-.092.182 5.053 2.607-.094-.407-11.33-2.608.093.18 5.01-2.38.093-.18-5.032zm21.776.528-.742 11.239c-.011-.002-.63-.04-.641-.043-.146-.152-6.192-6.528-6.489-6.843l-.412 6.253-1.193-.08.742-11.24.69.048 6.439 6.85.414-6.263zm7.085 6.336.718-3.674 3.686.7.226-1.244-6.118-1.225-2.2 10.987 2.462.492.957-4.782 2.518.362.176-1.264zm13.405 7.347a1.555 1.555 0 0 1-1.863.8l-.681-.214a1.557 1.557 0 0 1-1.019-1.952l1.712-5.446a1.557 1.557 0 0 1 1.952-1.018l.681.214a1.56 1.56 0 0 1 1.065 1.763l1.262.358.022-.072a2.58 2.58 0 0 0-1.688-3.237l-2.375-.746a2.58 2.58 0 0 0-3.237 1.688l-1.895 6.03a2.58 2.58 0 0 0 1.688 3.238l2.375.746a2.58 2.58 0 0 0 3.237-1.688l.033-.107zm3.134-20.628c-.06.89-.234 1.78-.474 2.719-1.334-1.31-4.228-4.091-6.305-5.654 0 0-2.061 5.56-2.654 6.121 0 0-2.311-2.56-2.061-6.245.188-.125 5.933-2.062 5.933-2.062s3.218 2.561 3.437 2.748c.128.108.247.049.294-.152 1.196 1.295 1.83 2.525 1.83 2.525"></path><path fill="#fe6a2c" d="M6.225 16.098s3.232 4.24 14.288 4.146c0 0-1.233-1.156-1.483-1.53s-.5-.625-.063-1.124 2.998-2.905 2.561-8.682c0 0 3.435-2.968 8.62-2.467 0 0-1.311-1.405-2.78-1.468 0 0 1.842-1.343 3.622-2.061 0 0 .094.593.656 1.123.562.532.969.657 2.843.594s4.083.25 6.965 1.75C43.186 7.644 55.507 17.34 55.507 17.34s-2.67-3.701-3.138-4.59c0 0 3.186 1.687 5.06 2.249s3.28.609 6.465-.797c0 0 2.998 6.653 4.029 8.854s2.014 4.498 5.341 6.184l.375 1.874s-6.605-1.78-10.587-2.202c0 0-2.858-1.874-4.216-5.434 0 0-.047 2.46 1.334 3.865 0 0-2.881.586-3.349.71-.811-.124-4.31-.468-5.903-.436-1.124-.532-5.012-2.125-6.325-2.592-.796-.75-2.342-2.155-2.342-2.155s-3.654.282-5.668 0c0 0-.844-4.45-2.155-5.856 0 0 .187 3.186-.047 5.435s-.61 3.607-1.031 4.356-1.405 2.249-1.311 3.654c0 0-.75-2.061-2.623-2.014s-2.764 2.202-5.81 6.23c0 0-1.31-1.17-2.623-.514 0 0 .656-5.247-4.169-6.934 0 0 1.078-1.64.095-2.39s-2.718-2.06-3.28-2.528c-.003-.005-4.922-.614-7.404-6.212"></path><path fill="#021d56" d="M42.655 86.293c-.158.11-.318.216-.473.329-.28.204-.612.263-.966.227-.725-.072-1.21-.483-1.31-1.088-.078-.466.016-.901.364-1.279.4-.434.94-.628 1.593-.59.775.046 1.226.43 1.463 1.018.153.377.173.765.127 1.157a2.6 2.6 0 0 1-.468 1.247c-.385.54-.939.921-1.617 1.18-.252.095-.52.159-.78.24a.2.2 0 0 1-.16-.013c-.048-.024-.101-.04-.15-.066-.02-.01-.034-.031-.052-.05.02-.012.039-.033.062-.038a4 4 0 0 0 1.063-.382c.687-.372 1.125-.885 1.276-1.562.024-.107.032-.216.046-.325q-.007 0-.018-.005m.097-.973a1.5 1.5 0 0 0-.229-.778c-.12-.186-.284-.341-.54-.394-.478-.099-1.039.024-1.273.516-.099.21-.128.429-.12.65.006.266.074.518.255.743.418.522 1.293.515 1.7-.013.154-.2.214-.421.207-.724m3.894.974c-.156.108-.315.214-.467.326-.276.203-.605.256-.957.233-.604-.04-1.2-.387-1.321-1.087-.082-.467.015-.902.36-1.28.399-.435.94-.63 1.592-.592.775.044 1.228.426 1.466 1.014.152.372.172.756.13 1.145a2.6 2.6 0 0 1-.46 1.248c-.384.546-.942.931-1.624 1.192-.254.097-.525.165-.79.24a.3.3 0 0 1-.141-.01 1 1 0 0 1-.165-.068c-.021-.01-.032-.033-.05-.05.02-.012.038-.03.06-.034a4.2 4.2 0 0 0 .975-.334c.706-.354 1.172-.858 1.35-1.535.034-.132.045-.266.066-.4zm-2.065-1.013c.007.264.065.536.258.776.248.31.68.454 1.105.358.364-.082.607-.289.716-.581.18-.476.097-.935-.197-1.366a.76.76 0 0 0-.484-.32c-.48-.096-1.039.024-1.273.516-.093.192-.117.393-.125.617m3.153 2.263.212-.068c.054.108.102.213.157.312.242.428.648.643 1.213.657.205.005.406-.006.596-.077.318-.119.512-.331.63-.595.126-.28.136-.567.043-.854-.129-.397-.447-.597-.954-.618-.246-.01-.47.042-.691.124-.027.01-.074.016-.09.004-.018-.014-.023-.052-.017-.075q.036-.149.085-.305.129.006.253.015c.641.047 1.166-.347 1.196-.905.027-.475-.423-.845-1.007-.83a1.5 1.5 0 0 0-.79.245.55.55 0 0 0-.24.3c-.026.086-.065.17-.092.256-.011.034-.027.049-.071.047-.067-.002-.133-.001-.207-.001.057-.203.133-.398.164-.598.042-.283.254-.44.53-.55a2.35 2.35 0 0 1 1.687-.031c.792.281.895 1.068.441 1.51-.17.167-.373.313-.562.467-.018.015-.039.027-.066.046.11.022.212.04.31.063q.124.03.242.072c.49.18.721.497.702.945a1.15 1.15 0 0 1-.307.734c-.533.593-1.24.903-2.135.887-.31-.006-.61-.084-.906-.164a.07.07 0 0 1-.044-.047 4 4 0 0 0-.282-.966m-11.78-2.604c-.02-.093-.04-.147-.06-.223-.013-.049.007-.067.059-.08.532-.153 1.316-.471 1.821-.682.047-.02.099-.036.143-.06a.19.19 0 0 1 .207 0v4.011c0 .077.008.152.014.228.01.13.093.214.243.241.11.021.227.028.34.038q.174.01.359.018v.195h-2.635v-.194q.185-.007.362-.018c.113-.007.225-.012.335-.029.177-.028.256-.105.274-.255q.014-.107.014-.214.003-1.624 0-3.248a2 2 0 0 0-.01-.194c-.01-.067-.128-.037-.2-.007-.317.135-.807.325-1.131.445-.04.013-.084.017-.135.028" data-source="https://football-logos.cc"></path><!-- source: https://football-logos.cc --></svg>