<svg xmlns="http://www.w3.org/2000/svg" xml:space="preserve" viewBox="0 0 89.93 89.18"><!-- Source: https://football-logos.cc --><path d="m44.489 72.662 38.168-7.464L44.54 45.067 6.41 64.774z" data-source="https://football-logos.cc"></path><path fill="#2454a4" d="M83.428 15.057C67.01 15.057 62.693 10.83 62.693 0H26.901c0 10.83-4.316 15.057-20.734 15.057 0 0-6.488 52.454 38.63 74.126 45.119-21.672 38.631-74.126 38.631-74.126"></path><path fill="#fff" d="M44.81 87.166c-9.635-4.779-17.549-11.395-23.548-19.707-4.946-6.847-8.608-14.85-10.895-23.792C7.246 31.462 7.58 20.773 7.85 16.868c7.773-.141 12.732-1.349 15.956-3.828 3.07-2.364 4.6-5.859 4.882-11.216H60.92c.27 5.357 1.812 8.852 4.882 11.216 3.225 2.492 8.183 3.687 15.956 3.828.27 3.905.59 14.594-2.518 26.799-2.287 8.941-5.948 16.945-10.894 23.792-5.987 8.3-13.914 14.928-23.536 19.707"></path><path fill="#2454a4" d="M44.81 86.293c-9.365-4.715-17.073-11.203-22.919-19.296-4.882-6.77-8.505-14.684-10.766-23.523-2.916-11.395-2.8-21.429-2.543-25.848 7.554-.206 12.41-1.439 15.699-3.97 3.109-2.39 4.74-5.91 5.138-11.048h30.769c.385 5.139 2.03 8.659 5.139 11.048 3.288 2.531 8.145 3.764 15.699 3.97.257 4.42.372 14.453-2.544 25.848-2.261 8.852-5.884 16.765-10.766 23.523-5.845 8.093-13.553 14.581-22.906 19.296"></path><path fill="#de632a" d="M62.526 10.599v62.654c-4.985 5.242-10.92 9.61-17.729 13.04-6.809-3.417-12.744-7.785-17.729-13.04V10.6c1.324-2.094 2.095-4.715 2.339-8.004h30.768c.27 3.289 1.028 5.91 2.351 8.004"></path><path fill="#2454a4" d="M45.08 42.28C21.377 42.28 0 51.965 0 51.965l6.41 12.808s18.436-7.785 34.88-8.055c16.444-.257 28.212 4.15 41.367 8.48l7.271-13.143s-20.696-9.777-44.848-9.777"></path><path fill="#fff" d="M81.976 63.477c-.68-.232-1.362-.45-2.03-.681-11.639-3.867-22.623-7.516-37.281-7.516-.463 0-.938 0-1.4.013-14.26.231-29.716 5.897-34.173 7.657l-5.14-10.265c2.082-.86 6.424-2.543 12.141-4.214 7.477-2.184 18.924-4.779 30.974-4.779 12.282 0 23.651 2.621 31.013 4.818 5.575 1.657 9.776 3.34 11.832 4.214z"></path><path d="m11.447 57.914-.501-2.094 1.014-.231.489 2.055 1.066-.244-1.195-4.959-1.053.27.45 1.888-1.016.245-.45-1.889-1.053.27 1.182 4.946zm5.716-1.978a.68.68 0 0 1-.244-.373c-.102-.385-.295-1.143-.372-1.426-.103-.398-.475-.9-1.092-.874s-1.002.193-1.31.45a1.19 1.19 0 0 0-.412 1.015c.039.347.052.347.052.347l.63-.154c-.566.398-.502.963-.476 1.143.038.18.193.848 1.015.848s1.246-.488 1.246-.488c.039.064.193.128.193.128l1.207-.295zm-2.004-1.658c.373-.09.399.077.399.077-.219.155-.771.386-.771.386 0-.27 0-.373.372-.463m.36 1.516c-.244.167-.437.154-.488.103-.064-.039-.18-.218.193-.373.372-.154.578-.282.578-.282.09.167-.039.385-.283.552M28.61 53.7a.63.63 0 0 1-.205-.385 50 50 0 0 0-.219-1.413c-.064-.386-.385-.913-1.015-.964s-1.028.077-1.362.283a1.13 1.13 0 0 0-.526.925c0 .334.013.334.013.334l.642-.077c-.617.308-.617.86-.604 1.04s.103.835.938.938c.822.103 1.31-.321 1.31-.321.039.064.18.154.18.154l1.26-.141zm-1.85-1.824c.386-.039.386.116.386.116-.245.115-.823.27-.823.27.039-.245.052-.348.437-.386m.193 1.49c-.27.129-.45.09-.514.039-.064-.052-.167-.232.244-.334.398-.09.617-.193.617-.193.077.167-.077.36-.347.488m27.479-.411a.64.64 0 0 1-.128-.424c.013-.398.051-1.182.064-1.477.013-.411-.193-1.015-.796-1.195-.604-.18-1.028-.141-1.4 0a1.15 1.15 0 0 0-.707.835c-.064.347-.052.347-.052.347l.656.064a1.06 1.06 0 0 0-.797.938c-.026.18-.064.873.732 1.143.797.27 1.362-.064 1.362-.064a.7.7 0 0 0 .141.193l1.272.103zm-1.464-2.235c.385.038.36.205.36.205-.257.077-.861.116-.861.116.09-.257.115-.36.5-.321m-.103 1.554c-.283.077-.462 0-.514-.064s-.115-.27.309-.283c.41-.013.642-.077.642-.077.051.18-.154.347-.437.424M19 55.936l-.23-1.118.256-.347 1.17 1.233 1.207-.218-1.799-1.812 1.054-1.438-1.336.23-.81 1.131L18 51.182l-1.003.206 1.015 4.715zm3.842-.81-.206-1.143.257-.334 1.144 1.272 1.194-.18-1.734-1.889 1.092-1.451-1.349.205-.822 1.13-.45-2.479-1.002.18.887 4.843zm11.626-3.854-.077-.963-1.696.128-.09-.95 2.249-.168-.09-.976-3.34.27.424 4.869 1.13-.09-.193-1.979zm2.737-1.786a1.749 1.749 0 0 0 0 3.495c.963 0 1.747-.784 1.747-1.747s-.784-1.748-1.747-1.748m.63 1.915a.63.63 0 0 1-1.259 0v-.334a.63.63 0 0 1 1.259 0zm3.314-2.146a1.71 1.71 0 0 0-1.709 1.722c0 .95.77 1.721 1.709 1.721.95 0 1.708-.77 1.708-1.721s-.77-1.722-1.708-1.722m.604 1.876a.617.617 0 0 1-1.233 0v-.321a.617.617 0 1 1 1.233 0zm4.085.668c-.18 0-.475.051-.475-.219v-1.36h1.13v-.887H45.35v-.989h-1.002c.012-.013.012.437 0 .99h-.951v.886h.938c0 .668-.013 1.284-.013 1.413.077 1.297 1.721 1.233 2.364.886v-1.092c.013.013-.386.373-.848.373m3.404-2.34c-.32-.025-.526.04-.68.13l.076-1.607-1.066-.051-.205 4.869 1.04.051v-.103c.18.103.424.18.72.18.95 0 1.541-.59 1.593-1.734.051-1.118-.643-1.657-1.478-1.734m-.18 2.532c-.398-.013-.565-.373-.578-.746l.013-.18c.039-.36.257-.706.565-.693.501.013.579.437.566.835s-.154.796-.566.784M79.06 55.91a1.12 1.12 0 0 0-.68-.077l.552-1.503-.977-.36-1.631 4.548.95.347.039-.09c.141.154.334.295.616.385.887.27 1.62-.116 2.005-1.169s-.103-1.773-.874-2.081m-.925 2.338c-.373-.128-.424-.514-.321-.874l.064-.167c.141-.32.45-.59.745-.488.463.154.411.591.296.95-.142.373-.386.707-.784.579m-20.529-9.417-.476 4.933-1.053-.077.475-4.946zm4.111.655-.784 4.87-1.04-.142.783-4.882zm10.611 2.557-1.374 4.728-1.015-.27 1.374-4.74zm-4.393.963 1.04.18s.013-.051.09-.475.013-1.555-1.233-1.799c-1.246-.257-2.043.861-2.261 2.133-.219 1.272-.077 2.197 1.079 2.608 1.105.283 1.978-.219 2.248-1.863l-1.08-.193s-.102.681-.243.913c-.141.23-.553.475-.874.012s.116-2.286.527-2.556.77-.064.784.308c.012.36-.077.732-.077.732m5.806 1.157.938.282s-.5 1.542-.642 1.992c-.244.758.86.68 1.156-.155.308-.937.488-1.516.488-1.516l.938.334-1.04 3.187-.964-.309.077-.205s-.514.167-1.028-.065c-.514-.23-.86-.68-.604-1.464.245-.784.681-2.081.681-2.081"></path><circle cx="393.1" cy="594.7" r="47.4" transform="translate(-6.423 -6.796)scale(.12847)" data-source="https://football-logos.cc"></circle><path d="M38.772 63.078h.193A4.765 4.765 0 0 1 42.87 58.8a6 6 0 0 0-2.955-.77 6.086 6.086 0 0 0-6.089 6.089c0 .784.154 1.516.424 2.21a4.75 4.75 0 0 1 4.522-3.25m-2.055 11.176c0-.63.128-1.22.346-1.76-1.772-.706-3.044-2.415-3.044-4.445v-.167a6.05 6.05 0 0 0-1.76 4.278 6.086 6.086 0 0 0 6.09 6.09c.166 0 .346-.013.513-.026a4.73 4.73 0 0 1-2.145-3.97m11.742-11.922c.372-.09.758-.141 1.156-.141a4.73 4.73 0 0 1 4.188 2.505q.116-.578.116-1.195a6.086 6.086 0 0 0-6.09-6.09c-1.426 0-2.75.502-3.79 1.311 2.146.129 3.919 1.619 4.42 3.61m5.588 2.967a4.8 4.8 0 0 1 .296 1.658 4.72 4.72 0 0 1-2.146 3.97c.45.732.707 1.567.707 2.48a4.8 4.8 0 0 1-1.067 3.006c2.852-.514 5.036-2.994 5.036-6 0-2.133-1.117-4.021-2.826-5.113m-5.82 13.027a4.7 4.7 0 0 1-2.942-1.028 4.74 4.74 0 0 1-3.635 1.67 4.65 4.65 0 0 1-1.837-.372c1.015 1.952 3.057 3.301 5.408 3.301a6.07 6.07 0 0 0 5.884-4.548 4.74 4.74 0 0 1-2.878.977"></path><path fill="#fff" d="M52.621 16.033s-1.991-1.657-7.336-4.278c-2.158-.976-4.573.205-4.573.205s-3.405-.668-5.344 2.351l.154-1.053s-2.094 1.811-2.608 2.287c-.514.475-.797 1.901-.257 3.019l-1.208 1.015s-.064.32.822.32l-3.507 2.108s-.32 2.197.99 3.687c1.297 1.49 2.453 2.248 2.864 2.44l.026-1.502s1.143 1.233 1.863 1.593l-.129-1.362s1.426-.039 1.44 3.751l-.874-.616.09 1.541s-.514.09-1.76-.745c0 0-.72 2.8 1.76 5.216 2.479 2.415 3.944 2.377 5.845 2.415 0 0-.655-.321-1.182-1.233 0 0 1.298.68 2.968-.129s2.865-1.862 3.199-2.35c.68-.078 2.453-.45 3.327-1.272.873-.823 1.863-2.056 2.325-3.097.95-.32 3.122-.822 6.848 0 0 0-.951-1.695-4.767-4.085 0 0 3.07.334 7.529 4.304 0 0-.514-2.634-3.2-5.177 0 0 1.041.205 2.455 1.631 0 0-4.022-9.815-11.409-11.357z"></path><path fill="#2c146c" d="M52.236 16.585s-5.717-3.648-7.297-4.02c-1.568-.386-2.326-.463-3.944.166 0 0-3.855-.424-5.088 2.454l.129-1.233s-2.004 1.785-2.39 2.17c-.385.386-.873 1.594-.218 2.763 0 0-1.13.796-1.092 1.092.025.308.912.154.912.154s-3.096 1.657-3.482 2.03c0 0-.822 3.327 3.585 5.768l-.489-1.529s.386-.09.938.489a11 11 0 0 0 1.298 1.117l-.167-1.374s.938.038 1.182 1.541c.257 1.503.102 1.863.102 1.863s-.423-.038-.59-.321c0 0-.193.784.128 1.542 0 0-.655-.103-1.76-.874 0 0-.527 2.544 1.31 4.6 1.85 2.055 2.75 2.414 5.807 2.633l-1.002-.95s2.21.886 5.678-2.57c0 0 2.274-.167 3.135-1.118.874-.95 2.158-3.032 2.158-3.032s2.968-.848 6.385 0c0 0-.45-1.182-4.24-3.725 0 0 2.249-.065 6.823 3.97 0 0-.232-2.185-2.994-4.934 0 0 1.246.514 2.287 1.529 0 0-4.265-9.584-10.368-10.496.026.013 1.889-.064 3.264.295"></path><path fill="#e60012" d="M38.335 19.206s-1.541 0-3.096 1.555l3.597.514 1.426-2.069zm-5.228 1.002h.963v-.244h.27v-.218c0-.103-.077-.103-.18-.103h-.475c-.129 0-.232.026-.232.154v.141c-.012.013-.346-.025-.346.27"></path><path fill="#fff" d="M38.374 15.712c-.013 0-.026 0-.039-.026-.013-.013-.025-.026-.025-.038s.012-.026.025-.039 1.722-1.683 2.647-2.338c.013-.013.025-.013.038-.013s.039.013.052.026.012.038.012.051-.012.026-.025.039c-.835.565-2.415 2.094-2.621 2.312-.039.013-.051.026-.064.026m17.729 8.582c-.013 0-.039-.013-.052-.039-2.055-3.07-4.406-5.062-5.974-5.062h-.269c-.925 0-2.467-.475-4.356-1.336a1 1 0 0 0-.09-.038l-.025-.013v-.026c-.039-.321-.27-.938-.681-1.503-.334-.462-.874-1.04-1.593-1.169a2 2 0 0 0-.424-.039c-1.118 0-2.094.823-2.107.823-.013.012-.026.012-.038.012a.1.1 0 0 1-.052-.025c-.013-.013-.013-.026-.013-.039s.013-.038.026-.051c.244-.193 1.143-.835 2.184-.835.154 0 .295.013.437.038 1.297.257 2.21 1.876 2.364 2.724v.038l.025.013c.296.142 2.878 1.336 4.343 1.336h.269c1.606 0 3.996 2.005 6.077 5.113a.08.08 0 0 1 0 .078z"></path><path fill="#fff" d="M52.647 21.66c-.026 0-.039-.013-.052-.026-1.066-1.297-2.582-1.927-4.663-1.927-.745 0-1.439.077-1.901.142-.09.012-.18.025-.245.025-.154.013-.282.026-.423.026-1.234 0-1.889-.668-2.467-1.246-.565-.566-1.555-1.208-1.696-1.26h.026c-.013-.012-.026-.025-.026-.038s0-.038.013-.051c.013-.026.038-.026.051-.026s.026 0 .039.013l.026.013c.398.244 1.143.732 1.67 1.272.59.59 1.207 1.207 2.376 1.207.129 0 .27-.013.399-.025.038-.013.077-.013.128-.013.039 0 .09-.013.129-.013.45-.052 1.13-.129 1.862-.129 2.12 0 3.739.656 4.805 1.966.013.013.013.051 0 .077-.013 0-.026.013-.026.013zm2.158 4.42h-.039c-2.068-1.093-3.622-1.607-4.881-1.607-.527 0-.925.09-1.272.155H48.6c-.206.05-.424.09-.63.115-.064 0-.14.013-.205.013-1.143 0-2.402-.707-2.415-.72-.026-.012-.039-.038-.039-.05v-.026c.026-.026.039-.039.064-.039h.013c.026.026 1.31.707 2.39.707.064 0 .128 0 .192-.013.142-.013.296-.039.45-.077a.6.6 0 0 1 .167-.026c.373-.077.784-.167 1.323-.167 1.285 0 2.852.514 4.934 1.619a.2.2 0 0 1 .038.051v.026l-.013.013v.025zm.925 3.108h-.039c-1.092-.565-2.235-.848-3.365-.848s-1.94.283-2.223.411c-.59.245-1.08.347-1.632.347-.462 0-.95-.064-1.567-.154l-.064-.013-.334-.051c-1.619-.231-3.893-2.223-3.906-2.248-.012-.013-.038-.065-.012-.09a.1.1 0 0 1 .051-.026c.013 0 .026 0 .038.013.026.026 2.3 1.991 3.855 2.222l.334.052h.038c.617.09 1.118.154 1.567.154.553 0 1.028-.103 1.593-.334a6.2 6.2 0 0 1 2.274-.411c1.157 0 2.3.282 3.405.86.013.013.026.013.026.026v.077c0 .013-.026.013-.039.013m-8.132 1.927a.8.8 0 0 1-.45-.128c-.025-.013-.025-.026-.038-.039 0-.013 0-.038.013-.051a.1.1 0 0 1 .05-.026c.014 0 .027 0 .04.013.154.09.295.103.385.103q.327 0 .617-.27a.2.2 0 0 1 .064-.051c.025-.026.051-.039.064-.065.398-.36.86-.77 1.413-.77.154 0 .308.025.463.09.038.012.051.05.038.077a.07.07 0 0 1-.064.038h-.013a1.3 1.3 0 0 0-.411-.09c-.514 0-.925.386-1.323.758a.3.3 0 0 0-.064.052c-.026.012-.039.038-.065.05-.244.22-.475.31-.72.31m-3.956 2.826c-.784 0-1.439-.63-1.567-.758a.1.1 0 0 1-.026-.052c0-.013.013-.025.026-.038s.025-.026.038-.026.026.013.039.026c.077.077.72.72 1.477.72.141 0 .283-.027.424-.065h.026a.07.07 0 0 1 .064.038c.013.013 0 .039 0 .052l-.038.038a1.8 1.8 0 0 1-.463.065m-2.762 2.184c-.514 0-1.066-.18-1.632-.54a5 5 0 0 1-.976-.835l-.013-.013c-.013-.013-.013-.026-.013-.038s.013-.039.026-.052.026-.013.026-.013c.013 0 .038.013.051.026.206.231 1.26 1.349 2.518 1.349.206 0 .411-.026.617-.09h.025c.026 0 .039.013.052.039.013.025.013.038 0 .05a.03.03 0 0 1-.026.027 2.3 2.3 0 0 1-.655.09"></path><path fill="#fff" d="M42.24 31.796s-1.4-1.657-1.361-3.057 0-1.4 0-2.159-.758-2.749-5.717-1.991l1.991-.81-3.096-.09s2.84-.423 3.906-1.104c1.053-.681 2.505-1.863 3.52-1.901s1.811-.039 2.39.334l-2.647-3.61s.989-.604 1.246-.771.976-.257 1.426.32h-1.272v.206h.27c.154 0 .385.026.385.45 0 .411.334 1.246.848 1.195.514-.039.578-1.336.578-1.696s-.72-1.58-2.094-1.606c-1.374-.025-3.237 1.413-4.278 3.7h1.927s-1.58 1.67-1.914.848h-.193s-.5.9-.77.398c-.206-.257-.681.09-.823.257-.141.154-.526.129-.758-.115-.244-.244-1.567.295-1.99.809-.425.514-.117 1.182-.49 1.259-.372.077-1.387.501-1.374 1.298.013.796.424 1.618 1.799 1.785s2.39-.437 2.75-.54c.359-.102 2.825-.012 2.825 2.082v1.721c0 .476-.385 2.017-1.246 2.056-.86.038-2.197-.9-2.197-.9s.103 1.08.476 1.427c0 0-.797.154-2.03-.694 0 0-.475 2.017.95 2.736l.014-.642s1.4 1.567 3.738 1.375l-.424-.9s1.22.193 2.993-.745l-.809-.9zm-11.703-8.62c.141-.18.95.398 1.182 1.169.231.758.103 1.593-.154 1.67-.244.077-1.747-1.953-1.028-2.84"></path><path fill="#fff" d="M33.71 26.015h.964l.013 1.349zm-1.439-.025s.335 1.053.63 1.374c0 0-.81-.206-1.246-1.015z" data-source="https://football-logos.cc"></path><!-- source: https://football-logos.cc --></svg>