<svg xmlns="http://www.w3.org/2000/svg" xml:space="preserve" id="图层_1" x="0" y="0" version="1.1" viewBox="1 1 178.33 250"><!-- Source: https://football-logos.cc --><style id="style2" type="text/css" data-source="https://football-logos.cc">.st0{fill:#d0121b}.st1{fill:#fff}.st2{fill:#00901a}.st3{fill:#231815}.st5{fill:#f6debd}.st6{fill:#be8a3b}.st7{fill:#cf0916}.st8{fill:#a6cad8}.st9{fill:none;stroke:#231815;stroke-width:.5;stroke-miterlimit:22.9256}.st10{fill:#be8740}.st11{fill:#bc8941}.st15{fill:#ffe100}.st19{fill:#fadf1b}.st20{fill:#fdfdfd}</style><g id="g408" transform="translate(-52.67 -16.855)scale(.35709)" data-source="https://football-logos.cc"><g id="g8"><path id="rect4" d="M150.3 50h499.3v102.7H150.3z" class="st0" style="fill:#d0121b"></path><path id="path6" d="M400 159.7H150.3v365.2c0 44.3 52.5 199.5 249.7 225.2 197.2-25.7 249.7-180.8 249.7-225.2V159.7Z" class="st0" style="fill:#d0121b"></path></g><path id="rect10" d="M179.5 183.1h441v341.8h-441z" class="st1" style="fill:#fff"></path><g id="g42"><path id="path12" d="M298.9 188.2s-25.6 15.2-34 43.8c0-.1 25.4-18.8 34-43.8" class="st2" style="fill:#00901a"></path><path id="path14" d="M267.3 209.9s-27.1 22.3-20.3 61.7c0 0 25-18.2 35.8-46.5 0 0-20.9 22.6-27.1 24.7 0 0 2.4-22.9 11.6-39.9" class="st2" style="fill:#00901a"></path><path id="path16" d="M241.4 244.2s-18.8 40.8-.3 69.1c0 0 26.8-45.3 31-59 0 0-24.1 29.8-30.4 31.6 0 0-2.7-28.6-.3-41.7" class="st2" style="fill:#00901a"></path><path id="path18" d="M225.2 278.7s-9.4 51.2 19.5 76.3c0 0 14.9-44.1 14.6-62.3 0 0-14.6 33.7-18.5 36.6 0 .1-10.7-9.2-15.6-50.6" class="st2" style="fill:#00901a"></path><path id="path20" d="M218.2 327.9s.6 27.4 13.4 39.9l27.4 27.4s-1.8-11.6.6-32.2c.6-4.8 1.2-23.5-.6-40.2 0 0-10.4 33.4-10.4 46.2-.1 0-12-2.1-30.4-41.1" class="st2" style="fill:#00901a"></path><path id="path22" d="M225 374.4s15.2 24.1 41.4 36.1c0 0-5.1-34.6-2.7-48 0 0 18.2 62.9 21.7 69.4.1 0-47.9-7.5-60.4-57.5" class="st2" style="fill:#00901a"></path><path id="path24" d="M240.5 420s35.8 25 49.8 21.7c5.2-1.2.9-13.1-7.9-40.4 0 0 17.4 22.5 17.1 28.5-.6 14.9-21.2 18.2-21.2 18.2s-21.4 6.5-37.8-28" class="st2" style="fill:#00901a"></path><path id="path26" d="M501.1 188.2s25.6 15.2 34 43.8c0-.1-25.4-18.8-34-43.8" class="st2" style="fill:#00901a"></path><path id="path28" d="M532.7 209.9s27.1 22.3 20.3 61.7c0 0-25-18.2-35.8-46.5 0 0 20.9 22.6 27.1 24.7 0 0-2.4-22.9-11.6-39.9" class="st2" style="fill:#00901a"></path><path id="path30" d="M558.6 244.2s18.8 40.8.3 69.1c0 0-26.8-45.3-31-59 0 0 24.1 29.8 30.4 31.6 0 0 2.7-28.6.3-41.7" class="st2" style="fill:#00901a"></path><path id="path32" d="M574.8 278.7s9.4 51.2-19.5 76.3c0 0-14.9-44.1-14.6-62.3 0 0 14.6 33.7 18.5 36.6 0 .1 10.7-9.2 15.6-50.6" class="st2" style="fill:#00901a"></path><path id="path34" d="M581.8 327.9s-.6 27.4-13.4 39.9L541 395.2s1.8-11.6-.6-32.2c-.6-4.8-1.2-23.5.6-40.2 0 0 10.4 33.4 10.4 46.2.1 0 12-2.1 30.4-41.1" class="st2" style="fill:#00901a"></path><path id="path36" d="M575 374.4s-15.2 24.1-41.4 36.1c0 0 5.1-34.6 2.7-48 0 0-18.2 62.9-21.8 69.4 0 0 48-7.5 60.5-57.5" class="st2" style="fill:#00901a"></path><path id="path38" d="M559.5 420s-35.8 25-49.8 21.7c-5.2-1.2-.9-13.1 7.9-40.4 0 0-17.4 22.5-17.1 28.5.6 14.9 21.2 18.2 21.2 18.2s21.4 6.5 37.8-28" class="st2" style="fill:#00901a"></path><path id="path40" d="M301.6 467.5s2.4-2 15 1.2c2.8.7 22.2 4.9 35 3.2 5.2-.7 36.2 4.3 46 9.4 2.3 1.2 6.3.8 11.8-2.4 1.4-.8 23.6-9.8 39.8-7.9 4.3.5 38.2-4.7 47.2-5.9 0 0 .8 9.8 0 12.6l8.7 3.5s-17.7 19.7-77.5 10.2c0 0 24.4 9.4 31.5 22.8 1.8 3.4 2.8 10.6-5.5 3.9s-32.3-26.4-52-26-44.1 14.6-55.1 26c-2.4 2.4-11 3.9-4.7-4.7 3.6-4.9 21.3-16.9 31.1-21.6 0 0-52.7 12.2-77.9-10.2l9.4-1.2c-.1 0 1.1-9-2.8-12.9" class="st2" style="fill:#00901a"></path></g><path id="path44" d="M303.2 216.4h-1.4l-.3 1.4C279.4 333.6 307 391.9 334 420.3c26.8 28.3 58.5 33.9 66.9 32.7 34.1-4.7 60.5-20.3 78.2-46.2 24.4-35.8 28.2-85.3 27-120.5-1.3-38.1-8.4-68.2-8.5-68.5l-.3-1.3H303.2Z" class="st3" style="fill:#231815"></path><path id="path46" d="M303.3 218.1h192.9s51 213.1-95.4 233.2c-14.9 2-137.8-21.9-97.5-233.2" style="fill:#db3c11"></path><g id="g260"><g id="g176"><path id="path48" d="M433.1 260.2s7.4-.7 11.6-.3c0 0-2.4 9.8-8.3 11.7 0 0 .8-6.8-3.3-11.4" class="st3" style="fill:#231815"></path><g id="g174"><g id="g154"><g id="g140"><path id="path50" d="M377 270.2s3 6 6.3 6.1c0 0-4.8-3.1-2.7-13.6 0 0 2 3.7 3 4.5 2.4 1.9 3.5 1.1 2.7-1.4-.5-1.7-3.4-1.6-2.7-16.2 0 0 6.4.6 9.1 2.7 1.4 1.1 2.1 3.3 16.1 1.5 1.8-.2 13.3-1 15.9-.1 2.7.9 13.3 7.3 12.1 16.1-.5 3.9.7 4.8-5.4 18.2-.5 1.1 3.4-.2 2.2 5.1-.4 1.9.6 5.4-4.8 7.4-1.6.6-6.6 1.2-8.9 5.4-.6 1.1-3.3 4-5.7 4.2-2.4.1-10.3.7-15.6-2.5-1.6-1.1-24.9-20.4-21.6-37.4" class="st3" style="fill:#231815"></path><path id="path52" d="M384.6 251.1s5.7-.5 12.1 5c0 0-1.1 3.8 4 4.1 1.2.1 7.5 1.6 7.3-2.9 0-1-1-2.9-1-2.9s8.8-1.6 15.9 7.3c0 0 1.5-2.3-2.1-8 0 0 11 2.7 14.5 11.3.6 1.4 2.9 7.1-4 19.6-.8 1.4.3 13.1.3 13.1s-3.4 2.7-7.6 3.8c-1 .3-2.2.6-3.5 2.1s-4.7 5.4-6.1 5.7-11.4.4-15.2-2.5c-.9-.7-20.2-17.1-21.5-33.1 0 0 3 4.5 6.6 4.1 0 0 1.9.3-1.8-4.1-1.3-1.6-2.4-4.2-1.6-8.3 0 0 8.1 10.1 5.8-.8-.4-2.6-3-1.5-2.1-13.5" class="st5" style="fill:#f6debd"></path><g id="g138"><g id="g58"><path id="path54" d="m384.5 252-.5.1-.2 7.7.9-.3c.3-.1.6-.1.7 0 .4.2.5 1 .7 1.8s.4 1.6.8 2.2c1.3 1.8 2.7 2.2 3.6 2.2 1.3 0 2.3-.7 2.7-1.3 2.9-4 .5-6.8-1.4-9-3.5-4.2-7.2-3.4-7.3-3.4" class="st3" style="fill:#231815"></path><path id="path56" d="M384.6 252.7s3.4-.7 6.7 3.1c1.9 2.3 3.9 4.6 1.3 8.2-.7 1-3.1 2.1-5.2-.9-1-1.5-.4-4.9-3-4.2z" class="st6" style="fill:#be8a3b"></path></g><g id="g136"><g id="g132"><g id="g64"><path id="path60" d="M386.1 268.9s.6.9 5.2 1.6c1.3.2 3.3 1.9 2.4 5.4-.2.8-1.5 2.1-3.7.9-.7-.4-1.2-3.1 1.3-3.9 0 0-2.4-1.2-2.7 2.2s2.7 3.3 2.7 3.3-.1 10.6 2.1 11.9c.8.5 1 1.2 1.2 2.2s1.5 7.2 12.8 8.9c1.6.3 7.6 1 8.8-3.9l1.6.1s-2.1 6.9-6.3 6.7c-1.2 0-8.5-1-13.6-3.9-.9-.5-1.8-.3 1.8 1.5s8 4 12.2 3.6c1.5-.2 6.9-2.2 7.4-7.4.2-1.5-5.4-1.3-6.3-1.4s-10.1-1.9-15.5-7.5c-1.8-1.9-4.9-4.6-5.1-10.9 0 0 2.1-.7 2.1-5.7 0-2.7-3-3.3-4.5-3.4s-3.9.3-3.6-.9z" class="st3" style="fill:#231815"></path><path id="path62" d="M397.1 295.4s13.1-1.6 14.7 5.4c.1 0-8.3 2.2-14.7-5.4" class="st7" style="fill:#cf0916"></path></g><g id="g130"><g id="g70"><path id="path66" d="M397.7 279q-3.6.75-5.7 6.3c-.3.8-.4 2.5-.5 4.3-.1 1.4-.2 2.8-.4 3.3-.5 1.8-2.1 5.1-3.2 5.2-1.5.2-6.9-.2-10.5-14.6l-1.4-4.2.4 4.4c0 .3.7 8.5 6.1 14.9.6.7 2.6 2.1 4 2 3.4-.3 5.7-2.4 6.3-6l.1-.8c.3-2.1 1.1-7.6 2.8-10.5.7-1.2 1.6-1.9 2.2-1.9.4 0 1.5.4 2.2 1.2.6.6.8 1.3.7 2-.1 1.1-.4 1.5-.8 1.7-.6.4-1.3 2-1.2 3.5.1 1.1.6 2 1.6 2.5l.3.2c1.1.8 4.5 3.3 12.8 5.1 1.6.4 14.1 1.4 17.6-.7.6-.4 2.7-2.3 2.7-4.4v-.2c-.1-1.3-.9-2.3-2.5-3-.7-.3-1.6-.4-2.2-.4.3-.8 1.4-2.1 4.8-2 .2 0 1 .2 1.6.9.5.5 1 1.4.9 2.8l-.3 1.1c-.5 1.6-1.3 4.4-1.1 7.3.1 1.4.8 3.8 4.2 4.1 1.2.1 6.4-1.4 8.1-4.1l3.3-4.1-4 3.4s-4.7 2.7-7.2 2.7c-1 0-1.7-.3-2.2-.8-.6-.7-.8-1.8-.5-3.1l.5-2c.6-2 1.4-4.6.5-8.2-.2-.7-1-1.5-2.2-2-.9-.4-3.2-1.1-5.5.3l-.6.3c-.5.2-1.2.5-2.3 1.2-.8.6-2.4.9-2.7.8-.5-.3-1.9-1.2-2.6-2.2-.8-1.2-1.8-3.1-5.6-2.8l-.7-.1c-1 0-1.2.2-2 .8-.8.5-1.5.8-3.2.8 0 0-4.6.1-5.6.4-.3-.1-1.4-1.3-1.9-2.4-.5-1.3-3-3.4-5.1-3" class="st3" style="fill:#231815"></path><path id="path68" d="M376.9 283.7s.6 8.2 6 14.6c.6.7 2.4 1.9 3.6 1.8s5-.6 5.9-5.6c.2-1 .9-7.9 3-11.4.6-1.1 1.7-2.2 2.7-2.2s3.7 1.3 3.5 3.8c-.1 1.1-.4 1.7-1 2.1s-2.1 3.9.3 5.1c.6.3 3.5 3.2 13 5.3 1.5.3 13.9 1.3 17.2-.6.9-.5 4.9-4.6.2-6.7-1-.5-2.7-.3-2.7-.3s.2-3.2 5.5-3.1c.8 0 3.2 1.2 3 4.3-.1.8-1.7 4.5-1.4 8.3.1 1.5.9 3.4 3.8 3.7 1 .1 6.1-1.4 7.6-3.9 0 0-4.8 2.8-7.4 2.8-2.7 0-3.6-2-3.2-4.5s2.1-5.3 1-10c-.3-1.2-3.9-3.2-7-1.3-.5.3-1.3.4-2.9 1.5-.8.6-2.6 1.1-3.2.8s-2-1.3-2.8-2.4-1.8-2.5-5.3-2.3c-1.4.1-1.5 0-2.4.6s-1.7.6-3.5.6c-.7 0-5.2.2-5.6.4s-1.9-1.4-2.4-2.7-2.8-3.3-4.7-2.9-3.8 1.9-5.4 6c-.5 1.3-.5 6.4-.9 7.6-.4 1.3-2.1 5.4-3.6 5.6-1.4.2-7.1.1-10.9-15" class="st6" style="fill:#be8a3b"></path></g><g id="g118"><g id="g112"><path id="path72" d="M402.9 283s-.9-7.2 0-10c.5-1.6 1.9-7.6 7.4-9.1 1-.3 3.6.9 3.6.9l-.6-1.9s-.3-10.3-4.9-10.3v-5.4s5.2 3.4 6.3 7.6c.4 1.7.2 10 .2 10s3 4 2.1 11.9c0 0 1.9-6.6 4.3-8.3 0 0 2.2-2.1 3-2.8.7-.7 1.5-3 1.5-4.2s2.2-6.3 9.7-9.2c0 0-1.5 5.8-1.9 6.3-.4.4-4.2-.6-5.1 1.2s-1.8 3.3-1.9 4.3-1.9 3.3-2.7 3.6c0 0 4.9-1 6.1 2.4.8 2.3 2.5 6.5-.6 12.2-1.4 2.6-2.2 4.4-4.7 5.7-2.1 1.1-2.7-2.9-2.7-2.9l-5.4-2.7-4.6 1.6-6 .1z" class="st3" style="fill:#231815"></path><g id="g110"><path id="path74" d="M404 282.3s-1.3-1.2-.6-6.9c.2-1.5 1.5-9.2 7.7-9.8 1.3-.1 5.1.3 5.5 7.5.1 1.2-.2 8.3-2.9 10.2-.9.6-.8 1.4-4.4 1-1.3-.2-5.3-2-5.3-2" class="st1" style="fill:#fff"></path><path id="path76" d="m418.3 282.9-3.3-.4s4-10.3 6.6-12.1c1.2-.8 5.5-3.3 8 1 .7 1.1 1 6.1.1 8.2s-1.6 4.8-4.8 7.6c-.9.8-2.1-.1-2.2-.7s-2.5-2.3-4.4-3.6" class="st1" style="fill:#fff"></path><g id="g108"><g id="g82"><path id="path78" d="M404 279.9s.4-7.6 4-9.4c1.2-.6 4.6-.1 4.6 4.2 0 1.5-.3 7.6-3.3 9.5-1.3.9-5.3-4.3-5.3-4.3" class="st3" style="fill:#231815"></path><path id="path80" d="M418.3 282.9s-.1-4.9 1.2-7c.5-.8 2.1-3.1 3.4-3.1s3.7 1.2 3 7c-.2 1.5-1 5.1-3.7 5.5s-3.9-2.4-3.9-2.4" class="st3" style="fill:#231815"></path></g><g id="g106"><g id="g88"><path id="path84" d="M404.1 281.4s-.1-6.1 2.5-9.2c.9-1 3-1.6 4.9.6.6.7.4 6-.6 8.5-.5 1.1-.9 2.1-2.1 3-1.1.8-4.7-2.9-4.7-2.9" class="st8" style="fill:#a6cad8"></path><path id="path86" d="M419 279.5s.2-2.7 1.9-5.1c.6-.8 3.4-1.3 4 1 .2 1 1.2 6.6-1.8 9.2-.8.9-4.1-5.1-4.1-5.1" class="st8" style="fill:#a6cad8"></path></g><g id="g104"><path id="path90" d="M408.3 272.5c1.5-.1 2.8 2.5 2.5 4.6-.2 1.3-1.6 7-2.5 7.4s-1.6.4-3 .3c-1.3-.1-.9-2.6-.7-4.3.1-1.8.3-7.9 3.7-8" class="st3" style="fill:#231815"></path><path id="path92" d="M422.4 275.4c1.2 0 1.6 1.3 1.6 3 0 1.6.1 5.5-1.9 6.9-.5.3-3-1.2-3.3-1.6s0-2.5.3-3.4c.4-1 1-4.9 3.3-4.9" class="st3" style="fill:#231815"></path><g id="g102"><path id="path94" d="M405.2 284.4s-.4-1.5-.3-2.4.6-2.2 1-3.3 2.1-1.8 1.9 0c-.1 1.8-.1 6-2.6 5.7" class="st1" style="fill:#fff"></path><path id="path96" d="M421.8 280.2s.2 3.3-.6 3.7c-.7.4-1.8-.4-1.5-1.5.4-1 .1-2.3 2.1-2.2" class="st1" style="fill:#fff"></path><path id="polygon98" d="m407.1 275.9.3-1.3 1.3.4v.7z" class="st1" style="fill:#fff"></path><path id="polygon100" d="m421 278.1.1-1.3 1.3.1-.3 1.2z" class="st1" style="fill:#fff"></path></g></g></g></g></g></g><path id="path114" d="M417.1 277s-1.5 5.3-2.6 6.1" class="st9" style="fill:none;stroke:#231815;stroke-width:.5;stroke-miterlimit:22.92560005"></path><path id="polyline116" d="m414.5 283 2.6-.1V277" class="st9" style="fill:none;stroke:#231815;stroke-width:.5;stroke-miterlimit:22.92560005"></path></g><g id="g124"><path id="path120" d="M406.1 292.1s-1.8-1.9.1-3.6c.7-.6 2.8-1.6 4.2.3 0 0 .3-2.8 1-4.4l.9.1s-1.2 3.3-1 4.4c.1 1 1 1.5 1 1.5l-.1 1.8h-1.6s.3-2.7-2.4-2.7c-1.9 0-1.2 2.2-1.2 2.2z" class="st3" style="fill:#231815"></path><path id="path122" d="M420.4 294.1s-.9.1-.7-1.6c.1-1.8 2.4-1.8 2.4-1.8l.6-3.7.6.2-.3 3.5s3.1 0 3.1 2.1c0 1-.1 2.1-1.9 2.5 0 0 2.7-3-.7-3-.2 0-3.1 0-3.1 1.8" class="st3" style="fill:#231815"></path></g><path id="path126" d="M403.8 284.4c0 1.1-.3 1.9-.5 2-.4.2-1.6-.4-2.1-.9l-.6.8c.3.3 2 1.7 3.2 1.1 1.1-.5 1.1-2.2 1.1-2.8z" class="st3" style="fill:#231815"></path><path id="path128" d="m425.4 287.9.2 3.4 4.4-1.9-1.1-.8s-1.4.5-2.2.9c0-.7-.1-2-.1-2z" class="st3" style="fill:#231815"></path></g></g><path id="path134" d="M383.9 279.2s-2-.7-1.9 1 1.2 3 2.5 2.7 2-1.2 1.9-3-1.7-3.6-2.5-4.2-.8 1.6-.8 1.6 1.9.3 2.2 1.4.7 2.9-1 2.9-2.1-1.9-.8-2z" class="st3" style="fill:#231815"></path></g></g></g><g id="g152"><path id="path142" d="M434.2 261.3s7.5-1 9.1-.6c0 0 .8 4.4-6.6 10.3 0 .1 1-5.1-2.5-9.7" class="st1" style="fill:#fff"></path><g id="g150"><path id="path144" d="m435.4 264-.3.3.6 1.1c.4.7.5 2.2.4 3.6l.1 1.8 1.1-.9c1.5-.9 4-5.2 4.8-6.5l.7-1.2-1.3-.3c-3.3-.7-6 2-6.1 2.1" class="st3" style="fill:#231815"></path><path id="path146" d="m435.9 264.5-.2.2.2.2c.7.7 1 3.2.7 4.1v.6l.5-.3c1.4-.8 4.2-5.7 4.5-6.3l.2-.4-.4-.1c-2.9-.5-5.4 1.9-5.5 2" class="st10" style="fill:#be8740"></path><path id="path148" d="M436.1 264.7s2.4-2.4 5.2-1.8c0 0-3 5.4-4.4 6.2 0 0 .2-3.4-.8-4.4" class="st10" style="fill:#be8740"></path></g></g></g><g id="g172"><g id="g168"><g id="g162"><path id="path156" d="M404.7 246.8c-1.1-.7-4.6-15-4.7-18s-.1-4.3-1.9-4.4c-1.7-.1-2.3 3.3-2.9 5.1-.6 1.9 1 14.5 1 14.5-2.1-.6-3.1-2-5.1-3.6s-3.2-1.8-3.7-1.4c-2.1 1.4 2.9 7.2 4.3 7.7 6.4 2.3 5.4 4.4 5.4 8.3s3.1 3.7 5.7 3.6 3.9.4 3.6-1c-.2-1 .1-2.3.3-3-.7-2-1.5-5.5-2-7.8" class="st11" style="fill:#bc8941"></path><path id="path158" d="M415.7 244.2c2.3-1.7 9-.7 9-.7-.3-1.2-2.9-2.9-4.3-3.8v.1c-8-.7-15.5 6.8-15.7 7 .5 2.3 1.2 5.8 2 7.8.1-.3.2-.5.2-.5s1.1.1 1.1-1c0-8.6.9-5.7.9-5.7 4.4 2.7 5.6 7 5.6 7 6 1.7 8 5.8 8 5.8.1-6.3-5.7-10-5.7-10 5.9-1.2 9.5 3.1 10.8 4.7-1-10.5-11.9-10.7-11.9-10.7" style="fill:#da8c18"></path><path id="path160" d="M431.5 227.7c-4 5-5.1 13.4-5.1 13.4-1.7-1.3-2.9-6.6-4.7-6.4-1.7.1-1.4 4.3-1.3 5 1.4.9 4 2.6 4.3 3.8 0 0-6.7-1-9 .7 0 0 10.9.1 11.8 10.7.1.2.3.3.4.4 1.3 1.6 4-.9 4-.9-.4-9.8 1.1-20.1 2-24.7.8-4.4-1.7-2.9-2.4-2" class="st11" style="fill:#bc8941"></path></g><path id="path164" d="M418.3 250.6s3.8-1.1 4.6 1.6c-.1 0-4.3.3-4.6-1.6z" style="fill:#fff;stroke:#da8c18;stroke-width:.21600001;stroke-miterlimit:22.92560005"></path><path id="path166" d="M418.3 244.1s3.1-1.4 3 .4c0 0-1.5 1-3-.4" class="st1" style="fill:#fff"></path></g><path id="path170" d="M434.1 226.3c-.6-.4-1.5-.4-2.4.2-3.4 1.9-4.9 9.1-5.5 12.6-1.1-2.6-3.5-5.2-4.4-5.2s-1.9 1-1.9 2.7v3.4c-.7-.1-1.4-.2-2.1-.2l-1-.1c-3-.3-10.5 5.5-12.4 7-1.2-3.8-2.2-9.6-3-14.2-.6-3.4-1-5.8-1.3-6.5-.5-1.2-1.1-1.7-1.8-1.8-1.3-.1-2.4 1.8-3 2.8-.6 1.1-.8 3.4-.8 6 0 3.8.4 8 .6 9.8-.2-.1-.4-.3-.4-.3-1.3-.8-3-1.8-3.8-2.9-.7-1-2.1-1.6-3.3-1.3-.9.2-1.6 1-1.7 2-.3 2.6 4.7 7.3 6.7 8.2 3.4 1.5 3.4 2.5 3.4 5.1l.1 2.4c.4 4.4 4.7 4.1 7.9 3.9l1.2-.1c.7 0 1.2-.4 1.6-.9.6-1 .5-2.8.2-4.5 9.2-2.1 15.2 6.9 15.2 7l.7 1.1.1-1.3v-.9c0-4.7-3.3-8.4-4.9-9.8 5.4-.6 8.3 4.9 8.4 5.2l.8.3 1.5 1.1h.2c.1 0 2.1-.2 3.1-1.5.5-.6.7-1.4.6-2.3-.3-1.8.4-9.5 2-22.9l.1-.8c.4-1.7.1-2.8-.7-3.3m-28 32.2c-.2.3-.5.5-.9.5l-1.2.1c-3.7.2-6.6.2-6.9-3.1l-.1-2.4c-.1-2.7-.1-4.2-4-5.9-1.9-.8-6.4-5.3-6.2-7.2.1-.7.4-1.1 1-1.3.8-.2 1.8.2 2.3.9.9 1.2 2.7 2.3 4.1 3.1l2 1.2-.1-.9c-.5-3.7-1.4-13.8-.1-16.1.4-.7 1.4-2.5 2.2-2.4.3 0 .7.5 1 1.2s.7 3.3 1.3 6.3c1 5.8 2.4 13.7 4 16.9 1 2.1 2.7 7.4 1.6 9.1m11.1-8.7-.9.2.7.6c.1 0 4.9 4 5.2 9.3-2-2.4-7.4-7.8-15.1-6.3-.2-.6-2.1-5.5-2.3-6.1 2.7-2.2 9.5-7.2 12-7l1 .1c.8.1 1.5.1 2.2.3 0 0 1.5.5 1.9.6.6.3 1.1.8 1.5 1.4-.8-.1-2.1-.3-2.1-.3s-4.4.2-5.4 1.4l-.5.7.8.1s3.4.3 5.6 1.5c.8.6 2.5 1.9 3.8 3.5 0 0 0 .1.1.1.6 1 1 2.3 1 3.9v.4c-1.4-2.2-4.7-5.6-9.5-4.4m.3-5.9c1-.4 2.4-.4 3.7-.3l-.1 1.2c-1.2-.5-2.6-.7-3.6-.9m16.6-14.4-.1.8c-.5 4.5-2.1 17.3-2.1 21.9 0 .5 0 .9.1 1.2v.4c0 .5-.1.9-.4 1.2-.7.9-2 1.1-2.3 1.1-.2-.1-1.2-.9-1.6-1.2v-1.8c0-1.2-.2-2.7-1.2-4-1-1.6-2.4-2.8-3.8-3.7-.1-.1-.2-.1-.2-.1-.2-.1-.3-.2-.4-.3 0-.3.1-1 .1-1.5.4 0 .8.1 1.2.1.3.1.6.1.9.2l.8.2-.3-.7c-.1-.1-.1-.3-.2-.5-.8-1.7-2.1-2.4-3.6-2.8v-3.6c0-1.1.5-1.8 1-1.8.6.2 3.9 3.8 4.1 6.4h.9c0-.1 1.3-11.6 5.3-13.9.5-.3 1.1-.5 1.5-.2.3.2.5.8.5 1.6-.2.3-.2.6-.2 1" class="st3" style="fill:#231815"></path></g></g></g><g id="g258"><g id="g228"><path id="path178" d="M330.1 320.4s2-.8 4.8.6c0 0 3.4-8.1 22.4-10.9l-.2-2s18.5-3.2 25-1.2l.4.6 4.2.4 25.8 4.4s13.5-2.4 23.8 10.1c0 0-.6 3 1.8 5.4s8.3 11.9 12.9 7.5c1.4-1.4 5.4-4.6 11.1 1 0 0 10.9 0 8.9 7-.9 3-2.8 3-2.8 3s1.2 4.6-3.4 5.2c0 0 .8 4.6-2 5s-7.2 1.8-9.5-2.4c0 0-6.4 2.4-7.9-6.4 0 0-12.9-2-18.7-7.2 0 0 0 1.8-3.6 0-1.5-.8-3.2-3.6-3.6-1.6s-3.8 14.1-12.1 18.7c-1.4.8-1.2 1.6-1.2 2.8s-.6 38.5-.6 38.5-7.4 3.6-10.5 6.8c-3.2 3.2-10.5 4.6-17.1-3.2-2.5-3-4.2-10.7-4.6-13.1 0 0-2.4.2-4-1.2s-7.5-5.8-8.9-7-8.9-3.2-8.9-6.6 3.8-3.8 6-4.2 3.4-.4 2.8-3-2-17.5 8.7-21.5c0 0 3-4-2-18.5 0 0-5.6 1-7.2.8l-.8-1.8s-12.1-.8-13.1.8-1.4 4 3 4.2c0 0 4 3.8-4.2 9.1-1 .6-2.8 1-2.8 1s-1.6-.2-2.4 1.4-4.4 1.2-5.6.4-2.8-1.6-4.6-1.8-2.6-1.4-2.4-3 .4-3-1.8-4.2-3.2-1.4-2-4.2c.7-1.6.8-1.8-.2-3.8-.6-1.7 3.1-4.9 7.1-5.9" class="st3" style="fill:#231815"></path><g id="g226"><g id="g222"><g id="g192"><path id="path180" d="M358.1 309.8s19-3.8 27.7-.8 27.7 4.9 27.7 4.9 13.6-.8 22 8.7l-9.5 17.1s-6.2 1.6-6.2-7.1c0 0-.8 6-1.6 8.1-.8 2.2-3.5 11.7-10 15.7-1.9 1.2-3 0-6.2-1.1-3.3-1.1-19.5-11.1-30.9-10.8 0 0 .3-12.2-3-17.1 0 0 2.4-1.9 3.3-2.2 0 0-3.5.8-5.2 1.4-1.6.5-5.7.8-5.7.8s-2.4-10.3-2.4-17.6" class="st7" style="fill:#cf0916"></path><g id="g190"><path id="path182" d="M434.8 325.3s7.1 10.3 11.4 11.9c1.6.6 1.9 1.9 6.8-2.2 1.2-1 9.2-.8 8.7 5.7-.1 1.6 2.7 7.9-2.7 6.8-1.3-.3-3.5-3.8-3-7.3 0 0-1.4 1.4-1.4 2.4 0 1.1 1.1 3-.5 3.8s-4.3-1.1-4.3-1.1-1.9 2.7 5.7 2.2l.3 1.9s-4.1.3-2.7 3.3c0 0-5.7 3.3-6.8-6 0 0-17.6-3.3-19-7.6z" class="st5" style="fill:#f6debd"></path><path id="path184" d="M461.9 337.5s6.8 1.4 7.3 2.7c.5 1.4.8 3-.3 4.1s-3.5 1.4-5.2.3c-1.5-1.2-1.5-1.4-1.8-7.1" class="st5" style="fill:#f6debd"></path><path id="path186" d="M463 345.4s4.6.4 4.6 1.8-1.8 3.8-2.8 3.8-4 1-6.8-.6c-1.2-.7-1.8-1.8-1-2.8 0 0 6.2 2.7 6-2.2" class="st5" style="fill:#f6debd"></path><path id="path188" d="M464.2 352.3s.4 4-4.6 3.8-5.4-1.2-6-3.6 1.6-3 3-2.2 1.8 1.8 7.6 2" class="st5" style="fill:#f6debd"></path></g></g><g id="g220"><path id="path194" d="M386.6 307.1s1.5-1.6 4.9-2.4l.5-4.3 6.6 7.2s9.6 2.9 12.1 2.3c0 0 8.1 8.9-4.9 19l-.8-7.6-2.4 3.5-.5-5.1-6.5 7c-.1-.1-10.4-11.2-9-19.6" class="st3" style="fill:#231815"></path><g id="g218"><g id="g210"><g id="g206"><path id="path196" d="M387.6 307.6s2.1-1.8 3.3-1.2c0 0-1.5 4.2 11 11.9l-6 6s-8.6-10.7-8.3-16.7" class="st1" style="fill:#fff"></path><path id="path198" d="M410.8 313.3s3.6 6.9-3.9 12.8l-.6-6.3z" class="st1" style="fill:#fff"></path><g id="g204"><path id="path200" d="M388.5 307.6s2.7 9.2 10.4 13.7l-1.5 1.5s-10.7-10.1-8.9-15.2" class="st7" style="fill:#cf0916"></path><path id="path202" d="M406.5 322s3.5-1.2 4.7-4.8c0 0 .6 3.9-4.5 6z" class="st7" style="fill:#cf0916"></path></g></g><path id="path208" d="M394.8 303.9c.9 1 .6 5.2 14.9 6.4 0 0 .6 5-6 10.3v-2.4s-6.2-3.2-11.3-9.7c-1.3-1.7-.8-2-.2-3.2s1-3.2 2.6-1.4" style="fill:#f6ddbd"></path></g><g id="g216"><path id="path212" d="M360.1 312.4s6-2.4 22.4-2.6c1.8 0 1.4 1.6-.4 1.6s-16.1-.6-22 1" class="st15" style="fill:#ffe100"></path><path id="path214" d="M413.1 314.6s16.5 2 21.1 10.1l-.6 1.4s-6-9.9-20.5-9.9z" class="st15" style="fill:#ffe100"></path></g></g></g></g><path id="path224" d="M357.1 310.8s.8 9.3 2 14.5c0 0-16.1-2-16.7 5.4 0 0 1.4-2 2-.4s2.8 2.2 3.4 2.2.8 2.2 0 3.2-2.6 4-4.2 4.6-2.4.2-3.2-.4-1.6-1.6 1.4-3.6c.7-.5-.4-1.4-1.8.2s-3.2 2.8-1 3.8c.9.4 1.8 1 .4 1.8s-2.4 1.8-5.4.4c-1.5-.7-5.6-1.6-5.6-1.6s-.6-2.6 0-3.6 0-1.8-1.4-2.4-3.8-1.4-2.6-4c.5-1.2 2-2.6.8-3s-2.4-2.4.2-4.4c.8-.7 7-4.2 8.7-1.2l-1.2 2.2s.8 0 2.8-3.4c2.1-3.3 8.1-6.3 21.4-10.3" class="st5" style="fill:#f6debd"></path></g></g><g id="g256"><path id="path230" d="M370.4 345.1s12.8 2.2 17.7 4.7c2.3 1.2 8.1 4.7 13.8 6 1 .2 3.9.6 4.3 1.7l-3.3-.5s-4.9-1.8-6.8-2.5c-1.8-.7-8.6-4.6-15.1-6-1.5-.3-6.9-2.1-10.7-2.8v-.6z" class="st1" style="fill:#fff"></path><g id="g254"><g id="g244"><g id="g236"><path id="path232" d="m370 346.2 5.8 1.8s-6.8 6 0 21.3l-.8 2.7s-8.3 1.8-11.1 1-3-4.4-3-5.2-3.4-15.1 9.1-21.6" class="st1" style="fill:#fff"></path><path id="path234" d="M376.6 348.1s13.7 3.2 19.9 7.5c1.2.9 6.2 2.8 8.5 2.4l.2 2.4.4 2.2-10.3 3.4-1.4-4.4-.8.2 1.2 4.2s-4-3.8-13.9 3.8c-1.2.9-2.8 1.6-4.4-2.2s-4.6-13.9.6-19.5" class="st1" style="fill:#fff"></path></g><g id="g242"><path id="path238" d="M361.9 370.6s10.5.8 13.5-.8v.8s-1 1-13.3 1.4z" class="st0" style="fill:#d0121b"></path><path id="path240" d="M377 370s5.8-6.4 16.7-7l.4 1.4s-6-2.2-16.3 6z" class="st0" style="fill:#d0121b"></path></g></g><g id="g252"><path id="path246" d="m360.5 370.4 2 3.8 3.8.8s6 7 7 12.5c0 0-3.2.8-7.5-3.8-1.2-1.2-11.1-6.8-11.9-7.3-.8-.6-2.8-3.4 2.2-4.6 1.4-.4 1.8.4 4.4-1.4" style="fill:#f1dec3"></path><path id="path248" d="m367.4 374.4 8.3-1.2.6-3.8 2.2 2.6s.4 1 2-.2 7.9-7.5 14.1-4.4l.6 2-2.2 15.3s-1-.4-1.4 1-3.2 4.6-4.6 5.8-5.1 3.6-7.5 9.8c.1 0-8.5-25.5-12.1-26.9" style="fill:#f7ddbe"></path><path id="path250" d="M383.3 405.2c1.5 1.2 4 3.4 8.9 1.4 1.6-.7 10.3-8.5 14.3-7.7l-12.7-13.5s-6.2 6.6-7.2 7.5c-.9.9-9 7.7-3.3 12.3" style="fill:#bd9e6a"></path></g></g></g></g></g><g id="g266"><path id="path262" d="M436.1 379.8c0 11.6-9.8 20.9-21.9 20.9s-21.9-9.4-21.9-20.9 9.8-20.9 21.9-20.9 21.9 9.3 21.9 20.9" class="st1" style="fill:#fff"></path><path id="path264" d="m434.5 379.8 1.4-1.7-2.8-8.1-2.3-1c-2.5-3.4-6.1-5.9-10.3-7.1l-2.3-2.6-7.5.2-3.4 3c-2.9 1.2-5.5 3-7.5 5.3l-4.2.8-3.2 7.7 2.9 2.5c0 .3-.1.6-.1 1 0 4 1.3 7.7 3.5 10.7l.6 4.1 7.7 4.8 2-1.6c1.8.5 3.8.8 5.8.8 1.9 0 3.7-.3 5.4-.7l2.1 1.4 8.3-6.2.1-2.4c2.5-3.1 3.8-6.8 3.8-10.9M423 391.3l-3.9-6.3 1.9-7.9 8.8-2 4.1 5.5c-.1 3.4-1.2 6.5-3 9.2zm6.7-22.9-.1 6-8.8 2-5.7-4.7-.1-6.5 5.9-2.8c3.4 1.3 6.5 3.3 8.8 6m-21.5-5.5 6.2 2.4.1 6.5-6.7 4.6-7.9-2.5v-5.1c2-2.7 4.9-4.7 8.3-5.9m-12.3 15.3 3.6-3.8 7.6 2.4 2.3 8.3-4 5.5-6.7-1.1c-1.9-2.8-2.9-6.1-2.9-9.7 0-.5.1-1.1.1-1.6m13.5 19-3.5-6.3 4-5.5 8.6-.4 4.2 6.8-3 5.5q-2.25.6-4.8.6c-1.9.1-3.7-.2-5.5-.7" class="st3" style="fill:#231815"></path></g><g id="g272"><path id="path268" d="M273.7 435.2s62.4-20.4 127-20.4 123.2 19.8 123.2 19.8l.6 37.6S456.1 454 401.3 454c-54.9 0-95 10-130.1 19.8z" class="st19" style="fill:#fadf1b"></path><path id="path270" d="M400.7 414.8c64.6 0 123.2 19.8 123.2 19.8l.6 37.6S456.1 454 401.3 454c-54.9 0-95 10-130.1 19.8l2.5-38.6s62.4-20.4 127-20.4m0-1.1c-64 0-126.7 20.2-127.3 20.4-.5.1-.8.6-.8 1l-2.5 38.6c0 .4.1.7.4 1 .2.2.5.3.7.3h.3c36-10 75.8-19.7 129.8-19.7 54.1 0 122.2 18 122.9 18.1h.3c.3 0 .5-.1.7-.2.3-.2.5-.6.4-.9l-.6-37.6c0-.5-.3-.9-.8-1.1-.5-.3-59.5-19.9-123.5-19.9"></path></g><g id="g300"><path id="path274" d="m305.2 438.5-.4-2.2-.3.1-5 .9.4 2.2h.3c.4-.1.7 0 .9 0 .2.1.2.2.3.2.1.5-.1 2-1.7 6.8 0 0-.1.2-.1.3-.6-.9-3.1-4.6-3.1-4.6l-.1-.2c-.4-.6-.5-.9-.6-1.1 0-.3 0-.5.1-.6.1-.2.3-.3.7-.3h.8l-.1-.3-.4-1.9-8.4 1.6.4 2.2h.3c.3 0 .7.1.9.2s.6.5 1.3 1.5c0 0 5.2 7.1 5.3 7.2 0 .1.6 3.2.6 3.2.3 1.5.1 1.9.1 2.1-.1.2-.4.4-1.3.6l-.3.1.4 2.2 8.5-1.6-.4-2.2h-.3c-.9.1-1.2 0-1.4-.1-.1-.1-.4-.4-.6-1.9 0 0-.7-3.6-.7-3.7.8-2.5 1.6-4.9 2.2-7.3l.1-.4c.4-1.5.6-2 .8-2.3s.4-.5.6-.5z" class="st3" style="fill:#231815"></path><path id="path276" d="M323.2 450.1c-.3-.3-.6-.8-.8-1.4l-6.9-15.7h-.3l-4.6.7.8 1 .2.4v.5l-1.9 14.6c-.1.9-.3 1.5-.4 1.8-.2.3-.4.5-.7.7l-.2.1.3 2.2 5.3-.7-.3-2.3-.4.1c-.4.1-.6 0-.8-.2s-.3-.5-.4-.8v-1s.2-2.1.2-2.5c.5-.1 3.9-.6 4.4-.6.2.4 1 2.6 1 2.6l.2.6.1.4c0 .3 0 .5-.1.7-.2.2-.4.3-.8.4l-.3.1.3 2.3 7.7-1.1-.3-2.3h-.3c-.5-.2-.8-.3-1-.6m-10.8-5.2c.1-.6.5-4.2.7-5.8.6 1.5 2 4.8 2.3 5.4-.6 0-2.4.3-3 .4" class="st3" style="fill:#231815"></path><path id="path278" d="M356.8 444.8c-.3-.3-.6-.8-.8-1.4l-6.9-15.7h-.3l-4.6.7.8 1 .2.4v.5l-1.9 14.6c-.1.9-.3 1.5-.4 1.8-.2.3-.4.5-.7.7l-.2.1.3 2.2 5.3-.7-.3-2.3-.4.1c-.4 0-.6 0-.8-.2s-.3-.5-.4-.8v-1s.2-2.1.2-2.6c.5-.1 3.9-.6 4.4-.6.2.4 1 2.6 1 2.6l.2.6.1.4c0 .3 0 .5-.1.7s-.4.3-.8.4l-.3.1.3 2.3 7.7-1.1-.3-2.3h-.3c-.5-.1-.8-.2-1-.5m-10.8-5.2c.1-.6.5-4.2.7-5.8.6 1.5 2 4.8 2.3 5.4-.6.1-2.4.3-3 .4" class="st3" style="fill:#231815"></path><path id="path280" d="M474.5 449.3c-.2-.4-.3-.9-.4-1.6l-2.1-17.5h-.3l-4.6-.7.5 1.2v.7l-.1.3-6 13.8c-.4.8-.7 1.4-.9 1.6-.2.3-.5.4-.9.5h-.2l-.3 2.3 5.3.8.3-2.4-.4-.1c-.4-.1-.6-.2-.7-.4s-.2-.5-.1-.9l.1-.4.2-.6s.8-2 .9-2.5c.5.1 3.9.6 4.4.6 0 .5.2 2.9.2 2.9v1.1q0 .45-.3.6c-.2.1-.5.2-.9.1h-.3l-.3 2.3 7.7 1.1.3-2.3-.3-.1c-.4.1-.6-.1-.8-.4m-8.8-8.2c.2-.6 1.7-4 2.4-5.5.2 1.7.6 5.3.6 5.9-.6 0-2.4-.3-3-.4" class="st3" style="fill:#231815"></path><path id="path282" d="M337.7 429.5h-.3l-13.1 1.5.3 6.2 1.5-.2v-.3c.1-1.3.3-2.3.7-2.8q.45-.75 1.5-.9s.7-.1 1-.1c.1.6 1.6 13.9 1.6 13.9l.1 1.1-.1.5c-.1.3-.2.5-.4.6-.2.2-.6.3-1 .3h-.4l.3 2.2 7.9-.9-.2-2.2h-.4c-.4 0-.8 0-1-.1s-.4-.3-.6-.5l-.2-.5-.2-1.1s-1.5-13.3-1.6-13.9c.3 0 .9-.1.9-.1.8-.1 1.4.1 1.8.5.5.5.9 1.3 1.2 2.6l.1.3 1.5-.2z" class="st3" style="fill:#231815"></path><path id="path284" d="M443 426.1h-.3l-13.2-.8-.8 6.1 1.6.1.1-.3c.3-1.3.7-2.2 1.2-2.6.4-.5.9-.7 1.6-.6 0 0 .7 0 1 .1 0 .6-.8 14-.8 14l-.1 1.1-.1.5c-.1.3-.3.4-.5.6-.3.1-.6.2-1 .2h-.4l-.1 2.2 7.9.5.1-2.2h-.4c-.4 0-.8-.1-1-.3-.2-.1-.4-.3-.5-.6l-.1-.5v-1.1s.8-13.3.8-14c.3 0 .9.1.9.1.8 0 1.4.3 1.7.8.4.5.6 1.4.7 2.7v.3l1.5.1z" class="st3" style="fill:#231815"></path><path id="path286" d="m358.8 426.5.1 2.2h.3c.7.1 1 .2 1.1.4.1.1.3.5.3 1.5l.7 11.8c.1 1-.1 1.4-.2 1.5-.1.2-.4.4-1.1.5h-.3l.1 2.2 7.3-.4-.1-2.2h-.3c-.7-.1-1-.2-1.1-.4-.1-.1-.3-.5-.4-1.5l-.7-11.8c-.1-1 .1-1.4.2-1.5.1-.2.4-.4 1.1-.5l.3-.1-.1-2.2h-.3z" class="st3" style="fill:#231815"></path><path id="path288" d="M380.4 424.8v2.2h.3c.7.1 1 .3 1.1.4s.3.5.3 1.5v11.8c0 1-.2 1.4-.3 1.5s-.4.3-1.1.4h-.3v2.2h7.7v-2.2h-.3c-.9 0-1.2-.2-1.4-.4-.1-.1-.3-.6-.3-2v-5.1h1.2c.6 0 1 .2 1.3.6s.5 1 .6 1.7v.3h1.7v-7.1h-1.8v.3c-.1.7-.3 1.3-.6 1.6s-.7.5-1.3.5H386v-5.1c0-.7.2-.9.2-.9.1 0 .3-.2 1.3-.2q1.65 0 2.7.6c.6.4 1.1 1.1 1.4 2l.1.2h1.5v-5h-12.8z" class="st3" style="fill:#231815"></path><path id="path290" d="M408.1 427q-1.05-1.35-2.4-2.1c-.9-.5-1.9-.7-2.9-.7-1.2 0-2.2.3-3.2.9s-1.8 1.4-2.6 2.6q-.9 1.5-1.5 3.3a16 16 0 0 0-.5 3.9c0 1.4.2 2.7.5 3.9s.8 2.3 1.4 3.2c.8 1.1 1.6 1.9 2.5 2.4s2 .8 3 .8c1.2 0 2.4-.3 3.4-1 1-.6 1.9-1.6 2.7-2.8.6-.9 1-1.9 1.3-3.2.3-1.2.4-2.5.4-3.8 0-1.5-.2-2.9-.6-4.1q-.3-1.95-1.5-3.3m-5.3 15.8c-1 0-1.8-.7-2.3-2.1-.6-1.5-.9-3.7-.9-6.5 0-2.5.3-4.5.9-5.8.5-1.2 1.3-1.8 2.3-1.8s1.8.7 2.3 2.1c.6 1.5.9 3.7.9 6.5 0 2.6-.3 4.6-.8 5.9-.6 1.1-1.4 1.7-2.4 1.7" class="st3" style="fill:#231815"></path><path id="path292" d="M424.7 427.3q-1.05-1.35-2.4-2.1c-.9-.5-1.9-.7-2.9-.7-1.2 0-2.2.3-3.2.9s-1.8 1.4-2.6 2.6q-.9 1.5-1.5 3.3a16 16 0 0 0-.5 3.9c0 1.4.2 2.7.5 3.9s.8 2.3 1.4 3.2c.7 1.1 1.6 1.9 2.5 2.4s2 .8 3 .8c1.2 0 2.4-.3 3.4-1 1-.6 1.9-1.6 2.7-2.8.6-.9 1-2 1.3-3.2s.4-2.5.4-3.8c0-1.5-.2-2.9-.6-4.1q-.45-1.95-1.5-3.3m-5.4 15.8c-1 0-1.8-.7-2.3-2.1-.6-1.5-.9-3.7-.9-6.5 0-2.6.3-4.5.8-5.8.5-1.2 1.3-1.8 2.3-1.8s1.8.7 2.3 2.1c.6 1.5.9 3.7.9 6.5 0 2.6-.3 4.6-.8 5.9-.5 1.1-1.3 1.7-2.3 1.7" class="st3" style="fill:#231815"></path><path id="path294" d="M454.8 438.3c1-.3 1.8-.8 2.4-1.4.8-.8 1.2-1.9 1.3-3.1q.15-2.4-1.2-3.9c-.9-.9-2.4-1.5-4.3-1.7l-7.6-.7h-.3l-.2 2.3.3.1c.8.2 1.1.4 1.2.6.1.1.2.5.2 1.6l-1.1 12.3c-.1 1-.3 1.4-.4 1.5s-.5.3-1.3.4h-.3l-.2 2.3 9 .8c1.6.1 3.1-.3 4.2-1.3 1.2-1 1.8-2.4 2-4q.15-2.1-.9-3.6c-.7-.9-1.6-1.6-2.8-2.2m-1.7-2c-.5.5-1.2.7-2.1.7 0 0-.2 0-.4-.1.1-.6.6-6.3.6-6.3v-.2h.3c1 .1 1.6.4 2 .9s.6 1.4.5 2.4c0 1.2-.4 2-.9 2.6m-2.9 9.7c-.1-.3-.3-.9-.1-2.3 0 0 .4-4.1.4-4.6 1.2.1 2 .5 2.5 1.2s.7 1.7.6 3.1c-.1 1.1-.4 1.9-.8 2.5-.4.5-1 .8-1.7.7-.6 0-.8-.3-.9-.6" class="st3" style="fill:#231815"></path><path id="path296" d="M490.3 449.1c-.8 1.4-1.6 2.4-2.3 2.9s-1.6.6-2.6.5c-.8-.1-1.3-.3-1.5-.7-.1-.2-.3-.8-.1-2.6l1.3-10.7c.1-1 .3-1.4.4-1.5s.4-.3 1.1-.3h.2l.3-2.2h-.3l-6.6-.8-.3 2.2.2.1c.6.2.9.4 1 .6.1.1.2.5.1 1.5l-1.4 11.7c-.1 1-.3 1.4-.4 1.5s-.4.3-1.1.3h-.2l-.3 2.2 12.4 1.5 1.7-6.2-1.6-.2z" class="st3" style="fill:#231815"></path><path id="path298" d="M505.2 451.8c-.8 1.4-1.6 2.4-2.3 2.9s-1.6.6-2.6.5c-.8-.1-1.3-.3-1.5-.7-.1-.2-.3-.8-.1-2.6l1.3-10.7c.1-1 .3-1.4.4-1.5s.4-.3 1.1-.3h.2l.3-2.2h-.3l-6.6-.8-.3 2.2.2.1c.6.2.9.4 1 .6.1.1.2.5.1 1.5l-1.4 11.7c-.1 1-.3 1.4-.4 1.5s-.4.3-1.1.3h-.2l-.3 2.2 12.4 1.5 1.7-6.2-1.6-.2z" class="st3" style="fill:#231815"></path></g><g id="g338"><path id="path302" d="m315.9 652.1-.2-10.6c5.2-1.7 13.1-4.9 16.5-12.6h11.7l-.1 46.8h-13.9l-.2-30.2c-4.4 2.7-9 5.2-13.8 6.6" class="st1" style="fill:#fff"></path><path id="path304" d="M376.5 636.7c3.4 0 6.4 2.5 6.9 7.9-.4 5.2-3.1 7.9-6.7 7.9-4.2 0-6.5-3.4-6.5-8.7s2.9-7.1 6.3-7.1m-.8 39.4c18.1 0 21.2-8.7 21.2-27 0-11.8-6.9-20.6-20.8-20.6-13 .9-18.3 6.3-18.9 16 1.1 8.5 5.3 15.7 15.7 16 5.6.2 10.5-4.2 10.5-4.2 0 8.7-2.8 12.4-6.1 12.4s-4.2-1.3-5.1-5.1l-13.3 1.7c1.1 7.9 8.1 10.8 16.8 10.8" class="st1" style="fill:#fff"></path><path id="path306" d="M420.9 636.7c3.4 0 6.4 2.5 6.9 7.9-.4 5.2-3.1 7.9-6.7 7.9-4.2 0-6.5-3.4-6.5-8.7-.1-5.3 2.9-7.1 6.3-7.1m-.8 39.4c18.1 0 21.2-8.7 21.2-27 0-11.8-6.9-20.6-20.8-20.6-13 .9-18.3 6.3-18.9 16 1.1 8.5 5.3 15.7 15.7 16 5.6.2 10.5-4.2 10.5-4.2 0 8.7-2.8 12.4-6.1 12.4s-4.2-1.3-5.1-5.1l-13.3 1.7c1.1 7.9 8.1 10.8 16.8 10.8" class="st1" style="fill:#fff"></path><path id="path308" d="M468.3 668.4c-3.4 0-6.4-2.5-6.9-7.9.4-5.2 3.1-7.9 6.7-7.9 4.2 0 6.5 3.4 6.5 8.7s-2.9 7.1-6.3 7.1m.8-39.4c-18.1 0-21.9 8.5-21.9 26.8 0 11.8 7.7 20.8 21.5 20.8 13-.9 18.3-6.3 18.9-16-1.1-8.5-5.3-15.7-15.7-16-5.6-.2-10.5 4.2-10.5 4.2 0-8.7 2.8-12.5 6.1-12.5s4.2 1.3 5.1 5.1l13.3-1.1c-1.1-7.8-8.1-11.3-16.8-11.3" class="st1" style="fill:#fff"></path><g id="g316"><path id="path310" d="M245.1 580.3v-21.8h-15.9v21.8h-9.4v8.1h9.4V609h.2c.2 2.1 1.1 6.3 5.7 6.3h23.2v-9.6h-13.2v-17.3h55.6v-8.1z" class="st1" style="fill:#fff"></path><path id="path312" d="M294.6 559.5h-18.1c-9.6 8.1-25 16.3-25 16.3h21.6c16.2-8.1 21.5-16.3 21.5-16.3" class="st1" style="fill:#fff"></path><path id="path314" d="M273 594.6h-17.3l23.4 19.7h20.6v-9.2h-11.6c-9.2-8.3-15.1-10.5-15.1-10.5" class="st1" style="fill:#fff"></path></g><path id="path318" d="M394.1 586.3v-6.1h-34.6v-3.5h33.2V571h-33.2v-2.8h34v-5.7h-34v-3.3h-15.1v3.3h-31.8v5.7h31.8v2.8h-30.7v5.7h30.7v3.5H312v6.1h9.4l-3.9 2.9h-4.7v8.1h3.3v16.9h73.8v-16.9h3.1v-8.1l-7.5-.2-1.2-2.7zm-18.5 23.5h-46.2v-4.1h46.2zm-46.2-8.5v-4.1h46.2v4.1zm42.7-9.4 1.1.2h-40.7l.1-.2 7.8-5.6h22.4z" class="st1" style="fill:#fff"></path><g id="g326"><path id="path320" d="M484.1 566.5v-5.3h-79.6v5.3h22.6v41.9h-22v6.3h78.6v-6.3h-21.1v-41.9zm-36.7 41.9h-6v-41.9h6z" class="st1" style="fill:#fff"></path><path id="path322" d="M406.1 575.2h11.6s4.7 8.8 5.7 26.7H411s.8-15.1-4.9-26.7" class="st1" style="fill:#fff"></path><path id="path324" d="M481.9 575.2h-10.6s-4.7 8.8-5.7 26.7H476c.1 0 .2-15.1 5.9-26.7" class="st1" style="fill:#fff"></path></g><g id="g336"><path id="path328" d="M529.9 604.6h-.2v2.2c0 .8 0 1.4-1.8 1.4h-5.1v6.1H537c2.8 0 5.9-.2 5.9-3.9v-4.9h.2v-19.7h-13.2z" class="st1" style="fill:#fff"></path><path id="path330" d="M572.4 588.6c-.8 0-2.2-1.8-3.1-2.4-.7-.4-.1-1.8.5-2.8h7.1v-5.1h-33.8v-2.9h32.6v-5.1h-32.6v-3.6h32.6v-4.9h-32.6v-3.9h-13.6v3.9h-32v4.9h32v3.6h-32v5.1h32v2.9h-33.4v5.1h7.5l-4.1 5.1h-3.9v6.3h9.4l5.7-5.7 4.5 6.3h12.4s-4.1-6.9-4.5-7.7c-.4-.7-2.3-.1 1.1-4.3h24.4l1.4 1.4c.6.6 0 1.8-.6 2.6s-4.7 8.5-4.7 8.5h11.8l3.9-5.7 5.1 4.7h11.6v-6.3z" class="st1" style="fill:#fff"></path><path id="path332" d="M525.8 599.2h-15.3c-3.3 2.2-9.4 9-9.4 9H496v6.1h14.9c4.9-9.2 14.9-14.2 14.9-14.2z" class="st1" style="fill:#fff"></path><path id="path334" d="M562 599.2h-15.3v1s8.1 4.9 13 14.2h16.9v-6.1H569c0-.1-3.7-7-7-9.1" class="st1" style="fill:#fff"></path></g></g><path id="path340" d="M627.5 174.8v344.7c0 20.2-12.3 65.7-46.3 108.5-19.2 24.1-42.7 44.3-69.9 60-32.3 18.6-69.7 30.8-111.3 36.3-41.6-5.5-79-17.7-111.3-36.3-27.2-15.7-50.7-35.9-69.9-60-34-42.8-46.3-88.3-46.3-108.5V174.9h455m3.5-3.6H169v348.2c0 41 48.6 184.6 231 208.3 182.4-23.7 231-167.3 231-208.3V181.8Z" class="st19" style="fill:#fadf1b"></path><g id="g394"><path id="path342" d="M206.2 91.5c-2.6-2.4-3.9-5.5-3.9-9.2 0-3.6 1.3-6.6 3.9-9.1s5.8-3.7 9.7-3.7 7.2 1.1 10 3.4l-3.6 3.7c-1.9-1.4-4-2.1-6.4-2.1s-4.4.7-5.9 2.2c-1.5 1.4-2.2 3.2-2.2 5.5 0 2.4.8 4.3 2.3 5.7s3.5 2.1 5.9 2.1 4.6-.7 6.3-2l3.6 3.7c-2.8 2.3-6.1 3.4-10 3.4-3.9.1-7.1-1.2-9.7-3.6" class="st20" style="fill:#fdfdfd"></path><path id="path344" d="M231.8 95.2V69.5h5.5v10.3H250V69.5h5.5v25.6H250V84.6h-12.7v10.6z" class="st20" style="fill:#fdfdfd"></path><path id="path346" d="m259.8 95.2 10.9-25.6h5.5l10.9 25.6h-5.8l-1.6-3.9h-12.4l-1.6 3.9zm13.8-18.8-4.1 9.7h8.2z" class="st20" style="fill:#fdfdfd"></path><path id="path348" d="M291.2 95.2V69.5h1.8l17.1 16.1V69.5h5.5v25.6h-2l-16.9-15.9v15.9h-5.5z" class="st20" style="fill:#fdfdfd"></path><path id="path350" d="M323.6 91.5c-2.6-2.4-3.9-5.5-3.9-9.2 0-3.6 1.3-6.6 3.9-9.1s5.8-3.7 9.7-3.7 7.2 1.1 10 3.4l-3.6 3.7c-1.9-1.4-4-2.1-6.4-2.1s-4.4.7-5.9 2.2c-1.5 1.4-2.2 3.2-2.2 5.5 0 2.4.8 4.3 2.3 5.7s3.5 2.1 5.9 2.1c2 0 3.5-.4 4.5-1.1v-4.4h-3.6v-4.8h9.1v12c-2.8 2.3-6.1 3.4-10 3.4-3.9.1-7.2-1.2-9.8-3.6" class="st20" style="fill:#fdfdfd"></path><path id="path352" d="M351.4 91.5c-2.6-2.4-3.9-5.5-3.9-9.2 0-3.6 1.3-6.6 3.9-9.1s5.8-3.7 9.7-3.7 7.2 1.1 10 3.4l-3.6 3.7c-1.9-1.4-4-2.1-6.4-2.1s-4.4.7-5.9 2.2c-1.5 1.4-2.2 3.2-2.2 5.5 0 2.4.8 4.3 2.3 5.7s3.5 2.1 5.9 2.1 4.6-.7 6.3-2l3.6 3.7c-2.8 2.3-6.1 3.4-10 3.4-3.9.1-7.1-1.2-9.7-3.6" class="st20" style="fill:#fdfdfd"></path><path id="path354" d="M377 95.2V69.5h5.5v10.3h12.7V69.5h5.5v25.6h-5.5V84.6h-12.7v10.6z" class="st20" style="fill:#fdfdfd"></path><path id="path356" d="M411.5 69.5v14.9c0 1.9.6 3.4 1.8 4.3s2.7 1.4 4.5 1.4 3.3-.5 4.5-1.4 1.8-2.3 1.8-4.3V69.5h5.5v16.2c0 2.6-1.1 4.8-3.4 6.7-2.2 1.8-5.1 2.7-8.5 2.7s-6.2-.9-8.5-2.7c-2.2-1.8-3.4-4-3.4-6.7V69.5Z" class="st20" style="fill:#fdfdfd"></path><path id="path358" d="M435.6 95.2V69.5h1.8l17.1 16.1V69.5h5.5v25.6h-2l-17-15.8v15.9z" class="st20" style="fill:#fdfdfd"></path><path id="path360" d="M476.7 69.5h6.4l6.3 8.4 6.5-8.4h6.3l-10 12.8v12.8h-5.5V82.4Z" class="st20" style="fill:#fdfdfd"></path><path id="path362" d="m504.8 95.2 10.9-25.6h5.5L532 95.2h-5.8l-1.6-3.9h-12.4l-1.6 3.9zm13.8-18.8-4.1 9.7h8.2z" class="st20" style="fill:#fdfdfd"></path><path id="path364" d="M558.3 69.5v4.8h-9.1v20.8h-5.5V74.3h-9.1v-4.8z" class="st20" style="fill:#fdfdfd"></path><path id="path366" d="m561 95.2 10.9-25.6h5.5l10.9 25.6h-5.8l-1.6-3.9h-12.4l-1.6 3.9zm13.7-18.8-4.1 9.7h8.2z" class="st20" style="fill:#fdfdfd"></path><path id="path368" d="M592.3 69.5h5.4v25.7h-5.4z" class="st20" style="fill:#fdfdfd"></path><path id="path370" d="M233.4 130.2v-25.6h19.2v4.8h-13.7v5.5H249v4.8h-10.1v10.6h-5.5z" class="st20" style="fill:#fdfdfd"></path><path id="path372" d="M259.1 126.5c-2.6-2.5-3.9-5.5-3.9-9.1s1.3-6.7 3.9-9.1 5.8-3.7 9.7-3.7 7.1 1.2 9.7 3.7c2.6 2.4 3.9 5.5 3.9 9.1s-1.3 6.7-3.9 9.1-5.8 3.7-9.7 3.7-7.1-1.2-9.7-3.7m9.7-1.1c2.4 0 4.4-.8 5.9-2.3s2.3-3.4 2.3-5.7-.8-4.2-2.3-5.7-3.5-2.3-5.9-2.3-4.4.8-5.9 2.3-2.3 3.4-2.3 5.7.8 4.2 2.3 5.7 3.5 2.3 5.9 2.3" class="st20" style="fill:#fdfdfd"></path><path id="path374" d="M289 126.5c-2.6-2.5-3.9-5.5-3.9-9.1s1.3-6.7 3.9-9.1 5.8-3.7 9.7-3.7 7.1 1.2 9.7 3.7c2.6 2.4 3.9 5.5 3.9 9.1s-1.3 6.7-3.9 9.1-5.8 3.7-9.7 3.7c-3.8 0-7.1-1.2-9.7-3.7m9.7-1.1c2.4 0 4.4-.8 5.9-2.3s2.3-3.4 2.3-5.7-.8-4.2-2.3-5.7-3.5-2.3-5.9-2.3-4.4.8-5.9 2.3-2.3 3.4-2.3 5.7.8 4.2 2.3 5.7 3.5 2.3 5.9 2.3" class="st20" style="fill:#fdfdfd"></path><path id="path376" d="M338.7 104.5v4.8h-9.1v20.8h-5.5v-20.8H315v-4.8z" class="st20" style="fill:#fdfdfd"></path><path id="path378" d="M362.1 116.7c2.4 1.5 3.7 3.5 3.8 5.9-.2 4.8-3 7.4-8.2 7.7h-15.3v-25.6h14.5c4.6.3 7 2.8 7.3 7.5q-.3 3.3-2.1 4.5m-14.3-1.9h7.6c2.2 0 3.3-1.1 3.4-3.2-.1-1.3-1.2-1.9-3.3-2h-7.7zm0 11.4h8.9c2.6 0 3.9-1.3 3.9-3.7-.1-1.6-1.4-2.5-3.9-2.6h-9v6.3z" class="st20" style="fill:#fdfdfd"></path><path id="path380" d="m369.9 130.2 10.9-25.6h5.5l10.9 25.6h-5.8l-1.6-3.9h-12.4l-1.6 3.9zm13.8-18.8-4.1 9.7h8.2z" class="st20" style="fill:#fdfdfd"></path><path id="path382" d="M406.7 104.5v20.8h14.5v4.8h-20v-25.6z" class="st20" style="fill:#fdfdfd"></path><path id="path384" d="M431.2 104.5v20.8h14.5v4.8h-20v-25.6z" class="st20" style="fill:#fdfdfd"></path><path id="path386" d="M465.6 126.5c-2.6-2.4-3.9-5.5-3.9-9.2 0-3.6 1.3-6.6 3.9-9.1s5.8-3.7 9.7-3.7 7.2 1.1 10 3.4l-3.6 3.7c-1.9-1.4-4-2.1-6.4-2.1s-4.4.7-5.9 2.2c-1.5 1.4-2.2 3.2-2.2 5.5 0 2.4.8 4.3 2.3 5.7s3.5 2.1 5.9 2.1 4.6-.7 6.3-2l3.6 3.7c-2.8 2.3-6.1 3.4-10 3.4-3.9.1-7.1-1.2-9.7-3.6" class="st20" style="fill:#fdfdfd"></path><path id="path388" d="M496.7 104.5v20.8h14.5v4.8h-20v-25.6z" class="st20" style="fill:#fdfdfd"></path><path id="path390" d="M520.7 104.5v14.9c0 1.9.6 3.4 1.8 4.3s2.7 1.4 4.5 1.4 3.3-.5 4.5-1.4 1.8-2.3 1.8-4.3v-14.9h5.5v16.2c0 2.6-1.1 4.8-3.4 6.7-2.2 1.8-5.1 2.7-8.5 2.7s-6.2-.9-8.5-2.7c-2.2-1.8-3.4-4-3.4-6.7v-16.2z" class="st20" style="fill:#fdfdfd"></path><path id="path392" d="M564.2 116.7c2.4 1.5 3.7 3.5 3.8 5.9-.2 4.8-3 7.4-8.2 7.7h-15.3v-25.6H559c4.6.3 7 2.8 7.3 7.5-.3 2.2-.9 3.7-2.1 4.5m-14.3-1.9h7.6c2.2 0 3.3-1.1 3.4-3.2-.1-1.3-1.2-1.9-3.3-2h-7.7zm0 11.4h8.9c2.6 0 3.9-1.3 3.9-3.7-.1-1.6-1.4-2.5-3.9-2.6h-9v6.3z" class="st20" style="fill:#fdfdfd"></path></g><g id="g400"><path id="path396" d="M272.7 450.9s-24.1 7.8-46.9 20.6l19.8 8.5s-15.4 24.3-17.8 30.7l76.6-30.4-33.1-6.6z" class="st19" style="fill:#fadf1b"></path><path id="path398" d="m271.4 452.6-1.4 21.1c0 .6.4 1.1.9 1.2l29.2 5.9-70.2 27.9c4.2-8.5 16.4-27.8 16.5-28 .2-.3.2-.6.1-1s-.3-.6-.7-.7l-17.6-7.5c18.7-10.1 37.6-17 43.2-18.9m1.3-1.7s-24.1 7.8-46.9 20.6l19.8 8.5s-15.4 24.3-17.8 30.7l76.6-30.4-33.1-6.6z"></path></g><g id="g406"><path id="path402" d="M524.1 448.4s32.6 12.1 42.8 18.7c2.2 1.5-.5 2.3-1.3 2.6s-12 3.8-13.9 4.4-4.5.6 1 9.7 13.7 22.5 13.7 22.5l-70-28.6 28.1-5.7z" class="st19" style="fill:#fadf1b"></path><path id="path404" d="M525.3 450.1c6.7 2.5 32.3 12.4 40.9 18l.1.1c-.3.2-.7.3-.9.4-.1 0-.2.1-.3.1-.7.3-11.7 3.7-13.8 4.4-.1 0-.2.1-.3.1-.8.2-2.1.6-2.6 1.8-.7 1.7.3 4.5 3.3 9.5 3.9 6.4 9.1 15 11.8 19.5l-63.1-25.8 24.3-4.9c.6-.1.9-.6.9-1.2zm-1.2-1.7.4 23.7-28.1 5.7 70 28.6s-8.1-13.4-13.7-22.5c-5.5-9.1-3-9.1-1-9.7s13.1-4.1 13.9-4.4 3.5-1.1 1.3-2.6c-10.2-6.7-42.8-18.8-42.8-18.8"></path></g></g><!-- source: https://football-logos.cc --></svg>