<svg xmlns="http://www.w3.org/2000/svg" viewBox="0 0 158.57 185.23"><!-- Source: https://football-logos.cc --><linearGradient id="a" x1="393.65" x2="396.18" y1="543.669" y2="331.406" gradientUnits="userSpaceOnUse" data-source="https://football-logos.cc"><stop offset=".243" stop-color="#eea219" stop-opacity="0"></stop><stop offset=".763" stop-color="#eea219" stop-opacity=".5"></stop></linearGradient><linearGradient id="b" x1="398.406" x2="398.406" y1="289.4" y2="61.3" gradientUnits="userSpaceOnUse"><stop offset=".19" stop-color="#fff"></stop><stop offset=".363" stop-color="#fdeab9"></stop><stop offset=".764" stop-color="#f7b70c"></stop></linearGradient><radialGradient id="c" cx="331.212" cy="194.313" r="29.282" gradientTransform="matrix(.9844 -.05723 .08325 1.4319 -10.07 -62.13)" gradientUnits="userSpaceOnUse"><stop offset="0" stop-color="#e52943" stop-opacity=".5"></stop><stop offset=".585" stop-color="#e52943" stop-opacity=".4"></stop><stop offset="1" stop-color="#e52943" stop-opacity="0"></stop></radialGradient><radialGradient id="d" cx="334.557" cy="194.315" r="29.255" gradientTransform="matrix(-.9844 -.05723 -.08325 1.4319 810.064 -61.941)" gradientUnits="userSpaceOnUse"><stop offset="0" stop-color="#e52943" stop-opacity=".5"></stop><stop offset=".521" stop-color="#e52943" stop-opacity=".4"></stop><stop offset="1" stop-color="#e52943" stop-opacity="0"></stop></radialGradient><radialGradient id="e" cx="398.396" cy="186.916" r="36.95" gradientTransform="matrix(.9844 -.05723 .02992 .5146 .628 116.515)" gradientUnits="userSpaceOnUse"><stop offset="0" stop-color="#f94900" stop-opacity=".95"></stop><stop offset=".539" stop-color="#f94900" stop-opacity=".7"></stop><stop offset=".723" stop-color="#f23e18" stop-opacity=".421"></stop><stop offset="1" stop-color="#e52943" stop-opacity="0"></stop></radialGradient><path fill="#0152a5" d="M9.224 6.138v110.358c0 31.22 5.477 39.026 28.628 49.715a17168 17168 0 0 1 40.878 18.891v.133s.053-.027.132-.053c.08.026.133.053.133.053v-.133c2.275-1.058 19.314-8.942 40.878-18.89 23.177-10.663 28.628-18.469 28.628-49.716V6.138z"></path><path fill="#fff" d="M23.538 20.188v97.79c0 26.035 4.34 26.828 22.754 35.718 17.119 8.282 30.665 14.87 32.465 15.743v.106s.026-.026.105-.053a.3.3 0 0 1 .106.053v-.106c1.8-.873 15.346-7.461 32.465-15.743 18.415-8.89 22.754-9.657 22.754-35.718v-97.79z"></path><path fill="#0152a5" d="M131.832 22.543v95.461c0 12.303-.979 18.362-3.598 22.331-2.646 3.995-7.409 6.27-15.24 10.054-.82.397-1.667.794-2.567 1.244-15.346 7.434-27.913 13.52-31.538 15.293a8766 8766 0 0 0-31.538-15.293c-.9-.424-1.747-.847-2.567-1.244-7.858-3.757-12.594-6.032-15.24-10.054-2.62-3.969-3.598-10.028-3.598-22.33V22.542z"></path><path d="M89.393 110.516c2.672-.608 5.212-1.402 7.62-2.407V92.604c-17.727 10.24-43.604 10.69-59.161 1.244-4.63-2.805-8.599-6.588-11.96-10.795V93.82c9.552 7.62 33.656 23.363 63.5 16.695"></path><path fill="#f7b70c" d="M123.233 62.468c-5.397 5.107-11.483 7.726-17.119 8.97v10.45c4.63-3.518 7.224-6.508 7.224-6.508-1.747 3.89-4.234 7.355-7.224 10.345v17.436c12.515-8.625 20.638-22.33 25.718-34.158V46.911c-1.111 5.582-3.81 11.006-8.599 15.557"></path><path fill="#e52943" d="M120.323 53.049c9.18-8.97 7.064-22.04 4.26-30.506H106.14v38.126c4.524-.9 9.525-3.07 14.182-7.62m11.51-30.506h-4.26a38.2 38.2 0 0 1 4.26 11.853zM67.274 92.022c11.668 2.381 21.907-.476 29.739-4.445v-15.16c-6.033.026-10.24-1.112-10.24-1.112l3.916-11.72s2.487 1.005 6.324 1.428v-38.47H53.515l6.139 3.704S42.535 33.999 49.36 55.51s20.241 22.198 34 22.569c0 0-20.135 7.17-35.984-7.515-15.187-14.102-11.668-36.697 2.01-48.021H25.894V55.88c7.038 22.093 19.394 31.67 41.38 36.142"></path><path fill="#019a47" d="M106.114 116.946v12.065c4.472-2.62 9.023-5.953 13.574-10.134v15.108s-5.16 3.89-13.574 7.329v12.356a329 329 0 0 1 4.287-2.064c.9-.423 1.746-.846 2.566-1.243 7.858-3.757 12.594-6.033 15.24-10.054 2.62-3.97 3.599-10.028 3.599-22.331v-35.19c-6.218 17.886-15.426 28.31-25.692 34.158"></path><path fill="#0152a5" d="M25.893 113.877v4.127c0 12.303.979 18.362 3.598 22.331 2.646 3.995 7.408 6.27 15.24 10.054.82.397 1.667.794 2.567 1.244 15.345 7.434 27.913 13.52 31.538 15.293 2.487-1.217 9.207-4.472 18.15-8.811V144.41c-18.864 4.92-46.54 3.65-71.093-30.533" data-source="https://football-logos.cc"></path><path d="M97.013 133.456V120.94c-13.018 4.18-26.75 2.858-37.73 1.19-15.795-2.38-26.829-8.995-33.39-14.234v5.054c8.308 8.387 37.147 33.655 71.12 20.505"></path><path fill="#00abf3" d="M123.233 62.468c4.789-4.55 7.488-9.948 8.599-15.557V34.396c-.767-4.233-2.275-8.282-4.26-11.853h-2.99c2.831 8.466 4.922 21.563-4.26 30.506-4.656 4.524-9.657 6.694-14.208 7.593v-38.1h-9.101v38.47c-3.837-.422-6.324-1.428-6.324-1.428l-3.916 11.721s4.207 1.138 10.24 1.111v15.161c-7.832 3.969-18.071 6.826-29.74 4.445-21.986-4.471-34.342-14.05-41.38-36.142v27.173c3.386 4.207 7.329 7.99 11.959 10.795 15.557 9.445 41.434 8.996 59.16-1.244v15.505c-2.407 1.005-4.947 1.799-7.62 2.407-29.844 6.668-53.948-9.075-63.5-16.695v14.103c6.562 5.212 17.596 11.853 33.391 14.234 10.98 1.667 24.712 2.99 37.73-1.19v12.514C63.04 146.66 34.2 121.364 25.893 113.004v.926c24.553 34.13 52.229 35.4 71.12 30.427v13.705c2.83-1.376 5.874-2.857 9.101-4.392v-12.356c8.414-3.44 13.574-7.329 13.574-7.329v-15.108c-4.578 4.18-9.102 7.514-13.574 10.134v-12.065c10.266-5.847 19.474-16.272 25.718-34.158V68.977c-5.054 11.827-13.203 25.532-25.718 34.158v-17.41c3.017-2.99 5.477-6.456 7.224-10.345 0 0-2.593 2.99-7.224 6.509V71.437c5.636-1.243 11.722-3.862 17.119-8.969"></path><path fill="#00abf3" d="M47.377 70.538c15.849 14.684 35.983 7.514 35.983 7.514-13.758-.344-27.172-1.032-33.999-22.569-6.826-21.51 10.293-29.263 10.293-29.263l-6.139-3.704h-4.127c-13.68 11.35-17.198 33.946-2.011 48.022"></path><g transform="translate(-26.548 -13.23)scale(.26458)"><circle cx="398.6" cy="509.9" r="72.5" fill="#0152a5"></circle><circle cx="398.6" cy="509.9" r="66.4" fill="#fff"></circle><path fill="#0152a5" d="m470.8 516.6-8.8-3.2-.5-1.3c-.5-1.9-6.2-24.9-14.1-39.9l-.7-1.2 4.4-11.2c-6-6.3-13.1-11.4-20.9-15.3l-8 6.2c-8.5-.1-22.5.4-44.8 3l-11.2-8.8c-7.8 3.9-14.9 9.2-20.8 15.6l4.5 11.6c-3.6 7.7-8.8 21-13.3 40.1l-10 5.8c1.1 9.8 4.2 19 8.8 27.2h11l35 24.9.6 10.2c5.4 1.3 10.9 1.9 16.7 1.9 5.6 0 11.1-.6 16.4-1.9l1.1-10.5 1-.6 32-22.4 1.2-1.2 10.6 1.2c5.3-8.7 8.8-19.1 9.8-30.2m-12.6-3.6.2.5-15.4 9.7-20.2-7.9-8.1-25.8 1.1-1.8 10.2-17.1 17.8 2.2.6 1.1c7.8 14.9 13.7 38.9 13.8 39.1m-77.5-23.1-7.1 26.2-19.2 7-14.3-10.7c4.5-18.9 9.7-31.9 13.2-39.3l16.6-2.1c4.7 7.2 8.3 13.8 10.8 18.9m-25.9 36.8 19.5-7.2 22.2 16.6v21l-13.8 9.9-33-23.5zm29-38.4c-2.7-5.4-6.5-12.4-11.4-19.9l4.4-11.1c19.8-2.3 33.2-3 41.9-3.1l5.2 13.2-.3.7-10.6 17.8-1.4 2.4zm31.5 78.2-.6.4-14.7-10.5v-20.2l21.9-17.5 19.9 7.8 5.6 17.3-.5.5z"></path></g><path fill="#0152a5" d="M20.363 81.73s-6.297 11.218-9.71 17.198l-6.588 1.455c-3.175 5.133-5 10.451-3.572 12.78 1.243 3.412 7.329 2.99 8.731.634v1.244h66.94l18.812-33.338H20.363z"></path><path fill="#fff" d="M21.818 84.217h3.995s-9.736 16.986-12.54 21.934c-1.985 3.492-6.589 7.461-9.076 7.038-1.905-.344-3.07-2.62 1.508-10.584l4.048-.9s-1.323 2.752-1.799 3.758c-.45.979.423 2.328 2.91-1.905 2.593-4.419 10.954-19.341 10.954-19.341m7.038 0L12.505 112.58h4.101l16.192-28.363zM27.48 112.58h3.81l16.087-28.363H43.62l-8.282 14.499 4.049-14.5h-3.572L19.622 112.58H23.3l8.52-14.737zm11.907 0h3.069L55.71 92.79l-11.297 19.79h3.307l16.192-28.363H58.7l-10.927 16.06 7.461-16.06h-5.027L33.963 112.58h3.333l11.166-19.79zm27.252-28.363L50.26 112.58h10.345l3.784-6.482h-6.668l3.122-5.345h6.033l3.36-6.112H64.39l2.513-4.312h6.139l3.36-6.112h-7.038zm20.425 0h3.678L74.735 112.58h-3.942l4.339-14.499-8.335 14.5h-3.942l16.22-28.364h3.941L78.44 99.404z"></path><path fill="#0152a5" d="M157.973 83.74c-1.19-1.93-3.466-1.93-4.683-1.93h-20.03l-1.614 2.777c-.265-1.164-.873-2.063-1.8-2.725-2.619-1.852-6.535-.53-9.419 1.455l.874-1.534H98.07l-6.72 11.72h3.677l-12.197 21.59h8.996l12.435-21.563h1.217l-12.435 21.564h9.208l2.143-3.757c.026.132.053.29.08.423.528 2.275 2.09 3.757 4.285 4.048.265.027.53.053.82.053 1.509 0 3.123-.53 4.71-1.323v.53h30.189l.635-1.562c.08-.264 2.514-6.27 3.519-9.075a7.5 7.5 0 0 0 .476-2.91c3.44-2.25 6.535-7.859 7.594-9.922 1.455-2.831 2.62-5.768 1.27-7.858"></path><path fill="#fff" d="M113.073 84.217 96.722 112.58h4.1l16.193-28.363zm21.59 0-16.378 28.363h10.346l3.757-6.482h-6.641l3.122-5.345h6.032l3.36-6.112h-5.847l2.514-4.312h6.138l3.36-6.112h-7.064zm-43.63 28.363 12.33-21.59h3.598l4.154-6.773H99.5l-3.89 6.773h3.652l-12.198 21.59zm31.988-19.261s1.456-5.61-1.799-2.488c-3.228 3.123-5.318 6.006-8.281 12.833-2.937 6.826 4.789 1.508 5.212-1.217h-2.593l3.52-6.245h5.9s-2.938 5.715-5.319 10.187c-2.381 4.445-11.562 10.186-12.78 4.789-1.216-5.371 8.52-20.585 13.31-24.58 3.942-3.81 12.832-6.43 7.408 5.265zm30.295-9.102h-6.165l-16.033 28.363h3.915l6.562-11.615c1.244 0 .397 2.143.027 2.99-.344.873-3.096 8.625-3.096 8.625h4.286s2.487-6.191 3.493-8.996c.82-2.275-.133-3.598-.133-3.598 1.64.238 5.133-3.334 8.335-9.551 3.069-6.006 1.137-6.218-1.19-6.218m-4.895 9.948c-.74 1.164-2.407 1.455-3.836 1.482l3.201-5.689c.609 0 1.244 0 1.773-.026 1.429-.027.238 2.064-1.138 4.233"></path><path fill="url(#a)" d="M109.8 469.6c11.5-3.8 23.4-7.6 35.8-11.4-8.6 10.9-21.7 20.8-29.5 19.4-3.4-.5-6.1-2.7-6.3-8m50.2-15.7-12.5 21.6H163l15.3-26.8c-6.1 1.7-12.2 3.5-18.3 5.2m31.9-8.9-17.4 30.5h14l20.1-34.9c-5.7 1.5-11.2 2.9-16.7 4.4m23-6-10.7 36.5h14.4l24.6-43.4c-9.6 2.3-19 4.6-28.3 6.9m40.2-9.5-26.4 46.1h12.7l27.7-49.1c-4.8.9-9.4 1.9-14 3m29.8-6.4-4 5.9 2.6-5.6c-3.8.8-7.7 1.6-11.5 2.4l-22.8 49.8h11.6l36.7-54.9c-4.2.7-8.4 1.6-12.6 2.4m14.9-2.9-31.5 55.4h12.5l33.1-58c-4.8.8-9.5 1.7-14.1 2.6m18.7 30.8 11.8-20.3h22.8l11.9-21.6c-13.6 2-27 4.1-40.1 6.4l-34.6 59.9h39.1l14.2-24.5h-25.1zm90.9-47.6-12.6 22.2 6.5-21.5c-8.9 1-17.7 2.2-26.5 3.4l-38.9 68h15l31.5-54.9-16.4 54.9h14.9l41.6-73.7c-5.1.5-10.1 1.1-15.1 1.6m102.6-7.8-46.1 79.9h15.5l45.9-80.4c-5.1.1-10.2.3-15.3.5m63.6 55.4 11.8-20.3h22.8l12.7-23.1h-22.1l7.2-12.4c-4.7-.2-9.4-.3-14.1-.4l-46.5 80.7h39.1l14.2-24.5zm-102.2-53.3-44 77.9h15.1l45-78.9c-5.5.3-10.8.6-16.1 1m99.4 16h-22.3l-13.3 23.6h9.8c-1.5 10.3-30.8 30.4-19.7 4.6 10.7-24.9 18.5-35.9 30-47.3-6.1 0-12.2.1-18.3.2-17.9 23.5-38.1 60.1-34.6 75.5 4.6 20.3 39.4-1.3 48.3-18.2 8.9-16.8 20.1-38.4 20.1-38.4m107.3-14.1c-4.8-.4-9.5-.8-14.3-1.2-1.2 2.3-2.8 4.9-4.5 7.5-2.8 4.3-9.1 5.5-14.5 5.6l7.8-13.9c-4.8-.3-9.5-.6-14.2-.9l-44.5 78.8h14.8l24.8-43.9c4.7 0 1.5 8.1.1 11.3-1.3 3.3-11.7 32.6-11.7 32.6h16.2s9.4-23.4 13.2-34c3.1-8.6-.6-13.5-.6-13.5 5.6.8 16.6-9.7 27.4-28.4" transform="translate(-26.548 -13.23)scale(.26458)"></path><g transform="translate(-26.548 -13.23)scale(.26458)"><path fill="#0152a5" d="M527.8 122c29.5-46.2-6.4-72-6.4-72s-5.5 3.3-10.7 3.8c-18.9 1.6-43.9 10.9-43.9 10.9-15.5-8.1-43.6-12.9-68.3-12.9s-52.8 4.8-68.3 12.9c0 0-25-9.3-43.9-10.9-5.2-.5-10.7-3.8-10.7-3.8s-36 25.8-6.4 72c0 0-51 93.1 32.9 158.3l2.8-10.1s12.3 9.9 15.6 12.6c22 18.5 5.7 31.8 23.4 50.7 7.4 7.9 8.5 8.7 13.8 14l4.8-4.8s15.2 8.5 36.1 8.5 36.1-8.5 36.1-8.5l4.8 4.8c5.3-5.3 6.4-6.1 13.8-14 17.7-18.9 1.4-32.2 23.4-50.7 3.3-2.7 15.6-12.6 15.6-12.6l2.8 10.1c83.7-65.1 32.7-158.3 32.7-158.3"></path><path fill="url(#b)" d="M514.5 121.2s31-24.9 4.4-59.9c0 0-25.8 2-52.5 13.2 0 0-20.4-13.2-68-13.2s-68 13.2-68 13.2c-26.7-11.3-52.5-13.2-52.5-13.2-26.7 35 4.4 59.9 4.4 59.9-53.8 82.6 18.6 148.4 18.6 148.4.9-6.6 2.6-9 2.6-9 15.8 9.4 25.4 19.9 31.3 28.8 3.7-1.8 8.8-6.5 6.9-18.3 0 0-43.2-21.5-39.6-71 0 0 1.6 40.3 36.7 57.1 0 0-2.3-6.5-2.8-16.3 0 0-21.4-8.8-21-29.8.3-13.1 9.3-16 15.6-16s12.1 3.4 15.4 5.1c5 2.5 13.2 3.2 13.2 3.2l.3 6.3s-9.1-.4-18.8-5.4c-8.3-4.2-15.2-1.7-15.2-1.7s12.5 10.8 43.5 17.8c0 0-19 6.2-46.7-13.1 0 0-2.9 5.5 2.1 8.2 8.7 4.7 17.2 12.6 46.3 17.3 0 0-17 6-45.7-9.4.6.6 18.9 19.3 43.8 18.5 24.1-.8 29.5-11.7 29.5-11.7s5.4 10.9 29.5 11.7c24.9.8 43.2-17.9 43.8-18.5-28.7 15.4-45.7 9.4-45.7 9.4 29.1-4.7 37.7-12.6 46.3-17.3 5-2.7 2.1-8.2 2.1-8.2-27.7 19.3-46.7 13.1-46.7 13.1 31-6.9 43.5-17.8 43.5-17.8s-6.9-2.5-15.2 1.7c-9.7 4.9-18.8 5.4-18.8 5.4l.3-6.3s8.3-.7 13.2-3.2c3.3-1.6 9.2-5.1 15.4-5.1s15.2 2.9 15.6 16c.3 21-21 29.8-21 29.8-.4 9.8-2.8 16.3-2.8 16.3 35.1-16.7 36.7-57.1 36.7-57.1 3.6 49.5-39.6 71-39.6 71-1.9 11.8 3.2 16.5 6.9 18.3 5.9-8.9 15.6-19.4 31.3-28.8 0 0 1.7 2.4 2.6 9 .3 0 72.6-65.8 18.8-148.4"></path><path fill="url(#c)" d="M361.7 195.1c1.8 24.9-10 46.1-26.4 47.2-16.3 1.2-31-18.1-32.7-43.1s10-46.1 26.4-47.2c16.3-1.1 31 18.2 32.7 43.1"></path><path fill="url(#d)" d="M435 195.1c-1.8 24.9 10 46.1 26.4 47.2 16.3 1.2 31-18.1 32.7-43.1 1.8-24.9-10-46.1-26.4-47.2-16.2-1.1-30.9 18.2-32.7 43.1"></path><ellipse cx="398.4" cy="189.9" fill="url(#e)" rx="36.2" ry="19.3"></ellipse><g fill="#0152a5"><path d="M462 289.4H334.8c3.7-1.8 8.8-6.5 6.9-18.3 0 0-43.2-21.5-39.6-71 0 0 1.6 40.3 36.7 57.1 0 0-2.3-6.5-2.8-16.3 0 0-21.4-8.8-21-29.8.3-13.1 9.3-16 15.6-16 6.2 0 12.1 3.4 15.4 5.1 5 2.5 13.2 3.2 13.2 3.2l.3 6.3s-9.1-.4-18.8-5.4c-8.3-4.2-15.2-1.7-15.2-1.7s12.5 10.8 43.5 17.8c0 0-19 6.2-46.7-13.1 0 0-2.9 5.5 2.1 8.2 8.7 4.7 17.2 12.6 46.3 17.3 0 0-17 6-45.7-9.4.6.6 18.9 19.3 43.8 18.5 24.1-.8 29.5-11.7 29.5-11.7s5.4 10.9 29.5 11.7c24.9.8 43.2-17.9 43.8-18.5-28.7 15.4-45.7 9.4-45.7 9.4 29.1-4.7 37.7-12.6 46.3-17.3 5-2.7 2.1-8.2 2.1-8.2-27.7 19.3-46.7 13.1-46.7 13.1 31-6.9 43.5-17.8 43.5-17.8s-6.9-2.5-15.2 1.7c-9.7 4.9-18.8 5.4-18.8 5.4l.3-6.3s8.3-.7 13.2-3.2c3.3-1.6 9.2-5.1 15.4-5.1s15.2 2.9 15.6 16c.3 21-21 29.8-21 29.8-.4 9.8-2.8 16.3-2.8 16.3 35.1-16.7 36.7-57.1 36.7-57.1 3.6 49.5-39.6 71-39.6 71-1.8 11.8 3.3 16.5 7.1 18.3"></path><path d="M354.4 103.2s-47 16.2-60.8 87.9c0 0-4.6-36.9 20-68.1 0 0-54.8 39.7-13.4 125.3-26.6-27.9-44.4-91.3 12.8-146.9 0 0-13.3-5.7-3-18 0 0-10.7-4.3-26.9-4.4 0 0-7.3 20 7 39.2 0 0-25.9-21.3-10.1-47.5 0 0 16.1-1.5 51.5 13 0 0 15.1-7.9 35.3-8-13.8 6.6-38.9 14.1-57.4 43.1-.1-.3 21.1-17.1 45-15.6"></path><path d="M404.1 94.9c24.7 0 45.5 3.5 45.5 3.5-14.9-8.1-34.5-10.8-45.5-10.8v-5.8c14.6 0 32.8 2.2 32.8 2.2-11.8-5.2-22.5-7.8-38.5-7.8s-26.7 2.6-38.5 7.8c0 0 18.1-2.2 32.8-2.2v5.8c-10.9 0-30.6 2.7-45.5 10.8 0 0 20.8-3.5 45.5-3.5v6.4c-6 0-24.3 1.1-39.8 8.9 0 0 21.4-2.6 45.6-2.6s45.6 2.6 45.6 2.6c-15.6-7.7-33.9-8.9-39.8-8.9-.2-2-.2-2.9-.2-6.4"></path><path d="M442.4 103.2s47 16.2 60.8 87.9c0 0 4.6-36.9-20-68.1 0 0 54.8 39.7 13.4 125.3 26.6-27.9 44.4-91.3-12.8-146.9 0 0 13.3-5.7 3-18 0 0 10.7-4.3 26.9-4.4 0 0 7.3 20-7 39.2 0 0 25.9-21.3 10.1-47.5 0 0-16.1-1.5-51.5 13 0 0-15.1-7.9-35.3-8 13.8 6.6 38.9 14.1 57.4 43.1 0-.3-21.2-17.1-45-15.6"></path><path d="M463.1 181.2c-8.6-2.2-7.5-6.6-7.5-6.6 26.1-1.1 18.3-25.2 18.3-25.2-7.8 5.9-21.6 6.8-21.6 6.8 0 13.1-6.2 16.1-12 16.1-5.7 0-9-3.6-9-3.6v13.7c-19.5-2.9-10.4-27.3 7.7-30.2 8-1.3 23.4-2.5 23.4-15.6s-12.2-22-32.4-22c-19.1 0-31.6 12.4-31.6 12.4s-12.4-12.4-31.6-12.4c-20.2 0-32.4 8.9-32.4 22s15.4 14.3 23.4 15.6c18.1 2.8 27.2 27.3 7.7 30.2v-13.7s-3.2 3.6-9 3.6c-5.7 0-12-3-12-16.1 0 0-13.8-.9-21.6-6.8 0 0-7.9 24 18.3 25.2 0 0 1.1 4.4-7.5 6.6-8.8 2.2-16.5.7-16.5.7s5.6 15.7 30.7 7.9c8.3-2.5 36.3 11.1 38.3-21.8 0 0 .8-2.6 3.3 1.2 2.5 3.9 5.7 4.6 9 4.6s6.5-.7 9-4.6 3.3-1.2 3.3-1.2c2 33 30 19.3 38.3 21.8 25.1 7.9 30.7-7.9 30.7-7.9s-8 1.5-16.7-.7"></path><circle cx="356.1" cy="161.6" r="5.9"></circle><circle cx="440.6" cy="161.6" r="5.9"></circle></g><ellipse cx="398.4" cy="144.8" fill="#eda41b" rx="12.4" ry="20"></ellipse><path fill="#fff" d="M383 122.4s-13.4-4.1-23.5-2.1c-11.2 2.2-22.5 13.1-15.8 17.5s9.7 5.4 12.5 1.1c3.3-5.2 9.9-12.4 26.8-16.5m5.9 4.1s-15.4 1.8-27.9 17.9c0 0 13.6 7 18.3 17.1 0 0-1.2-3.9 4.2-7.2-.2-.1-3.7-17 5.4-27.8m24.9-4.1s13.4-4.1 23.5-2.1c11.2 2.2 22.5 13.1 15.8 17.5s-9.7 5.4-12.5 1.1c-3.3-5.2-9.9-12.4-26.8-16.5m-5.9 4.1s15.4 1.8 27.9 17.9c0 0-13.6 7-18.3 17.1 0 0 1.2-3.9-4.2-7.2.1-.1 3.6-17-5.4-27.8"></path><path fill="#0152a5" d="M431.1 200.7c-.7-4.9-10.5-3.9-16.9-1.8-6 1.9-7.4 3.4-15.7 3.4-8.4 0-9.7-1.5-15.7-3.4-6.4-2.1-16.3-3-16.9 1.8-.7 4.9 1.7 9 5.7 12.2 0 0 5.6-5.3 10.2-.9s.6 10.2-1.2 10.2c0 0 5.8 9.2 18 9.2s18-9.2 18-9.2c-1.8 0-5.7-5.7-1.2-10.2 4.5-4.4 10.2.9 10.2.9 3.7-3.2 6.1-7.3 5.5-12.2"></path><path fill="#e52943" d="M420.4 261.2c-3.1 6.1-13 12.5-22.1 12.5s-19-6.5-22.1-12.5c0 0-6.9 31.1 22.1 31.1s22.1-31.1 22.1-31.1"></path><path fill="#fff" d="M350 249.9h19.5s-5.7 7.2-4.6 29.7c0 .1-14.9-7.8-14.9-29.7m96.8 0h-19.5s5.7 7.2 4.6 29.7c0 .1 14.9-7.8 14.9-29.7m-58.4 10 3.9-6.7 6.1 5.4 6.1-5.4 3.9 6.7 4.8-6.2 4.4 6.2 7.2-10H372l7.2 10 4.4-6.2zm44.4 22.3s2.9 18.2-11.7 21.7l-2.9-5.2-4.6 5.7-4.1-5.2-4.9 4.8-6.2-4.8-6.2 4.8-4.9-4.8-4.1 5.2-4.6-5.7-2.9 5.2c-14.6-3.5-11.7-21.7-11.7-21.7-11.1 15.8-.1 30.5 7.7 30.3 9.3-.3 10.5-4.7 15.4-4.7h22.8c4.9 0 6 4.4 15.4 4.7 7.6.2 18.6-14.5 7.5-30.3"></path><path fill="#fff" d="M453.3 310.5c-9.8 5.7-19.9 7.7-31 5.7-9.6-1.7-16.4-3-23.9-3s-14.3 1.3-23.9 3c-11.1 2-21.2 0-31-5.7 0 0-2.2 15.2 13.1 25.2l4.8-7.3s6.6 14.4 37.1 14.9c30.5-.5 37.1-14.9 37.1-14.9l4.8 7.3c15.1-10 12.9-25.2 12.9-25.2"></path></g><path fill="#fff" d="M69.02 148.537v3.519c0 .212.053.344.159.37.105.053.37.053.767.053h.159v.212c-.503 0-.9-.026-1.164-.026h-1.403c-.318 0-.714 0-1.217.026v-.212h.265q.754 0 .952-.079c.198-.079.185-.185.185-.37v-3.017c-.264.027-.529.053-.74.08-.239.026-.45.053-.635.106v-.239c.264-.053.74-.105 1.349-.185s1.085-.185 1.323-.238m6.88 2.275c-.239.133-.53.239-.821.292a3.7 3.7 0 0 1-.953.105c-.661 0-1.164-.105-1.56-.344s-.583-.555-.583-.952c0-.423.238-.767.688-1.032q.714-.397 1.826-.397c.846 0 1.508.185 1.984.53.476.37.715.872.715 1.534s-.265 1.19-.82 1.561c-.556.397-1.297.582-2.25.582-.582 0-1.084-.08-1.481-.265-.397-.158-.582-.37-.582-.608 0-.106.053-.185.132-.265.106-.079.212-.106.37-.106s.291.027.397.106.132.16.132.291c0 .027 0 .08-.026.133l-.08.158c.106.08.239.16.45.212s.424.08.688.08c.582 0 1.032-.133 1.323-.424s.424-.635.45-1.19m-.027-.264v-.291c0-.53-.106-.926-.344-1.164s-.582-.37-1.085-.37c-.397 0-.715.105-.953.29s-.344.45-.344.794.133.609.37.82c.239.185.583.291 1.033.291.238 0 .476-.026.714-.106.238-.052.45-.132.609-.264m7.224.263c-.238.133-.53.239-.82.292a3.7 3.7 0 0 1-.953.105c-.661 0-1.164-.105-1.561-.344s-.582-.555-.582-.952c0-.423.238-.767.688-1.032q.715-.397 1.825-.397c.847 0 1.509.185 1.985.53.476.37.714.872.714 1.534s-.264 1.19-.82 1.561c-.556.397-1.296.582-2.249.582-.582 0-1.085-.08-1.482-.265-.397-.158-.582-.37-.582-.608 0-.106.053-.185.133-.265.105-.079.211-.106.37-.106s.291.027.397.106.132.16.132.291c0 .027 0 .08-.026.133l-.08.158c.106.08.238.16.45.212s.423.08.688.08c.582 0 1.032-.133 1.323-.424.265-.212.423-.635.45-1.19m-.027-.264v-.291c0-.53-.106-.926-.344-1.164s-.582-.37-1.084-.37c-.397 0-.715.105-.953.29s-.344.45-.344.794.132.609.37.82.583.291 1.032.291c.238 0 .477-.026.715-.106s.45-.132.608-.264m6.774-.08c.555.105.952.238 1.243.396s.397.397.397.662c0 .37-.238.661-.688.873s-1.085.317-1.852.317c-.74 0-1.323-.105-1.773-.29-.45-.212-.661-.45-.661-.794 0-.238.132-.45.397-.609s.635-.29 1.164-.397c-.423-.106-.74-.211-.953-.37s-.317-.37-.317-.609c0-.344.212-.608.608-.82s.953-.317 1.614-.317c.635 0 1.138.105 1.535.29s.582.424.582.741q0 .318-.317.556a4 4 0 0 1-.98.37m-1.403.29c-.29.08-.529.212-.688.371s-.238.344-.238.556c0 .238.133.45.397.608s.635.238 1.058.238c.397 0 .741-.08 1.006-.211s.37-.318.37-.556-.132-.423-.37-.556c-.265-.158-.767-.317-1.535-.45m1.006-.396c.264-.08.45-.186.608-.344a.66.66 0 0 0 .212-.477c0-.238-.106-.45-.344-.608s-.53-.238-.873-.238-.635.08-.873.211-.344.318-.344.53.106.37.344.502c.238.16.661.291 1.27.424m-69.108-30.294v6.403h-1.35v-2.381h-6.43v-1.614h6.43v-2.382h1.35zm-7.224 11.589-.185-1.64 7.726-.821.185 1.64zm.662 3.757 8.228.29.609 2.038-6.668 4.842-.502-1.693 1.534-1.059-.82-2.672-1.852-.026zm4.286 3.625 2.54-1.773-.026-.053-3.096-.053zm3.863 12.621-.873-1.112 1.773-5.689-.027-.053-3.863 3.017-1.005-1.297 6.138-4.789.9 1.138-1.8 5.662.054.053 3.862-3.016 1.006 1.296zm12.303-.556-2.937 4.55c-.82 1.27-2.249 1.482-3.572.635-1.19-.767-1.296-1.11-1.005-3.307l1.64.08c-.238 1.666-.344 1.984.133 2.169.555.238 1.005.185 1.402-.45l2.937-4.55zM59.6 163.327l-2.275 4.922c-.635 1.375-2.01 1.772-3.44 1.11-1.27-.581-1.507-1.058-1.428-3.439l1.614-.026c-.053 1.825-.053 2.196.423 2.328.582.159 1.032.027 1.35-.635l2.275-4.921zm-24.632-3.254-1.482-.714 3.387-6.985 1.482.714zm8.599 4.445-1.27-.635-.794-5.9-.053-.027-2.222 4.366-1.455-.741 3.545-6.932 1.296.661.768 5.874.053.027 2.222-4.366 1.455.74zm17.436 7.964-1.508-.688 3.201-7.09 1.508.687zm8.864 4.074-1.297-.608-1.005-5.874-.053-.026-2.064 4.445-1.482-.688 3.281-7.065 1.297.609.979 5.847.053.027 2.063-4.445 1.482.688zm6.799-6.402 1.879 5.238h.08l1.878-5.238h1.773v7.778h-1.403v-5.053h-.053l-1.746 5.027h-.952l-1.747-5.054h-.053v5.08H74.92v-7.778zm7.488-.424 4.763-2.17.555 1.244-3.28 1.482.767 1.693L90 170.603l.556 1.244-3.043 1.376.768 1.693 3.28-1.482.556 1.244-4.789 2.17zm17.119.953-1.297.555-5.053-3.148-.053.026 1.958 4.498-1.509.662-3.095-7.144 1.323-.582 5.027 3.148.053-.026-1.958-4.498 1.508-.662zm3.651-10.319 5.794-2.699.582 1.217-2.17 1.006 2.7 5.82-1.482.688-2.699-5.82-2.17 1.005zm13.335 2.17-1.482.687-3.307-7.037 1.482-.688zm7.779-12.594 4.127-3.229.847 1.059-2.831 2.222 1.137 1.455 2.62-2.063.846 1.058-2.619 2.064 1.138 1.455 2.83-2.222.848 1.058-4.128 3.254zm5.688-5.107 1.508-2.672c.873-1.535 2.25-1.932 3.599-1.165.926.53 1.349 1.323 1.243 2.302l3.44.053-.9 1.588-3.122-.08-.582 1.032 2.408 1.376-.82 1.429zm4.577-.556c.477-.82.344-1.402-.317-1.799-.662-.37-1.27-.185-1.746.635l-.556.953 2.037 1.164zm.424-10.901.476-5.132 1.35.132-.318 3.492 1.852.16.291-3.15 1.35.133-.292 3.148 3.202.291-.159 1.64zm3.493-12.911c-.847.132-1.377.767-1.377 1.667 0 1.217.926 1.984 2.54 1.984 1.667 0 2.54-.794 2.54-1.984 0-.873-.476-1.535-1.322-1.694v-1.667c1.428.186 2.751 1.376 2.751 3.387 0 2.09-1.455 3.625-3.995 3.625s-3.995-1.561-3.995-3.625c0-1.799 1.032-3.148 2.83-3.387zm-14.95 33.496-2.963 1.693.714 1.244 1.482-.847.397.688a3.5 3.5 0 0 1-.45.715 3 3 0 0 1-.688.608c-.529.291-1.058.37-1.587.185s-1.006-.635-1.429-1.376q-.596-1.031-.397-1.825c.2-.794.45-.953 1.005-1.244.344-.211.715-.29 1.032-.238.344.027.635.185.873.423l.053.053 1.297-1.11-.08-.08c-.476-.53-1.058-.847-1.72-.926s-1.402.106-2.222.582c-.635.37-1.085.767-1.402 1.243-.397.609-.582 1.27-.556 1.958s.212 1.403.609 2.09c.37.635.82 1.138 1.376 1.535s1.19.582 1.852.582h.026c.688 0 1.376-.212 2.064-.582.53-.317 1.032-.714 1.429-1.217s.688-.979.793-1.402v-.053z" data-source="https://football-logos.cc"></path><!-- source: https://football-logos.cc --></svg>